ISO-10303-21;
HEADER;
FILE_DESCRIPTION(('FreeCAD Model'),'2;1');
FILE_NAME('Open CASCADE Shape Model','2026-09-27T11:32:34',('Author'),(
    ''),'Open CASCADE STEP processor 7.8','FreeCAD','Unknown');
FILE_SCHEMA(('AUTOMOTIVE_DESIGN { 1 0 10303 214 1 1 1 1 }'));
ENDSEC;
DATA;
#1 = APPLICATION_PROTOCOL_DEFINITION('international standard',
  'automotive_design',2000,#2);
#2 = APPLICATION_CONTEXT(
  'core data for automotive mechanical design processes');
#3 = SHAPE_DEFINITION_REPRESENTATION(#4,#10);
#4 = PRODUCT_DEFINITION_SHAPE('','',#5);
#5 = PRODUCT_DEFINITION('design','',#6,#9);
#6 = PRODUCT_DEFINITION_FORMATION('','',#7);
#7 = PRODUCT('Body001','Body001','',(#8));
#8 = PRODUCT_CONTEXT('',#2,'mechanical');
#9 = PRODUCT_DEFINITION_CONTEXT('part definition',#2,'design');
#10 = ADVANCED_BREP_SHAPE_REPRESENTATION('',(#11,#15),#2051);
#11 = AXIS2_PLACEMENT_3D('',#12,#13,#14);
#12 = CARTESIAN_POINT('',(0.,0.,0.));
#13 = DIRECTION('',(0.,0.,1.));
#14 = DIRECTION('',(1.,0.,-0.));
#15 = MANIFOLD_SOLID_BREP('',#16);
#16 = CLOSED_SHELL('',(#17,#59,#90,#134,#297,#321,#346,#371,#430,#448,
    #479,#643,#667,#684,#708,#733,#757,#775,#807,#831,#856,#880,#905,
    #929,#954,#971,#999,#1027,#1045,#1073,#1085,#1167,#1199,#1223,#1248,
    #1272,#1297,#1321,#1346,#1363,#1395,#1419,#1444,#1468,#1493,#1517,
    #1542,#1559,#1603,#1628,#1664,#1689,#1725,#1750,#1786,#1803,#1834,
    #1859,#1884,#1908,#1932,#1957,#1982,#2019,#2035));
#17 = ADVANCED_FACE('',(#18),#54,.T.);
#18 = FACE_BOUND('',#19,.F.);
#19 = EDGE_LOOP('',(#20,#30,#39,#47));
#20 = ORIENTED_EDGE('',*,*,#21,.T.);
#21 = EDGE_CURVE('',#22,#24,#26,.T.);
#22 = VERTEX_POINT('',#23);
#23 = CARTESIAN_POINT('',(303.75814748647,-32.71520251352,0.));
#24 = VERTEX_POINT('',#25);
#25 = CARTESIAN_POINT('',(303.75814748647,-32.71520251352,-0.6));
#26 = LINE('',#27,#28);
#27 = CARTESIAN_POINT('',(303.75814748647,-32.71520251352,0.));
#28 = VECTOR('',#29,1.);
#29 = DIRECTION('',(0.,0.,-1.));
#30 = ORIENTED_EDGE('',*,*,#31,.T.);
#31 = EDGE_CURVE('',#24,#32,#34,.T.);
#32 = VERTEX_POINT('',#33);
#33 = CARTESIAN_POINT('',(302.268893,-34.204457,-0.6));
#34 = CIRCLE('',#35,1.489254486471);
#35 = AXIS2_PLACEMENT_3D('',#36,#37,#38);
#36 = CARTESIAN_POINT('',(302.268893,-32.71520251352,-0.6));
#37 = DIRECTION('',(0.,0.,-1.));
#38 = DIRECTION('',(1.,0.,0.));
#39 = ORIENTED_EDGE('',*,*,#40,.F.);
#40 = EDGE_CURVE('',#41,#32,#43,.T.);
#41 = VERTEX_POINT('',#42);
#42 = CARTESIAN_POINT('',(302.268893,-34.204457,0.));
#43 = LINE('',#44,#45);
#44 = CARTESIAN_POINT('',(302.268893,-34.204457,0.));
#45 = VECTOR('',#46,1.);
#46 = DIRECTION('',(0.,0.,-1.));
#47 = ORIENTED_EDGE('',*,*,#48,.F.);
#48 = EDGE_CURVE('',#22,#41,#49,.T.);
#49 = CIRCLE('',#50,1.489254486471);
#50 = AXIS2_PLACEMENT_3D('',#51,#52,#53);
#51 = CARTESIAN_POINT('',(302.268893,-32.71520251352,0.));
#52 = DIRECTION('',(0.,0.,-1.));
#53 = DIRECTION('',(1.,0.,0.));
#54 = CYLINDRICAL_SURFACE('',#55,1.489254486471);
#55 = AXIS2_PLACEMENT_3D('',#56,#57,#58);
#56 = CARTESIAN_POINT('',(302.268893,-32.71520251352,0.));
#57 = DIRECTION('',(0.,0.,1.));
#58 = DIRECTION('',(1.,0.,0.));
#59 = ADVANCED_FACE('',(#60),#85,.F.);
#60 = FACE_BOUND('',#61,.F.);
#61 = EDGE_LOOP('',(#62,#72,#78,#79));
#62 = ORIENTED_EDGE('',*,*,#63,.T.);
#63 = EDGE_CURVE('',#64,#66,#68,.T.);
#64 = VERTEX_POINT('',#65);
#65 = CARTESIAN_POINT('',(303.75814748647,-32.71221948647,0.));
#66 = VERTEX_POINT('',#67);
#67 = CARTESIAN_POINT('',(303.75814748647,-32.71221948647,-0.6));
#68 = LINE('',#69,#70);
#69 = CARTESIAN_POINT('',(303.75814748647,-32.71221948647,0.));
#70 = VECTOR('',#71,1.);
#71 = DIRECTION('',(0.,0.,-1.));
#72 = ORIENTED_EDGE('',*,*,#73,.T.);
#73 = EDGE_CURVE('',#66,#24,#74,.T.);
#74 = LINE('',#75,#76);
#75 = CARTESIAN_POINT('',(303.75814748647,-32.71221948647,-0.6));
#76 = VECTOR('',#77,1.);
#77 = DIRECTION('',(0.,-1.,0.));
#78 = ORIENTED_EDGE('',*,*,#21,.F.);
#79 = ORIENTED_EDGE('',*,*,#80,.F.);
#80 = EDGE_CURVE('',#64,#22,#81,.T.);
#81 = LINE('',#82,#83);
#82 = CARTESIAN_POINT('',(303.75814748647,-32.71221948647,0.));
#83 = VECTOR('',#84,1.);
#84 = DIRECTION('',(0.,-1.,0.));
#85 = PLANE('',#86);
#86 = AXIS2_PLACEMENT_3D('',#87,#88,#89);
#87 = CARTESIAN_POINT('',(303.75814748647,-32.71221948647,0.));
#88 = DIRECTION('',(-1.,-0.,-0.));
#89 = DIRECTION('',(0.,-1.,0.));
#90 = ADVANCED_FACE('',(#91),#119,.T.);
#91 = FACE_BOUND('',#92,.T.);
#92 = EDGE_LOOP('',(#93,#102,#103,#112));
#93 = ORIENTED_EDGE('',*,*,#94,.F.);
#94 = EDGE_CURVE('',#24,#95,#97,.T.);
#95 = VERTEX_POINT('',#96);
#96 = CARTESIAN_POINT('',(302.35814748647,-32.71520251352,-2.));
#97 = CIRCLE('',#98,1.4);
#98 = AXIS2_PLACEMENT_3D('',#99,#100,#101);
#99 = CARTESIAN_POINT('',(302.35814748647,-32.71520251352,-0.6));
#100 = DIRECTION('',(-0.,1.,0.));
#101 = DIRECTION('',(1.,0.,0.));
#102 = ORIENTED_EDGE('',*,*,#31,.T.);
#103 = ORIENTED_EDGE('',*,*,#104,.T.);
#104 = EDGE_CURVE('',#32,#105,#107,.T.);
#105 = VERTEX_POINT('',#106);
#106 = CARTESIAN_POINT('',(302.268893,-32.804457,-2.));
#107 = CIRCLE('',#108,1.4);
#108 = AXIS2_PLACEMENT_3D('',#109,#110,#111);
#109 = CARTESIAN_POINT('',(302.268893,-32.804457,-0.6));
#110 = DIRECTION('',(1.,0.,-0.));
#111 = DIRECTION('',(0.,-1.,0.));
#112 = ORIENTED_EDGE('',*,*,#113,.F.);
#113 = EDGE_CURVE('',#95,#105,#114,.T.);
#114 = CIRCLE('',#115,8.925448647102E-02);
#115 = AXIS2_PLACEMENT_3D('',#116,#117,#118);
#116 = CARTESIAN_POINT('',(302.268893,-32.71520251352,-2.));
#117 = DIRECTION('',(0.,0.,-1.));
#118 = DIRECTION('',(1.,0.,0.));
#119 = SURFACE_OF_REVOLUTION('',#120,#131);
#120 = B_SPLINE_CURVE_WITH_KNOTS('',5,(#121,#122,#123,#124,#125,#126,
    #127,#128,#129,#130),.UNSPECIFIED.,.F.,.F.,(6,4,6),(0.,
    0.785398163397,1.570796326795),.UNSPECIFIED.);
#121 = CARTESIAN_POINT('',(303.75814748647,-32.71520251352,-0.6));
#122 = CARTESIAN_POINT('',(303.75814748647,-32.71520251352,
    -0.819911485751));
#123 = CARTESIAN_POINT('',(303.71497765634,-32.71520251352,
    -1.039826455574));
#124 = CARTESIAN_POINT('',(303.62857556979,-32.71520251352,
    -1.248419544756));
#125 = CARTESIAN_POINT('',(303.50359788296,-32.71520251352,
    -1.434448590826));
#126 = CARTESIAN_POINT('',(303.19259607729,-32.71520251352,
    -1.745450396497));
#127 = CARTESIAN_POINT('',(303.00656703122,-32.71520251352,
    -1.87042808332));
#128 = CARTESIAN_POINT('',(302.79797394204,-32.71520251352,
    -1.956830169876));
#129 = CARTESIAN_POINT('',(302.57805897222,-32.71520251352,-2.));
#130 = CARTESIAN_POINT('',(302.35814748647,-32.71520251352,-2.));
#131 = AXIS1_PLACEMENT('',#132,#133);
#132 = CARTESIAN_POINT('',(302.268893,-32.71520251352,-0.6));
#133 = DIRECTION('',(-0.,-0.,-1.));
#134 = ADVANCED_FACE('',(#135,#169,#222),#292,.F.);
#135 = FACE_BOUND('',#136,.F.);
#136 = EDGE_LOOP('',(#137,#147,#155,#163));
#137 = ORIENTED_EDGE('',*,*,#138,.T.);
#138 = EDGE_CURVE('',#139,#141,#143,.T.);
#139 = VERTEX_POINT('',#140);
#140 = CARTESIAN_POINT('',(0.,-20.296122,0.));
#141 = VERTEX_POINT('',#142);
#142 = CARTESIAN_POINT('',(0.,-126.676122,0.));
#143 = LINE('',#144,#145);
#144 = CARTESIAN_POINT('',(0.,-20.296122,0.));
#145 = VECTOR('',#146,1.);
#146 = DIRECTION('',(0.,-1.,0.));
#147 = ORIENTED_EDGE('',*,*,#148,.T.);
#148 = EDGE_CURVE('',#141,#149,#151,.T.);
#149 = VERTEX_POINT('',#150);
#150 = CARTESIAN_POINT('',(314.08,-126.676122,0.));
#151 = LINE('',#152,#153);
#152 = CARTESIAN_POINT('',(0.,-126.676122,0.));
#153 = VECTOR('',#154,1.);
#154 = DIRECTION('',(1.,0.,0.));
#155 = ORIENTED_EDGE('',*,*,#156,.T.);
#156 = EDGE_CURVE('',#149,#157,#159,.T.);
#157 = VERTEX_POINT('',#158);
#158 = CARTESIAN_POINT('',(314.08,-20.296122,0.));
#159 = LINE('',#160,#161);
#160 = CARTESIAN_POINT('',(314.08,-126.676122,0.));
#161 = VECTOR('',#162,1.);
#162 = DIRECTION('',(0.,1.,0.));
#163 = ORIENTED_EDGE('',*,*,#164,.T.);
#164 = EDGE_CURVE('',#157,#139,#165,.T.);
#165 = LINE('',#166,#167);
#166 = CARTESIAN_POINT('',(314.08,-20.296122,0.));
#167 = VECTOR('',#168,1.);
#168 = DIRECTION('',(-1.,0.,0.));
#169 = FACE_BOUND('',#170,.F.);
#170 = EDGE_LOOP('',(#171,#172,#180,#189,#197,#206,#214,#221));
#171 = ORIENTED_EDGE('',*,*,#48,.T.);
#172 = ORIENTED_EDGE('',*,*,#173,.T.);
#173 = EDGE_CURVE('',#41,#174,#176,.T.);
#174 = VERTEX_POINT('',#175);
#175 = CARTESIAN_POINT('',(292.53463448668,-34.204457,0.));
#176 = LINE('',#177,#178);
#177 = CARTESIAN_POINT('',(302.268893,-34.204457,0.));
#178 = VECTOR('',#179,1.);
#179 = DIRECTION('',(-1.,0.,0.));
#180 = ORIENTED_EDGE('',*,*,#181,.T.);
#181 = EDGE_CURVE('',#174,#182,#184,.T.);
#182 = VERTEX_POINT('',#183);
#183 = CARTESIAN_POINT('',(291.04538000021,-32.71520251352,0.));
#184 = CIRCLE('',#185,1.489254486471);
#185 = AXIS2_PLACEMENT_3D('',#186,#187,#188);
#186 = CARTESIAN_POINT('',(292.53463448668,-32.71520251352,0.));
#187 = DIRECTION('',(0.,0.,-1.));
#188 = DIRECTION('',(1.,0.,0.));
#189 = ORIENTED_EDGE('',*,*,#190,.T.);
#190 = EDGE_CURVE('',#182,#191,#193,.T.);
#191 = VERTEX_POINT('',#192);
#192 = CARTESIAN_POINT('',(291.04538000021,-32.71221948647,0.));
#193 = LINE('',#194,#195);
#194 = CARTESIAN_POINT('',(291.04538000021,-32.71520251352,0.));
#195 = VECTOR('',#196,1.);
#196 = DIRECTION('',(0.,1.,0.));
#197 = ORIENTED_EDGE('',*,*,#198,.T.);
#198 = EDGE_CURVE('',#191,#199,#201,.T.);
#199 = VERTEX_POINT('',#200);
#200 = CARTESIAN_POINT('',(292.53463448668,-31.222965,0.));
#201 = CIRCLE('',#202,1.489254486471);
#202 = AXIS2_PLACEMENT_3D('',#203,#204,#205);
#203 = CARTESIAN_POINT('',(292.53463448668,-32.71221948647,0.));
#204 = DIRECTION('',(0.,0.,-1.));
#205 = DIRECTION('',(1.,0.,0.));
#206 = ORIENTED_EDGE('',*,*,#207,.T.);
#207 = EDGE_CURVE('',#199,#208,#210,.T.);
#208 = VERTEX_POINT('',#209);
#209 = CARTESIAN_POINT('',(302.268893,-31.222965,0.));
#210 = LINE('',#211,#212);
#211 = CARTESIAN_POINT('',(292.53463448668,-31.222965,0.));
#212 = VECTOR('',#213,1.);
#213 = DIRECTION('',(1.,0.,0.));
#214 = ORIENTED_EDGE('',*,*,#215,.T.);
#215 = EDGE_CURVE('',#208,#64,#216,.T.);
#216 = CIRCLE('',#217,1.489254486471);
#217 = AXIS2_PLACEMENT_3D('',#218,#219,#220);
#218 = CARTESIAN_POINT('',(302.268893,-32.71221948647,0.));
#219 = DIRECTION('',(0.,0.,-1.));
#220 = DIRECTION('',(1.,0.,0.));
#221 = ORIENTED_EDGE('',*,*,#80,.T.);
#222 = FACE_BOUND('',#223,.F.);
#223 = EDGE_LOOP('',(#224,#235,#243,#252,#260,#269,#277,#286));
#224 = ORIENTED_EDGE('',*,*,#225,.T.);
#225 = EDGE_CURVE('',#226,#228,#230,.T.);
#226 = VERTEX_POINT('',#227);
#227 = CARTESIAN_POINT('',(12.725561644871,-34.028198,0.));
#228 = VERTEX_POINT('',#229);
#229 = CARTESIAN_POINT('',(10.863978,-32.16661435512,0.));
#230 = CIRCLE('',#231,1.861583644871);
#231 = AXIS2_PLACEMENT_3D('',#232,#233,#234);
#232 = CARTESIAN_POINT('',(12.725561644871,-32.16661435512,0.));
#233 = DIRECTION('',(0.,0.,-1.));
#234 = DIRECTION('',(1.,0.,0.));
#235 = ORIENTED_EDGE('',*,*,#236,.T.);
#236 = EDGE_CURVE('',#228,#237,#239,.T.);
#237 = VERTEX_POINT('',#238);
#238 = CARTESIAN_POINT('',(10.863978,-32.162889,0.));
#239 = LINE('',#240,#241);
#240 = CARTESIAN_POINT('',(10.863978,-32.16661435512,0.));
#241 = VECTOR('',#242,1.);
#242 = DIRECTION('',(0.,1.,0.));
#243 = ORIENTED_EDGE('',*,*,#244,.T.);
#244 = EDGE_CURVE('',#237,#245,#247,.T.);
#245 = VERTEX_POINT('',#246);
#246 = CARTESIAN_POINT('',(12.725561644871,-30.30130535512,0.));
#247 = CIRCLE('',#248,1.861583644871);
#248 = AXIS2_PLACEMENT_3D('',#249,#250,#251);
#249 = CARTESIAN_POINT('',(12.725561644871,-32.162889,0.));
#250 = DIRECTION('',(0.,0.,-1.));
#251 = DIRECTION('',(1.,0.,0.));
#252 = ORIENTED_EDGE('',*,*,#253,.T.);
#253 = EDGE_CURVE('',#245,#254,#256,.T.);
#254 = VERTEX_POINT('',#255);
#255 = CARTESIAN_POINT('',(25.377121355129,-30.30130535512,0.));
#256 = LINE('',#257,#258);
#257 = CARTESIAN_POINT('',(12.725561644871,-30.30130535512,0.));
#258 = VECTOR('',#259,1.);
#259 = DIRECTION('',(1.,0.,0.));
#260 = ORIENTED_EDGE('',*,*,#261,.T.);
#261 = EDGE_CURVE('',#254,#262,#264,.T.);
#262 = VERTEX_POINT('',#263);
#263 = CARTESIAN_POINT('',(27.238705,-32.162889,0.));
#264 = CIRCLE('',#265,1.861583644871);
#265 = AXIS2_PLACEMENT_3D('',#266,#267,#268);
#266 = CARTESIAN_POINT('',(25.377121355129,-32.162889,0.));
#267 = DIRECTION('',(0.,0.,-1.));
#268 = DIRECTION('',(1.,0.,0.));
#269 = ORIENTED_EDGE('',*,*,#270,.T.);
#270 = EDGE_CURVE('',#262,#271,#273,.T.);
#271 = VERTEX_POINT('',#272);
#272 = CARTESIAN_POINT('',(27.238705,-32.16661435512,0.));
#273 = LINE('',#274,#275);
#274 = CARTESIAN_POINT('',(27.238705,-32.162889,0.));
#275 = VECTOR('',#276,1.);
#276 = DIRECTION('',(0.,-1.,0.));
#277 = ORIENTED_EDGE('',*,*,#278,.T.);
#278 = EDGE_CURVE('',#271,#279,#281,.T.);
#279 = VERTEX_POINT('',#280);
#280 = CARTESIAN_POINT('',(25.377121355129,-34.028198,0.));
#281 = CIRCLE('',#282,1.861583644871);
#282 = AXIS2_PLACEMENT_3D('',#283,#284,#285);
#283 = CARTESIAN_POINT('',(25.377121355129,-32.16661435512,0.));
#284 = DIRECTION('',(0.,0.,-1.));
#285 = DIRECTION('',(1.,0.,0.));
#286 = ORIENTED_EDGE('',*,*,#287,.T.);
#287 = EDGE_CURVE('',#279,#226,#288,.T.);
#288 = LINE('',#289,#290);
#289 = CARTESIAN_POINT('',(25.377121355129,-34.028198,0.));
#290 = VECTOR('',#291,1.);
#291 = DIRECTION('',(-1.,0.,0.));
#292 = PLANE('',#293);
#293 = AXIS2_PLACEMENT_3D('',#294,#295,#296);
#294 = CARTESIAN_POINT('',(157.04,-73.486122,0.));
#295 = DIRECTION('',(0.,0.,1.));
#296 = DIRECTION('',(1.,0.,0.));
#297 = ADVANCED_FACE('',(#298),#316,.F.);
#298 = FACE_BOUND('',#299,.F.);
#299 = EDGE_LOOP('',(#300,#301,#309,#315));
#300 = ORIENTED_EDGE('',*,*,#40,.T.);
#301 = ORIENTED_EDGE('',*,*,#302,.T.);
#302 = EDGE_CURVE('',#32,#303,#305,.T.);
#303 = VERTEX_POINT('',#304);
#304 = CARTESIAN_POINT('',(292.53463448668,-34.204457,-0.6));
#305 = LINE('',#306,#307);
#306 = CARTESIAN_POINT('',(302.268893,-34.204457,-0.6));
#307 = VECTOR('',#308,1.);
#308 = DIRECTION('',(-1.,0.,0.));
#309 = ORIENTED_EDGE('',*,*,#310,.F.);
#310 = EDGE_CURVE('',#174,#303,#311,.T.);
#311 = LINE('',#312,#313);
#312 = CARTESIAN_POINT('',(292.53463448668,-34.204457,0.));
#313 = VECTOR('',#314,1.);
#314 = DIRECTION('',(0.,0.,-1.));
#315 = ORIENTED_EDGE('',*,*,#173,.F.);
#316 = PLANE('',#317);
#317 = AXIS2_PLACEMENT_3D('',#318,#319,#320);
#318 = CARTESIAN_POINT('',(302.268893,-34.204457,0.));
#319 = DIRECTION('',(0.,1.,0.));
#320 = DIRECTION('',(-1.,0.,0.));
#321 = ADVANCED_FACE('',(#322),#341,.T.);
#322 = FACE_BOUND('',#323,.F.);
#323 = EDGE_LOOP('',(#324,#332,#339,#340));
#324 = ORIENTED_EDGE('',*,*,#325,.T.);
#325 = EDGE_CURVE('',#208,#326,#328,.T.);
#326 = VERTEX_POINT('',#327);
#327 = CARTESIAN_POINT('',(302.268893,-31.222965,-0.6));
#328 = LINE('',#329,#330);
#329 = CARTESIAN_POINT('',(302.268893,-31.222965,0.));
#330 = VECTOR('',#331,1.);
#331 = DIRECTION('',(0.,0.,-1.));
#332 = ORIENTED_EDGE('',*,*,#333,.T.);
#333 = EDGE_CURVE('',#326,#66,#334,.T.);
#334 = CIRCLE('',#335,1.489254486471);
#335 = AXIS2_PLACEMENT_3D('',#336,#337,#338);
#336 = CARTESIAN_POINT('',(302.268893,-32.71221948647,-0.6));
#337 = DIRECTION('',(0.,0.,-1.));
#338 = DIRECTION('',(0.,1.,0.));
#339 = ORIENTED_EDGE('',*,*,#63,.F.);
#340 = ORIENTED_EDGE('',*,*,#215,.F.);
#341 = CYLINDRICAL_SURFACE('',#342,1.489254486471);
#342 = AXIS2_PLACEMENT_3D('',#343,#344,#345);
#343 = CARTESIAN_POINT('',(302.268893,-32.71221948647,0.));
#344 = DIRECTION('',(0.,0.,1.));
#345 = DIRECTION('',(1.,0.,0.));
#346 = ADVANCED_FACE('',(#347),#366,.T.);
#347 = FACE_BOUND('',#348,.F.);
#348 = EDGE_LOOP('',(#349,#358,#364,#365));
#349 = ORIENTED_EDGE('',*,*,#350,.T.);
#350 = EDGE_CURVE('',#66,#351,#353,.T.);
#351 = VERTEX_POINT('',#352);
#352 = CARTESIAN_POINT('',(302.35814748647,-32.71221948647,-2.));
#353 = CIRCLE('',#354,1.4);
#354 = AXIS2_PLACEMENT_3D('',#355,#356,#357);
#355 = CARTESIAN_POINT('',(302.35814748647,-32.71221948647,-0.6));
#356 = DIRECTION('',(-1.604844389456E-14,1.,0.));
#357 = DIRECTION('',(1.,1.604844389456E-14,0.));
#358 = ORIENTED_EDGE('',*,*,#359,.T.);
#359 = EDGE_CURVE('',#351,#95,#360,.T.);
#360 = LINE('',#361,#362);
#361 = CARTESIAN_POINT('',(302.35814748647,-32.71221948647,-2.));
#362 = VECTOR('',#363,1.);
#363 = DIRECTION('',(0.,-1.,0.));
#364 = ORIENTED_EDGE('',*,*,#94,.F.);
#365 = ORIENTED_EDGE('',*,*,#73,.F.);
#366 = CYLINDRICAL_SURFACE('',#367,1.4);
#367 = AXIS2_PLACEMENT_3D('',#368,#369,#370);
#368 = CARTESIAN_POINT('',(302.35814748647,-32.71221948647,-0.6));
#369 = DIRECTION('',(0.,-1.,0.));
#370 = DIRECTION('',(1.,0.,0.));
#371 = ADVANCED_FACE('',(#372),#425,.F.);
#372 = FACE_BOUND('',#373,.F.);
#373 = EDGE_LOOP('',(#374,#382,#383,#384,#393,#401,#410,#418));
#374 = ORIENTED_EDGE('',*,*,#375,.F.);
#375 = EDGE_CURVE('',#105,#376,#378,.T.);
#376 = VERTEX_POINT('',#377);
#377 = CARTESIAN_POINT('',(292.53463448668,-32.804457,-2.));
#378 = LINE('',#379,#380);
#379 = CARTESIAN_POINT('',(302.268893,-32.804457,-2.));
#380 = VECTOR('',#381,1.);
#381 = DIRECTION('',(-1.,0.,0.));
#382 = ORIENTED_EDGE('',*,*,#113,.F.);
#383 = ORIENTED_EDGE('',*,*,#359,.F.);
#384 = ORIENTED_EDGE('',*,*,#385,.F.);
#385 = EDGE_CURVE('',#386,#351,#388,.T.);
#386 = VERTEX_POINT('',#387);
#387 = CARTESIAN_POINT('',(302.268893,-32.622965,-2.));
#388 = CIRCLE('',#389,8.925448647102E-02);
#389 = AXIS2_PLACEMENT_3D('',#390,#391,#392);
#390 = CARTESIAN_POINT('',(302.268893,-32.71221948647,-2.));
#391 = DIRECTION('',(0.,0.,-1.));
#392 = DIRECTION('',(0.,1.,0.));
#393 = ORIENTED_EDGE('',*,*,#394,.F.);
#394 = EDGE_CURVE('',#395,#386,#397,.T.);
#395 = VERTEX_POINT('',#396);
#396 = CARTESIAN_POINT('',(292.53463448668,-32.622965,-2.));
#397 = LINE('',#398,#399);
#398 = CARTESIAN_POINT('',(292.53463448668,-32.622965,-2.));
#399 = VECTOR('',#400,1.);
#400 = DIRECTION('',(1.,0.,0.));
#401 = ORIENTED_EDGE('',*,*,#402,.F.);
#402 = EDGE_CURVE('',#403,#395,#405,.T.);
#403 = VERTEX_POINT('',#404);
#404 = CARTESIAN_POINT('',(292.44538000021,-32.71221948647,-2.));
#405 = CIRCLE('',#406,8.925448647102E-02);
#406 = AXIS2_PLACEMENT_3D('',#407,#408,#409);
#407 = CARTESIAN_POINT('',(292.53463448668,-32.71221948647,-2.));
#408 = DIRECTION('',(0.,0.,-1.));
#409 = DIRECTION('',(-1.,0.,0.));
#410 = ORIENTED_EDGE('',*,*,#411,.F.);
#411 = EDGE_CURVE('',#412,#403,#414,.T.);
#412 = VERTEX_POINT('',#413);
#413 = CARTESIAN_POINT('',(292.44538000021,-32.71520251352,-2.));
#414 = LINE('',#415,#416);
#415 = CARTESIAN_POINT('',(292.44538000021,-32.71520251352,-2.));
#416 = VECTOR('',#417,1.);
#417 = DIRECTION('',(0.,1.,0.));
#418 = ORIENTED_EDGE('',*,*,#419,.F.);
#419 = EDGE_CURVE('',#376,#412,#420,.T.);
#420 = CIRCLE('',#421,8.925448647102E-02);
#421 = AXIS2_PLACEMENT_3D('',#422,#423,#424);
#422 = CARTESIAN_POINT('',(292.53463448668,-32.71520251352,-2.));
#423 = DIRECTION('',(-0.,-0.,-1.));
#424 = DIRECTION('',(0.,-1.,0.));
#425 = PLANE('',#426);
#426 = AXIS2_PLACEMENT_3D('',#427,#428,#429);
#427 = CARTESIAN_POINT('',(140.93794961668,-32.40513496589,-2.));
#428 = DIRECTION('',(0.,0.,1.));
#429 = DIRECTION('',(1.,0.,0.));
#430 = ADVANCED_FACE('',(#431),#443,.T.);
#431 = FACE_BOUND('',#432,.F.);
#432 = EDGE_LOOP('',(#433,#434,#435,#442));
#433 = ORIENTED_EDGE('',*,*,#104,.T.);
#434 = ORIENTED_EDGE('',*,*,#375,.T.);
#435 = ORIENTED_EDGE('',*,*,#436,.F.);
#436 = EDGE_CURVE('',#303,#376,#437,.T.);
#437 = CIRCLE('',#438,1.4);
#438 = AXIS2_PLACEMENT_3D('',#439,#440,#441);
#439 = CARTESIAN_POINT('',(292.53463448668,-32.804457,-0.6));
#440 = DIRECTION('',(1.,0.,-0.));
#441 = DIRECTION('',(0.,-1.,0.));
#442 = ORIENTED_EDGE('',*,*,#302,.F.);
#443 = CYLINDRICAL_SURFACE('',#444,1.4);
#444 = AXIS2_PLACEMENT_3D('',#445,#446,#447);
#445 = CARTESIAN_POINT('',(302.268893,-32.804457,-0.6));
#446 = DIRECTION('',(-1.,0.,0.));
#447 = DIRECTION('',(0.,-1.,0.));
#448 = ADVANCED_FACE('',(#449),#474,.F.);
#449 = FACE_BOUND('',#450,.F.);
#450 = EDGE_LOOP('',(#451,#459,#467,#473));
#451 = ORIENTED_EDGE('',*,*,#452,.T.);
#452 = EDGE_CURVE('',#139,#453,#455,.T.);
#453 = VERTEX_POINT('',#454);
#454 = CARTESIAN_POINT('',(0.,-20.296122,10.));
#455 = LINE('',#456,#457);
#456 = CARTESIAN_POINT('',(0.,-20.296122,0.));
#457 = VECTOR('',#458,1.);
#458 = DIRECTION('',(0.,0.,1.));
#459 = ORIENTED_EDGE('',*,*,#460,.T.);
#460 = EDGE_CURVE('',#453,#461,#463,.T.);
#461 = VERTEX_POINT('',#462);
#462 = CARTESIAN_POINT('',(0.,-126.676122,10.));
#463 = LINE('',#464,#465);
#464 = CARTESIAN_POINT('',(0.,-20.296122,10.));
#465 = VECTOR('',#466,1.);
#466 = DIRECTION('',(0.,-1.,0.));
#467 = ORIENTED_EDGE('',*,*,#468,.F.);
#468 = EDGE_CURVE('',#141,#461,#469,.T.);
#469 = LINE('',#470,#471);
#470 = CARTESIAN_POINT('',(0.,-126.676122,0.));
#471 = VECTOR('',#472,1.);
#472 = DIRECTION('',(0.,0.,1.));
#473 = ORIENTED_EDGE('',*,*,#138,.F.);
#474 = PLANE('',#475);
#475 = AXIS2_PLACEMENT_3D('',#476,#477,#478);
#476 = CARTESIAN_POINT('',(0.,-20.296122,0.));
#477 = DIRECTION('',(1.,0.,0.));
#478 = DIRECTION('',(0.,-1.,0.));
#479 = ADVANCED_FACE('',(#480,#498,#568),#638,.F.);
#480 = FACE_BOUND('',#481,.F.);
#481 = EDGE_LOOP('',(#482,#490,#496,#497));
#482 = ORIENTED_EDGE('',*,*,#483,.T.);
#483 = EDGE_CURVE('',#157,#484,#486,.T.);
#484 = VERTEX_POINT('',#485);
#485 = CARTESIAN_POINT('',(314.08,-20.296122,10.));
#486 = LINE('',#487,#488);
#487 = CARTESIAN_POINT('',(314.08,-20.296122,0.));
#488 = VECTOR('',#489,1.);
#489 = DIRECTION('',(0.,0.,1.));
#490 = ORIENTED_EDGE('',*,*,#491,.T.);
#491 = EDGE_CURVE('',#484,#453,#492,.T.);
#492 = LINE('',#493,#494);
#493 = CARTESIAN_POINT('',(314.08,-20.296122,10.));
#494 = VECTOR('',#495,1.);
#495 = DIRECTION('',(-1.,0.,0.));
#496 = ORIENTED_EDGE('',*,*,#452,.F.);
#497 = ORIENTED_EDGE('',*,*,#164,.F.);
#498 = FACE_BOUND('',#499,.F.);
#499 = EDGE_LOOP('',(#500,#511,#519,#528,#536,#545,#553,#562));
#500 = ORIENTED_EDGE('',*,*,#501,.T.);
#501 = EDGE_CURVE('',#502,#504,#506,.T.);
#502 = VERTEX_POINT('',#503);
#503 = CARTESIAN_POINT('',(298.23428043478,-20.296122,5.469063130436));
#504 = VERTEX_POINT('',#505);
#505 = CARTESIAN_POINT('',(299.13856413043,-20.296122,4.564779434783));
#506 = CIRCLE('',#507,0.904283695653);
#507 = AXIS2_PLACEMENT_3D('',#508,#509,#510);
#508 = CARTESIAN_POINT('',(298.23428043478,-20.296122,4.564779434783));
#509 = DIRECTION('',(0.,1.,-2.22044604925E-16));
#510 = DIRECTION('',(-1.,0.,0.));
#511 = ORIENTED_EDGE('',*,*,#512,.T.);
#512 = EDGE_CURVE('',#504,#513,#515,.T.);
#513 = VERTEX_POINT('',#514);
#514 = CARTESIAN_POINT('',(299.13856413043,-20.296122,4.53219));
#515 = LINE('',#516,#517);
#516 = CARTESIAN_POINT('',(299.13856413043,-20.296122,4.564779434783));
#517 = VECTOR('',#518,1.);
#518 = DIRECTION('',(0.,-2.22044604925E-16,-1.));
#519 = ORIENTED_EDGE('',*,*,#520,.T.);
#520 = EDGE_CURVE('',#513,#521,#523,.T.);
#521 = VERTEX_POINT('',#522);
#522 = CARTESIAN_POINT('',(298.23428043478,-20.296122,3.627906304347));
#523 = CIRCLE('',#524,0.904283695653);
#524 = AXIS2_PLACEMENT_3D('',#525,#526,#527);
#525 = CARTESIAN_POINT('',(298.23428043478,-20.296122,4.53219));
#526 = DIRECTION('',(0.,1.,-2.22044604925E-16));
#527 = DIRECTION('',(-1.,0.,0.));
#528 = ORIENTED_EDGE('',*,*,#529,.T.);
#529 = EDGE_CURVE('',#521,#530,#532,.T.);
#530 = VERTEX_POINT('',#531);
#531 = CARTESIAN_POINT('',(294.94221,-20.296122,3.627906304347));
#532 = LINE('',#533,#534);
#533 = CARTESIAN_POINT('',(298.23428043478,-20.296122,3.627906304347));
#534 = VECTOR('',#535,1.);
#535 = DIRECTION('',(-1.,0.,0.));
#536 = ORIENTED_EDGE('',*,*,#537,.T.);
#537 = EDGE_CURVE('',#530,#538,#540,.T.);
#538 = VERTEX_POINT('',#539);
#539 = CARTESIAN_POINT('',(294.03792630434,-20.296122,4.53219));
#540 = CIRCLE('',#541,0.904283695653);
#541 = AXIS2_PLACEMENT_3D('',#542,#543,#544);
#542 = CARTESIAN_POINT('',(294.94221,-20.296122,4.53219));
#543 = DIRECTION('',(0.,1.,-2.22044604925E-16));
#544 = DIRECTION('',(-1.,0.,0.));
#545 = ORIENTED_EDGE('',*,*,#546,.T.);
#546 = EDGE_CURVE('',#538,#547,#549,.T.);
#547 = VERTEX_POINT('',#548);
#548 = CARTESIAN_POINT('',(294.03792630434,-20.296122,4.564779434783));
#549 = LINE('',#550,#551);
#550 = CARTESIAN_POINT('',(294.03792630434,-20.296122,4.53219));
#551 = VECTOR('',#552,1.);
#552 = DIRECTION('',(0.,2.22044604925E-16,1.));
#553 = ORIENTED_EDGE('',*,*,#554,.T.);
#554 = EDGE_CURVE('',#547,#555,#557,.T.);
#555 = VERTEX_POINT('',#556);
#556 = CARTESIAN_POINT('',(294.94221,-20.296122,5.469063130436));
#557 = CIRCLE('',#558,0.904283695653);
#558 = AXIS2_PLACEMENT_3D('',#559,#560,#561);
#559 = CARTESIAN_POINT('',(294.94221,-20.296122,4.564779434783));
#560 = DIRECTION('',(0.,1.,-2.22044604925E-16));
#561 = DIRECTION('',(-1.,0.,0.));
#562 = ORIENTED_EDGE('',*,*,#563,.T.);
#563 = EDGE_CURVE('',#555,#502,#564,.T.);
#564 = LINE('',#565,#566);
#565 = CARTESIAN_POINT('',(294.94221,-20.296122,5.469063130436));
#566 = VECTOR('',#567,1.);
#567 = DIRECTION('',(1.,0.,0.));
#568 = FACE_BOUND('',#569,.F.);
#569 = EDGE_LOOP('',(#570,#581,#589,#598,#606,#615,#623,#632));
#570 = ORIENTED_EDGE('',*,*,#571,.T.);
#571 = EDGE_CURVE('',#572,#574,#576,.T.);
#572 = VERTEX_POINT('',#573);
#573 = CARTESIAN_POINT('',(299.623169,-20.296122,4.541386));
#574 = VERTEX_POINT('',#575);
#575 = CARTESIAN_POINT('',(300.50929700012,-20.296122,5.427514000128));
#576 = CIRCLE('',#577,0.886128000128);
#577 = AXIS2_PLACEMENT_3D('',#578,#579,#580);
#578 = CARTESIAN_POINT('',(300.50929700012,-20.296122,4.541386));
#579 = DIRECTION('',(0.,1.,-2.22044604925E-16));
#580 = DIRECTION('',(-1.,0.,0.));
#581 = ORIENTED_EDGE('',*,*,#582,.T.);
#582 = EDGE_CURVE('',#574,#583,#585,.T.);
#583 = VERTEX_POINT('',#584);
#584 = CARTESIAN_POINT('',(303.267162,-20.296122,5.427514000128));
#585 = LINE('',#586,#587);
#586 = CARTESIAN_POINT('',(300.50929700012,-20.296122,5.427514000128));
#587 = VECTOR('',#588,1.);
#588 = DIRECTION('',(1.,0.,0.));
#589 = ORIENTED_EDGE('',*,*,#590,.T.);
#590 = EDGE_CURVE('',#583,#591,#593,.T.);
#591 = VERTEX_POINT('',#592);
#592 = CARTESIAN_POINT('',(304.15329000012,-20.296122,4.541386));
#593 = CIRCLE('',#594,0.886128000128);
#594 = AXIS2_PLACEMENT_3D('',#595,#596,#597);
#595 = CARTESIAN_POINT('',(303.267162,-20.296122,4.541386));
#596 = DIRECTION('',(0.,1.,-2.22044604925E-16));
#597 = DIRECTION('',(-1.,0.,0.));
#598 = ORIENTED_EDGE('',*,*,#599,.T.);
#599 = EDGE_CURVE('',#591,#600,#602,.T.);
#600 = VERTEX_POINT('',#601);
#601 = CARTESIAN_POINT('',(304.15329000012,-20.296122,4.539612));
#602 = LINE('',#603,#604);
#603 = CARTESIAN_POINT('',(304.15329000012,-20.296122,4.541386));
#604 = VECTOR('',#605,1.);
#605 = DIRECTION('',(0.,-2.22044604925E-16,-1.));
#606 = ORIENTED_EDGE('',*,*,#607,.T.);
#607 = EDGE_CURVE('',#600,#608,#610,.T.);
#608 = VERTEX_POINT('',#609);
#609 = CARTESIAN_POINT('',(303.267162,-20.296122,3.653483999872));
#610 = CIRCLE('',#611,0.886128000128);
#611 = AXIS2_PLACEMENT_3D('',#612,#613,#614);
#612 = CARTESIAN_POINT('',(303.267162,-20.296122,4.539612));
#613 = DIRECTION('',(0.,1.,-2.22044604925E-16));
#614 = DIRECTION('',(-1.,0.,0.));
#615 = ORIENTED_EDGE('',*,*,#616,.T.);
#616 = EDGE_CURVE('',#608,#617,#619,.T.);
#617 = VERTEX_POINT('',#618);
#618 = CARTESIAN_POINT('',(300.50929700012,-20.296122,3.653483999872));
#619 = LINE('',#620,#621);
#620 = CARTESIAN_POINT('',(303.267162,-20.296122,3.653483999872));
#621 = VECTOR('',#622,1.);
#622 = DIRECTION('',(-1.,0.,0.));
#623 = ORIENTED_EDGE('',*,*,#624,.T.);
#624 = EDGE_CURVE('',#617,#625,#627,.T.);
#625 = VERTEX_POINT('',#626);
#626 = CARTESIAN_POINT('',(299.623169,-20.296122,4.539612));
#627 = CIRCLE('',#628,0.886128000128);
#628 = AXIS2_PLACEMENT_3D('',#629,#630,#631);
#629 = CARTESIAN_POINT('',(300.50929700012,-20.296122,4.539612));
#630 = DIRECTION('',(0.,1.,-2.22044604925E-16));
#631 = DIRECTION('',(-1.,0.,0.));
#632 = ORIENTED_EDGE('',*,*,#633,.T.);
#633 = EDGE_CURVE('',#625,#572,#634,.T.);
#634 = LINE('',#635,#636);
#635 = CARTESIAN_POINT('',(299.623169,-20.296122,4.539612));
#636 = VECTOR('',#637,1.);
#637 = DIRECTION('',(0.,2.22044604925E-16,1.));
#638 = PLANE('',#639);
#639 = AXIS2_PLACEMENT_3D('',#640,#641,#642);
#640 = CARTESIAN_POINT('',(314.08,-20.296122,0.));
#641 = DIRECTION('',(0.,-1.,0.));
#642 = DIRECTION('',(-1.,0.,0.));
#643 = ADVANCED_FACE('',(#644),#662,.F.);
#644 = FACE_BOUND('',#645,.F.);
#645 = EDGE_LOOP('',(#646,#647,#655,#661));
#646 = ORIENTED_EDGE('',*,*,#468,.T.);
#647 = ORIENTED_EDGE('',*,*,#648,.T.);
#648 = EDGE_CURVE('',#461,#649,#651,.T.);
#649 = VERTEX_POINT('',#650);
#650 = CARTESIAN_POINT('',(314.08,-126.676122,10.));
#651 = LINE('',#652,#653);
#652 = CARTESIAN_POINT('',(0.,-126.676122,10.));
#653 = VECTOR('',#654,1.);
#654 = DIRECTION('',(1.,0.,0.));
#655 = ORIENTED_EDGE('',*,*,#656,.F.);
#656 = EDGE_CURVE('',#149,#649,#657,.T.);
#657 = LINE('',#658,#659);
#658 = CARTESIAN_POINT('',(314.08,-126.676122,0.));
#659 = VECTOR('',#660,1.);
#660 = DIRECTION('',(0.,0.,1.));
#661 = ORIENTED_EDGE('',*,*,#148,.F.);
#662 = PLANE('',#663);
#663 = AXIS2_PLACEMENT_3D('',#664,#665,#666);
#664 = CARTESIAN_POINT('',(0.,-126.676122,0.));
#665 = DIRECTION('',(0.,1.,0.));
#666 = DIRECTION('',(1.,0.,0.));
#667 = ADVANCED_FACE('',(#668),#679,.F.);
#668 = FACE_BOUND('',#669,.F.);
#669 = EDGE_LOOP('',(#670,#671,#677,#678));
#670 = ORIENTED_EDGE('',*,*,#656,.T.);
#671 = ORIENTED_EDGE('',*,*,#672,.T.);
#672 = EDGE_CURVE('',#649,#484,#673,.T.);
#673 = LINE('',#674,#675);
#674 = CARTESIAN_POINT('',(314.08,-126.676122,10.));
#675 = VECTOR('',#676,1.);
#676 = DIRECTION('',(0.,1.,0.));
#677 = ORIENTED_EDGE('',*,*,#483,.F.);
#678 = ORIENTED_EDGE('',*,*,#156,.F.);
#679 = PLANE('',#680);
#680 = AXIS2_PLACEMENT_3D('',#681,#682,#683);
#681 = CARTESIAN_POINT('',(314.08,-126.676122,0.));
#682 = DIRECTION('',(-1.,0.,0.));
#683 = DIRECTION('',(0.,1.,0.));
#684 = ADVANCED_FACE('',(#685),#703,.F.);
#685 = FACE_BOUND('',#686,.F.);
#686 = EDGE_LOOP('',(#687,#695,#701,#702));
#687 = ORIENTED_EDGE('',*,*,#688,.T.);
#688 = EDGE_CURVE('',#199,#689,#691,.T.);
#689 = VERTEX_POINT('',#690);
#690 = CARTESIAN_POINT('',(292.53463448668,-31.222965,-0.6));
#691 = LINE('',#692,#693);
#692 = CARTESIAN_POINT('',(292.53463448668,-31.222965,0.));
#693 = VECTOR('',#694,1.);
#694 = DIRECTION('',(0.,0.,-1.));
#695 = ORIENTED_EDGE('',*,*,#696,.T.);
#696 = EDGE_CURVE('',#689,#326,#697,.T.);
#697 = LINE('',#698,#699);
#698 = CARTESIAN_POINT('',(292.53463448668,-31.222965,-0.6));
#699 = VECTOR('',#700,1.);
#700 = DIRECTION('',(1.,0.,0.));
#701 = ORIENTED_EDGE('',*,*,#325,.F.);
#702 = ORIENTED_EDGE('',*,*,#207,.F.);
#703 = PLANE('',#704);
#704 = AXIS2_PLACEMENT_3D('',#705,#706,#707);
#705 = CARTESIAN_POINT('',(292.53463448668,-31.222965,0.));
#706 = DIRECTION('',(0.,-1.,0.));
#707 = DIRECTION('',(1.,0.,0.));
#708 = ADVANCED_FACE('',(#709),#728,.T.);
#709 = FACE_BOUND('',#710,.F.);
#710 = EDGE_LOOP('',(#711,#719,#726,#727));
#711 = ORIENTED_EDGE('',*,*,#712,.T.);
#712 = EDGE_CURVE('',#191,#713,#715,.T.);
#713 = VERTEX_POINT('',#714);
#714 = CARTESIAN_POINT('',(291.04538000021,-32.71221948647,-0.6));
#715 = LINE('',#716,#717);
#716 = CARTESIAN_POINT('',(291.04538000021,-32.71221948647,0.));
#717 = VECTOR('',#718,1.);
#718 = DIRECTION('',(0.,0.,-1.));
#719 = ORIENTED_EDGE('',*,*,#720,.T.);
#720 = EDGE_CURVE('',#713,#689,#721,.T.);
#721 = CIRCLE('',#722,1.489254486471);
#722 = AXIS2_PLACEMENT_3D('',#723,#724,#725);
#723 = CARTESIAN_POINT('',(292.53463448668,-32.71221948647,-0.6));
#724 = DIRECTION('',(0.,0.,-1.));
#725 = DIRECTION('',(-1.,0.,0.));
#726 = ORIENTED_EDGE('',*,*,#688,.F.);
#727 = ORIENTED_EDGE('',*,*,#198,.F.);
#728 = CYLINDRICAL_SURFACE('',#729,1.489254486471);
#729 = AXIS2_PLACEMENT_3D('',#730,#731,#732);
#730 = CARTESIAN_POINT('',(292.53463448668,-32.71221948647,0.));
#731 = DIRECTION('',(0.,0.,1.));
#732 = DIRECTION('',(1.,0.,0.));
#733 = ADVANCED_FACE('',(#734),#752,.F.);
#734 = FACE_BOUND('',#735,.F.);
#735 = EDGE_LOOP('',(#736,#744,#750,#751));
#736 = ORIENTED_EDGE('',*,*,#737,.T.);
#737 = EDGE_CURVE('',#182,#738,#740,.T.);
#738 = VERTEX_POINT('',#739);
#739 = CARTESIAN_POINT('',(291.04538000021,-32.71520251352,-0.6));
#740 = LINE('',#741,#742);
#741 = CARTESIAN_POINT('',(291.04538000021,-32.71520251352,0.));
#742 = VECTOR('',#743,1.);
#743 = DIRECTION('',(0.,0.,-1.));
#744 = ORIENTED_EDGE('',*,*,#745,.T.);
#745 = EDGE_CURVE('',#738,#713,#746,.T.);
#746 = LINE('',#747,#748);
#747 = CARTESIAN_POINT('',(291.04538000021,-32.71520251352,-0.6));
#748 = VECTOR('',#749,1.);
#749 = DIRECTION('',(0.,1.,0.));
#750 = ORIENTED_EDGE('',*,*,#712,.F.);
#751 = ORIENTED_EDGE('',*,*,#190,.F.);
#752 = PLANE('',#753);
#753 = AXIS2_PLACEMENT_3D('',#754,#755,#756);
#754 = CARTESIAN_POINT('',(291.04538000021,-32.71520251352,0.));
#755 = DIRECTION('',(1.,0.,0.));
#756 = DIRECTION('',(0.,1.,0.));
#757 = ADVANCED_FACE('',(#758),#770,.T.);
#758 = FACE_BOUND('',#759,.F.);
#759 = EDGE_LOOP('',(#760,#761,#768,#769));
#760 = ORIENTED_EDGE('',*,*,#310,.T.);
#761 = ORIENTED_EDGE('',*,*,#762,.T.);
#762 = EDGE_CURVE('',#303,#738,#763,.T.);
#763 = CIRCLE('',#764,1.489254486471);
#764 = AXIS2_PLACEMENT_3D('',#765,#766,#767);
#765 = CARTESIAN_POINT('',(292.53463448668,-32.71520251352,-0.6));
#766 = DIRECTION('',(-0.,-0.,-1.));
#767 = DIRECTION('',(0.,-1.,0.));
#768 = ORIENTED_EDGE('',*,*,#737,.F.);
#769 = ORIENTED_EDGE('',*,*,#181,.F.);
#770 = CYLINDRICAL_SURFACE('',#771,1.489254486471);
#771 = AXIS2_PLACEMENT_3D('',#772,#773,#774);
#772 = CARTESIAN_POINT('',(292.53463448668,-32.71520251352,0.));
#773 = DIRECTION('',(0.,0.,1.));
#774 = DIRECTION('',(1.,0.,0.));
#775 = ADVANCED_FACE('',(#776),#802,.T.);
#776 = FACE_BOUND('',#777,.F.);
#777 = EDGE_LOOP('',(#778,#786,#795,#801));
#778 = ORIENTED_EDGE('',*,*,#779,.T.);
#779 = EDGE_CURVE('',#226,#780,#782,.T.);
#780 = VERTEX_POINT('',#781);
#781 = CARTESIAN_POINT('',(12.725561644871,-34.028198,-0.3));
#782 = LINE('',#783,#784);
#783 = CARTESIAN_POINT('',(12.725561644871,-34.028198,0.));
#784 = VECTOR('',#785,1.);
#785 = DIRECTION('',(0.,0.,-1.));
#786 = ORIENTED_EDGE('',*,*,#787,.T.);
#787 = EDGE_CURVE('',#780,#788,#790,.T.);
#788 = VERTEX_POINT('',#789);
#789 = CARTESIAN_POINT('',(10.863978,-32.16661435512,-0.3));
#790 = CIRCLE('',#791,1.861583644871);
#791 = AXIS2_PLACEMENT_3D('',#792,#793,#794);
#792 = CARTESIAN_POINT('',(12.725561644871,-32.16661435512,-0.3));
#793 = DIRECTION('',(0.,-0.,-1.));
#794 = DIRECTION('',(2.862654349636E-15,-1.,0.));
#795 = ORIENTED_EDGE('',*,*,#796,.F.);
#796 = EDGE_CURVE('',#228,#788,#797,.T.);
#797 = LINE('',#798,#799);
#798 = CARTESIAN_POINT('',(10.863978,-32.16661435512,0.));
#799 = VECTOR('',#800,1.);
#800 = DIRECTION('',(0.,0.,-1.));
#801 = ORIENTED_EDGE('',*,*,#225,.F.);
#802 = CYLINDRICAL_SURFACE('',#803,1.861583644871);
#803 = AXIS2_PLACEMENT_3D('',#804,#805,#806);
#804 = CARTESIAN_POINT('',(12.725561644871,-32.16661435512,0.));
#805 = DIRECTION('',(0.,0.,1.));
#806 = DIRECTION('',(1.,0.,0.));
#807 = ADVANCED_FACE('',(#808),#826,.F.);
#808 = FACE_BOUND('',#809,.F.);
#809 = EDGE_LOOP('',(#810,#818,#824,#825));
#810 = ORIENTED_EDGE('',*,*,#811,.T.);
#811 = EDGE_CURVE('',#279,#812,#814,.T.);
#812 = VERTEX_POINT('',#813);
#813 = CARTESIAN_POINT('',(25.377121355129,-34.028198,-0.3));
#814 = LINE('',#815,#816);
#815 = CARTESIAN_POINT('',(25.377121355129,-34.028198,0.));
#816 = VECTOR('',#817,1.);
#817 = DIRECTION('',(0.,0.,-1.));
#818 = ORIENTED_EDGE('',*,*,#819,.T.);
#819 = EDGE_CURVE('',#812,#780,#820,.T.);
#820 = LINE('',#821,#822);
#821 = CARTESIAN_POINT('',(25.377121355129,-34.028198,-0.3));
#822 = VECTOR('',#823,1.);
#823 = DIRECTION('',(-1.,0.,0.));
#824 = ORIENTED_EDGE('',*,*,#779,.F.);
#825 = ORIENTED_EDGE('',*,*,#287,.F.);
#826 = PLANE('',#827);
#827 = AXIS2_PLACEMENT_3D('',#828,#829,#830);
#828 = CARTESIAN_POINT('',(25.377121355129,-34.028198,0.));
#829 = DIRECTION('',(0.,1.,0.));
#830 = DIRECTION('',(-1.,0.,0.));
#831 = ADVANCED_FACE('',(#832),#851,.T.);
#832 = FACE_BOUND('',#833,.F.);
#833 = EDGE_LOOP('',(#834,#842,#849,#850));
#834 = ORIENTED_EDGE('',*,*,#835,.T.);
#835 = EDGE_CURVE('',#271,#836,#838,.T.);
#836 = VERTEX_POINT('',#837);
#837 = CARTESIAN_POINT('',(27.238705,-32.16661435512,-0.3));
#838 = LINE('',#839,#840);
#839 = CARTESIAN_POINT('',(27.238705,-32.16661435512,0.));
#840 = VECTOR('',#841,1.);
#841 = DIRECTION('',(0.,0.,-1.));
#842 = ORIENTED_EDGE('',*,*,#843,.T.);
#843 = EDGE_CURVE('',#836,#812,#844,.T.);
#844 = CIRCLE('',#845,1.861583644871);
#845 = AXIS2_PLACEMENT_3D('',#846,#847,#848);
#846 = CARTESIAN_POINT('',(25.377121355129,-32.16661435512,-0.3));
#847 = DIRECTION('',(0.,0.,-1.));
#848 = DIRECTION('',(1.,0.,0.));
#849 = ORIENTED_EDGE('',*,*,#811,.F.);
#850 = ORIENTED_EDGE('',*,*,#278,.F.);
#851 = CYLINDRICAL_SURFACE('',#852,1.861583644871);
#852 = AXIS2_PLACEMENT_3D('',#853,#854,#855);
#853 = CARTESIAN_POINT('',(25.377121355129,-32.16661435512,0.));
#854 = DIRECTION('',(0.,0.,1.));
#855 = DIRECTION('',(1.,0.,0.));
#856 = ADVANCED_FACE('',(#857),#875,.F.);
#857 = FACE_BOUND('',#858,.F.);
#858 = EDGE_LOOP('',(#859,#867,#873,#874));
#859 = ORIENTED_EDGE('',*,*,#860,.T.);
#860 = EDGE_CURVE('',#262,#861,#863,.T.);
#861 = VERTEX_POINT('',#862);
#862 = CARTESIAN_POINT('',(27.238705,-32.162889,-0.3));
#863 = LINE('',#864,#865);
#864 = CARTESIAN_POINT('',(27.238705,-32.162889,0.));
#865 = VECTOR('',#866,1.);
#866 = DIRECTION('',(0.,0.,-1.));
#867 = ORIENTED_EDGE('',*,*,#868,.T.);
#868 = EDGE_CURVE('',#861,#836,#869,.T.);
#869 = LINE('',#870,#871);
#870 = CARTESIAN_POINT('',(27.238705,-32.162889,-0.3));
#871 = VECTOR('',#872,1.);
#872 = DIRECTION('',(0.,-1.,0.));
#873 = ORIENTED_EDGE('',*,*,#835,.F.);
#874 = ORIENTED_EDGE('',*,*,#270,.F.);
#875 = PLANE('',#876);
#876 = AXIS2_PLACEMENT_3D('',#877,#878,#879);
#877 = CARTESIAN_POINT('',(27.238705,-32.162889,0.));
#878 = DIRECTION('',(-1.,-0.,-0.));
#879 = DIRECTION('',(0.,-1.,0.));
#880 = ADVANCED_FACE('',(#881),#900,.T.);
#881 = FACE_BOUND('',#882,.F.);
#882 = EDGE_LOOP('',(#883,#891,#898,#899));
#883 = ORIENTED_EDGE('',*,*,#884,.T.);
#884 = EDGE_CURVE('',#254,#885,#887,.T.);
#885 = VERTEX_POINT('',#886);
#886 = CARTESIAN_POINT('',(25.377121355129,-30.30130535512,-0.3));
#887 = LINE('',#888,#889);
#888 = CARTESIAN_POINT('',(25.377121355129,-30.30130535512,0.));
#889 = VECTOR('',#890,1.);
#890 = DIRECTION('',(0.,0.,-1.));
#891 = ORIENTED_EDGE('',*,*,#892,.T.);
#892 = EDGE_CURVE('',#885,#861,#893,.T.);
#893 = CIRCLE('',#894,1.861583644871);
#894 = AXIS2_PLACEMENT_3D('',#895,#896,#897);
#895 = CARTESIAN_POINT('',(25.377121355129,-32.162889,-0.3));
#896 = DIRECTION('',(0.,0.,-1.));
#897 = DIRECTION('',(-3.816872466181E-15,1.,0.));
#898 = ORIENTED_EDGE('',*,*,#860,.F.);
#899 = ORIENTED_EDGE('',*,*,#261,.F.);
#900 = CYLINDRICAL_SURFACE('',#901,1.861583644871);
#901 = AXIS2_PLACEMENT_3D('',#902,#903,#904);
#902 = CARTESIAN_POINT('',(25.377121355129,-32.162889,0.));
#903 = DIRECTION('',(0.,0.,1.));
#904 = DIRECTION('',(1.,0.,0.));
#905 = ADVANCED_FACE('',(#906),#924,.F.);
#906 = FACE_BOUND('',#907,.F.);
#907 = EDGE_LOOP('',(#908,#916,#922,#923));
#908 = ORIENTED_EDGE('',*,*,#909,.T.);
#909 = EDGE_CURVE('',#245,#910,#912,.T.);
#910 = VERTEX_POINT('',#911);
#911 = CARTESIAN_POINT('',(12.725561644871,-30.30130535512,-0.3));
#912 = LINE('',#913,#914);
#913 = CARTESIAN_POINT('',(12.725561644871,-30.30130535512,0.));
#914 = VECTOR('',#915,1.);
#915 = DIRECTION('',(0.,0.,-1.));
#916 = ORIENTED_EDGE('',*,*,#917,.T.);
#917 = EDGE_CURVE('',#910,#885,#918,.T.);
#918 = LINE('',#919,#920);
#919 = CARTESIAN_POINT('',(12.725561644871,-30.30130535512,-0.3));
#920 = VECTOR('',#921,1.);
#921 = DIRECTION('',(1.,0.,0.));
#922 = ORIENTED_EDGE('',*,*,#884,.F.);
#923 = ORIENTED_EDGE('',*,*,#253,.F.);
#924 = PLANE('',#925);
#925 = AXIS2_PLACEMENT_3D('',#926,#927,#928);
#926 = CARTESIAN_POINT('',(12.725561644871,-30.30130535512,0.));
#927 = DIRECTION('',(0.,-1.,0.));
#928 = DIRECTION('',(1.,0.,0.));
#929 = ADVANCED_FACE('',(#930),#949,.T.);
#930 = FACE_BOUND('',#931,.F.);
#931 = EDGE_LOOP('',(#932,#940,#947,#948));
#932 = ORIENTED_EDGE('',*,*,#933,.T.);
#933 = EDGE_CURVE('',#237,#934,#936,.T.);
#934 = VERTEX_POINT('',#935);
#935 = CARTESIAN_POINT('',(10.863978,-32.162889,-0.3));
#936 = LINE('',#937,#938);
#937 = CARTESIAN_POINT('',(10.863978,-32.162889,0.));
#938 = VECTOR('',#939,1.);
#939 = DIRECTION('',(0.,0.,-1.));
#940 = ORIENTED_EDGE('',*,*,#941,.T.);
#941 = EDGE_CURVE('',#934,#910,#942,.T.);
#942 = CIRCLE('',#943,1.861583644871);
#943 = AXIS2_PLACEMENT_3D('',#944,#945,#946);
#944 = CARTESIAN_POINT('',(12.725561644871,-32.162889,-0.3));
#945 = DIRECTION('',(-0.,0.,-1.));
#946 = DIRECTION('',(-1.,-1.183230464516E-13,0.));
#947 = ORIENTED_EDGE('',*,*,#909,.F.);
#948 = ORIENTED_EDGE('',*,*,#244,.F.);
#949 = CYLINDRICAL_SURFACE('',#950,1.861583644871);
#950 = AXIS2_PLACEMENT_3D('',#951,#952,#953);
#951 = CARTESIAN_POINT('',(12.725561644871,-32.162889,0.));
#952 = DIRECTION('',(0.,0.,1.));
#953 = DIRECTION('',(1.,0.,0.));
#954 = ADVANCED_FACE('',(#955),#966,.F.);
#955 = FACE_BOUND('',#956,.F.);
#956 = EDGE_LOOP('',(#957,#958,#964,#965));
#957 = ORIENTED_EDGE('',*,*,#796,.T.);
#958 = ORIENTED_EDGE('',*,*,#959,.T.);
#959 = EDGE_CURVE('',#788,#934,#960,.T.);
#960 = LINE('',#961,#962);
#961 = CARTESIAN_POINT('',(10.863978,-32.16661435512,-0.3));
#962 = VECTOR('',#963,1.);
#963 = DIRECTION('',(0.,1.,0.));
#964 = ORIENTED_EDGE('',*,*,#933,.F.);
#965 = ORIENTED_EDGE('',*,*,#236,.F.);
#966 = PLANE('',#967);
#967 = AXIS2_PLACEMENT_3D('',#968,#969,#970);
#968 = CARTESIAN_POINT('',(10.863978,-32.16661435512,0.));
#969 = DIRECTION('',(1.,0.,0.));
#970 = DIRECTION('',(0.,1.,0.));
#971 = ADVANCED_FACE('',(#972),#984,.T.);
#972 = FACE_BOUND('',#973,.T.);
#973 = EDGE_LOOP('',(#974,#981,#982,#983));
#974 = ORIENTED_EDGE('',*,*,#975,.F.);
#975 = EDGE_CURVE('',#326,#386,#976,.T.);
#976 = CIRCLE('',#977,1.4);
#977 = AXIS2_PLACEMENT_3D('',#978,#979,#980);
#978 = CARTESIAN_POINT('',(302.268893,-32.622965,-0.6));
#979 = DIRECTION('',(-1.,0.,0.));
#980 = DIRECTION('',(0.,1.,0.));
#981 = ORIENTED_EDGE('',*,*,#333,.T.);
#982 = ORIENTED_EDGE('',*,*,#350,.T.);
#983 = ORIENTED_EDGE('',*,*,#385,.F.);
#984 = SURFACE_OF_REVOLUTION('',#985,#996);
#985 = B_SPLINE_CURVE_WITH_KNOTS('',5,(#986,#987,#988,#989,#990,#991,
    #992,#993,#994,#995),.UNSPECIFIED.,.F.,.F.,(6,4,6),(0.,
    0.785398163397,1.570796326795),.UNSPECIFIED.);
#986 = CARTESIAN_POINT('',(302.268893,-31.222965,-0.6));
#987 = CARTESIAN_POINT('',(302.26889299999,-31.222965,-0.819911485751));
#988 = CARTESIAN_POINT('',(302.268893,-31.26613483012,-1.039826455574));
#989 = CARTESIAN_POINT('',(302.26889299999,-31.35253691668,
    -1.248419544756));
#990 = CARTESIAN_POINT('',(302.268893,-31.4775146035,-1.434448590826));
#991 = CARTESIAN_POINT('',(302.26889299999,-31.78851640917,
    -1.745450396497));
#992 = CARTESIAN_POINT('',(302.268893,-31.97454545524,-1.87042808332));
#993 = CARTESIAN_POINT('',(302.26889299999,-32.18313854442,
    -1.956830169876));
#994 = CARTESIAN_POINT('',(302.268893,-32.40305351424,-2.));
#995 = CARTESIAN_POINT('',(302.268893,-32.622965,-2.));
#996 = AXIS1_PLACEMENT('',#997,#998);
#997 = CARTESIAN_POINT('',(302.268893,-32.71221948647,-0.6));
#998 = DIRECTION('',(-0.,-0.,-1.));
#999 = ADVANCED_FACE('',(#1000),#1012,.T.);
#1000 = FACE_BOUND('',#1001,.T.);
#1001 = EDGE_LOOP('',(#1002,#1003,#1004,#1011));
#1002 = ORIENTED_EDGE('',*,*,#436,.F.);
#1003 = ORIENTED_EDGE('',*,*,#762,.T.);
#1004 = ORIENTED_EDGE('',*,*,#1005,.T.);
#1005 = EDGE_CURVE('',#738,#412,#1006,.T.);
#1006 = CIRCLE('',#1007,1.4);
#1007 = AXIS2_PLACEMENT_3D('',#1008,#1009,#1010);
#1008 = CARTESIAN_POINT('',(292.44538000021,-32.71520251352,-0.6));
#1009 = DIRECTION('',(1.937911296844E-14,-1.,0.));
#1010 = DIRECTION('',(-1.,-1.937911296844E-14,0.));
#1011 = ORIENTED_EDGE('',*,*,#419,.F.);
#1012 = SURFACE_OF_REVOLUTION('',#1013,#1024);
#1013 = B_SPLINE_CURVE_WITH_KNOTS('',5,(#1014,#1015,#1016,#1017,#1018,
    #1019,#1020,#1021,#1022,#1023),.UNSPECIFIED.,.F.,.F.,(6,4,6),(0.,
    0.785398163397,1.570796326795),.UNSPECIFIED.);
#1014 = CARTESIAN_POINT('',(292.53463448668,-34.204457,-0.6));
#1015 = CARTESIAN_POINT('',(292.53463448668,-34.204457,-0.819911485751)
  );
#1016 = CARTESIAN_POINT('',(292.53463448668,-34.16128716987,
    -1.039826455574));
#1017 = CARTESIAN_POINT('',(292.53463448668,-34.07488508332,
    -1.248419544756));
#1018 = CARTESIAN_POINT('',(292.53463448668,-33.94990739649,
    -1.434448590826));
#1019 = CARTESIAN_POINT('',(292.53463448668,-33.63890559082,
    -1.745450396497));
#1020 = CARTESIAN_POINT('',(292.53463448668,-33.45287654475,
    -1.87042808332));
#1021 = CARTESIAN_POINT('',(292.53463448668,-33.24428345557,
    -1.956830169876));
#1022 = CARTESIAN_POINT('',(292.53463448668,-33.02436848575,-2.));
#1023 = CARTESIAN_POINT('',(292.53463448668,-32.804457,-2.));
#1024 = AXIS1_PLACEMENT('',#1025,#1026);
#1025 = CARTESIAN_POINT('',(292.53463448668,-32.71520251352,-0.6));
#1026 = DIRECTION('',(-0.,-0.,-1.));
#1027 = ADVANCED_FACE('',(#1028),#1040,.T.);
#1028 = FACE_BOUND('',#1029,.F.);
#1029 = EDGE_LOOP('',(#1030,#1031,#1032,#1039));
#1030 = ORIENTED_EDGE('',*,*,#1005,.T.);
#1031 = ORIENTED_EDGE('',*,*,#411,.T.);
#1032 = ORIENTED_EDGE('',*,*,#1033,.F.);
#1033 = EDGE_CURVE('',#713,#403,#1034,.T.);
#1034 = CIRCLE('',#1035,1.4);
#1035 = AXIS2_PLACEMENT_3D('',#1036,#1037,#1038);
#1036 = CARTESIAN_POINT('',(292.44538000021,-32.71221948647,-0.6));
#1037 = DIRECTION('',(-0.,-1.,-0.));
#1038 = DIRECTION('',(-1.,0.,0.));
#1039 = ORIENTED_EDGE('',*,*,#745,.F.);
#1040 = CYLINDRICAL_SURFACE('',#1041,1.4);
#1041 = AXIS2_PLACEMENT_3D('',#1042,#1043,#1044);
#1042 = CARTESIAN_POINT('',(292.44538000021,-32.71520251352,-0.6));
#1043 = DIRECTION('',(0.,1.,0.));
#1044 = DIRECTION('',(-1.,0.,0.));
#1045 = ADVANCED_FACE('',(#1046),#1058,.T.);
#1046 = FACE_BOUND('',#1047,.T.);
#1047 = EDGE_LOOP('',(#1048,#1049,#1050,#1057));
#1048 = ORIENTED_EDGE('',*,*,#1033,.F.);
#1049 = ORIENTED_EDGE('',*,*,#720,.T.);
#1050 = ORIENTED_EDGE('',*,*,#1051,.T.);
#1051 = EDGE_CURVE('',#689,#395,#1052,.T.);
#1052 = CIRCLE('',#1053,1.4);
#1053 = AXIS2_PLACEMENT_3D('',#1054,#1055,#1056);
#1054 = CARTESIAN_POINT('',(292.53463448668,-32.622965,-0.6));
#1055 = DIRECTION('',(-1.,1.681415763435E-14,0.));
#1056 = DIRECTION('',(1.681415763435E-14,1.,0.));
#1057 = ORIENTED_EDGE('',*,*,#402,.F.);
#1058 = SURFACE_OF_REVOLUTION('',#1059,#1070);
#1059 = B_SPLINE_CURVE_WITH_KNOTS('',5,(#1060,#1061,#1062,#1063,#1064,
    #1065,#1066,#1067,#1068,#1069),.UNSPECIFIED.,.F.,.F.,(6,4,6),(0.,
    0.785398163397,1.570796326795),.UNSPECIFIED.);
#1060 = CARTESIAN_POINT('',(291.04538000021,-32.71221948647,-0.6));
#1061 = CARTESIAN_POINT('',(291.0453800002,-32.71221948647,
    -0.819911485751));
#1062 = CARTESIAN_POINT('',(291.08854983033,-32.71221948647,
    -1.039826455574));
#1063 = CARTESIAN_POINT('',(291.17495191689,-32.71221948647,
    -1.248419544756));
#1064 = CARTESIAN_POINT('',(291.29992960371,-32.71221948647,
    -1.434448590826));
#1065 = CARTESIAN_POINT('',(291.61093140938,-32.71221948647,
    -1.745450396497));
#1066 = CARTESIAN_POINT('',(291.79696045545,-32.71221948647,
    -1.87042808332));
#1067 = CARTESIAN_POINT('',(292.00555354463,-32.71221948647,
    -1.956830169876));
#1068 = CARTESIAN_POINT('',(292.22546851445,-32.71221948647,-2.));
#1069 = CARTESIAN_POINT('',(292.44538000021,-32.71221948647,-2.));
#1070 = AXIS1_PLACEMENT('',#1071,#1072);
#1071 = CARTESIAN_POINT('',(292.53463448668,-32.71221948647,-0.6));
#1072 = DIRECTION('',(-0.,-0.,-1.));
#1073 = ADVANCED_FACE('',(#1074),#1080,.T.);
#1074 = FACE_BOUND('',#1075,.F.);
#1075 = EDGE_LOOP('',(#1076,#1077,#1078,#1079));
#1076 = ORIENTED_EDGE('',*,*,#1051,.T.);
#1077 = ORIENTED_EDGE('',*,*,#394,.T.);
#1078 = ORIENTED_EDGE('',*,*,#975,.F.);
#1079 = ORIENTED_EDGE('',*,*,#696,.F.);
#1080 = CYLINDRICAL_SURFACE('',#1081,1.4);
#1081 = AXIS2_PLACEMENT_3D('',#1082,#1083,#1084);
#1082 = CARTESIAN_POINT('',(292.53463448668,-32.622965,-0.6));
#1083 = DIRECTION('',(1.,0.,0.));
#1084 = DIRECTION('',(0.,1.,0.));
#1085 = ADVANCED_FACE('',(#1086,#1156),#1162,.T.);
#1086 = FACE_BOUND('',#1087,.T.);
#1087 = EDGE_LOOP('',(#1088,#1098,#1107,#1115,#1124,#1132,#1141,#1149));
#1088 = ORIENTED_EDGE('',*,*,#1089,.T.);
#1089 = EDGE_CURVE('',#1090,#1092,#1094,.T.);
#1090 = VERTEX_POINT('',#1091);
#1091 = CARTESIAN_POINT('',(311.26084819739,-126.1025452268,10.));
#1092 = VERTEX_POINT('',#1093);
#1093 = CARTESIAN_POINT('',(2.819152184341,-126.1025457553,10.));
#1094 = LINE('',#1095,#1096);
#1095 = CARTESIAN_POINT('',(313.26084819397,-126.1025452233,10.));
#1096 = VECTOR('',#1097,1.);
#1097 = DIRECTION('',(-1.,-1.71356584273E-09,0.));
#1098 = ORIENTED_EDGE('',*,*,#1099,.T.);
#1099 = EDGE_CURVE('',#1092,#1100,#1102,.T.);
#1100 = VERTEX_POINT('',#1101);
#1101 = CARTESIAN_POINT('',(0.819152180914,-124.1025457553,10.));
#1102 = CIRCLE('',#1103,2.);
#1103 = AXIS2_PLACEMENT_3D('',#1104,#1105,#1106);
#1104 = CARTESIAN_POINT('',(2.819152180914,-124.1025457553,10.));
#1105 = DIRECTION('',(0.,0.,-1.));
#1106 = DIRECTION('',(0.,1.,0.));
#1107 = ORIENTED_EDGE('',*,*,#1108,.T.);
#1108 = EDGE_CURVE('',#1100,#1109,#1111,.T.);
#1109 = VERTEX_POINT('',#1110);
#1110 = CARTESIAN_POINT('',(0.819152180914,-22.86969824465,10.));
#1111 = LINE('',#1112,#1113);
#1112 = CARTESIAN_POINT('',(0.819152180914,-126.1025457587,10.));
#1113 = VECTOR('',#1114,1.);
#1114 = DIRECTION('',(0.,1.,0.));
#1115 = ORIENTED_EDGE('',*,*,#1116,.F.);
#1116 = EDGE_CURVE('',#1117,#1109,#1119,.T.);
#1117 = VERTEX_POINT('',#1118);
#1118 = CARTESIAN_POINT('',(2.819152184341,-20.86969824465,10.));
#1119 = CIRCLE('',#1120,2.);
#1120 = AXIS2_PLACEMENT_3D('',#1121,#1122,#1123);
#1121 = CARTESIAN_POINT('',(2.819152180914,-22.86969824465,10.));
#1122 = DIRECTION('',(0.,-0.,1.));
#1123 = DIRECTION('',(0.,1.,0.));
#1124 = ORIENTED_EDGE('',*,*,#1125,.T.);
#1125 = EDGE_CURVE('',#1117,#1126,#1128,.T.);
#1126 = VERTEX_POINT('',#1127);
#1127 = CARTESIAN_POINT('',(311.26084819739,-20.86969877319,10.));
#1128 = LINE('',#1129,#1130);
#1129 = CARTESIAN_POINT('',(0.819152180914,-20.86969824123,10.));
#1130 = VECTOR('',#1131,1.);
#1131 = DIRECTION('',(1.,-1.71356584273E-09,0.));
#1132 = ORIENTED_EDGE('',*,*,#1133,.T.);
#1133 = EDGE_CURVE('',#1126,#1134,#1136,.T.);
#1134 = VERTEX_POINT('',#1135);
#1135 = CARTESIAN_POINT('',(313.26084819397,-22.86969877319,10.));
#1136 = CIRCLE('',#1137,2.);
#1137 = AXIS2_PLACEMENT_3D('',#1138,#1139,#1140);
#1138 = CARTESIAN_POINT('',(311.26084819397,-22.86969877319,10.));
#1139 = DIRECTION('',(0.,0.,-1.));
#1140 = DIRECTION('',(0.,1.,0.));
#1141 = ORIENTED_EDGE('',*,*,#1142,.T.);
#1142 = EDGE_CURVE('',#1134,#1143,#1145,.T.);
#1143 = VERTEX_POINT('',#1144);
#1144 = CARTESIAN_POINT('',(313.26084819397,-124.1025452268,10.));
#1145 = LINE('',#1146,#1147);
#1146 = CARTESIAN_POINT('',(313.26084819397,-20.86969877662,10.));
#1147 = VECTOR('',#1148,1.);
#1148 = DIRECTION('',(0.,-1.,0.));
#1149 = ORIENTED_EDGE('',*,*,#1150,.T.);
#1150 = EDGE_CURVE('',#1143,#1090,#1151,.T.);
#1151 = CIRCLE('',#1152,2.);
#1152 = AXIS2_PLACEMENT_3D('',#1153,#1154,#1155);
#1153 = CARTESIAN_POINT('',(311.26084819397,-124.1025452268,10.));
#1154 = DIRECTION('',(0.,0.,-1.));
#1155 = DIRECTION('',(0.,1.,0.));
#1156 = FACE_BOUND('',#1157,.T.);
#1157 = EDGE_LOOP('',(#1158,#1159,#1160,#1161));
#1158 = ORIENTED_EDGE('',*,*,#460,.T.);
#1159 = ORIENTED_EDGE('',*,*,#648,.T.);
#1160 = ORIENTED_EDGE('',*,*,#672,.T.);
#1161 = ORIENTED_EDGE('',*,*,#491,.T.);
#1162 = PLANE('',#1163);
#1163 = AXIS2_PLACEMENT_3D('',#1164,#1165,#1166);
#1164 = CARTESIAN_POINT('',(157.04,-73.486122,10.));
#1165 = DIRECTION('',(0.,0.,1.));
#1166 = DIRECTION('',(1.,0.,0.));
#1167 = ADVANCED_FACE('',(#1168),#1194,.F.);
#1168 = FACE_BOUND('',#1169,.F.);
#1169 = EDGE_LOOP('',(#1170,#1171,#1179,#1188));
#1170 = ORIENTED_EDGE('',*,*,#501,.F.);
#1171 = ORIENTED_EDGE('',*,*,#1172,.T.);
#1172 = EDGE_CURVE('',#502,#1173,#1175,.T.);
#1173 = VERTEX_POINT('',#1174);
#1174 = CARTESIAN_POINT('',(298.23428043478,-20.86969875087,
    5.469063130436));
#1175 = LINE('',#1176,#1177);
#1176 = CARTESIAN_POINT('',(298.23428043478,-20.296122,5.469063130436));
#1177 = VECTOR('',#1178,1.);
#1178 = DIRECTION('',(0.,-1.,2.22044604925E-16));
#1179 = ORIENTED_EDGE('',*,*,#1180,.T.);
#1180 = EDGE_CURVE('',#1173,#1181,#1183,.T.);
#1181 = VERTEX_POINT('',#1182);
#1182 = CARTESIAN_POINT('',(299.13856413043,-20.86969875242,
    4.564779434783));
#1183 = CIRCLE('',#1184,0.904283695653);
#1184 = AXIS2_PLACEMENT_3D('',#1185,#1186,#1187);
#1185 = CARTESIAN_POINT('',(298.23428043478,-20.86969875087,
    4.564779434783));
#1186 = DIRECTION('',(0.,1.,-2.22044604925E-16));
#1187 = DIRECTION('',(-1.,0.,0.));
#1188 = ORIENTED_EDGE('',*,*,#1189,.F.);
#1189 = EDGE_CURVE('',#504,#1181,#1190,.T.);
#1190 = LINE('',#1191,#1192);
#1191 = CARTESIAN_POINT('',(299.13856413043,-20.296122,4.564779434783));
#1192 = VECTOR('',#1193,1.);
#1193 = DIRECTION('',(0.,-1.,2.22044604925E-16));
#1194 = CYLINDRICAL_SURFACE('',#1195,0.904283695653);
#1195 = AXIS2_PLACEMENT_3D('',#1196,#1197,#1198);
#1196 = CARTESIAN_POINT('',(298.23428043478,-20.296122,4.564779434783));
#1197 = DIRECTION('',(0.,1.,-2.22044604925E-16));
#1198 = DIRECTION('',(-1.,0.,0.));
#1199 = ADVANCED_FACE('',(#1200),#1218,.F.);
#1200 = FACE_BOUND('',#1201,.F.);
#1201 = EDGE_LOOP('',(#1202,#1203,#1211,#1217));
#1202 = ORIENTED_EDGE('',*,*,#563,.F.);
#1203 = ORIENTED_EDGE('',*,*,#1204,.T.);
#1204 = EDGE_CURVE('',#555,#1205,#1207,.T.);
#1205 = VERTEX_POINT('',#1206);
#1206 = CARTESIAN_POINT('',(294.94221,-20.86969874523,5.469063130436));
#1207 = LINE('',#1208,#1209);
#1208 = CARTESIAN_POINT('',(294.94221,-20.296122,5.469063130436));
#1209 = VECTOR('',#1210,1.);
#1210 = DIRECTION('',(0.,-1.,2.22044604925E-16));
#1211 = ORIENTED_EDGE('',*,*,#1212,.F.);
#1212 = EDGE_CURVE('',#1173,#1205,#1213,.T.);
#1213 = LINE('',#1214,#1215);
#1214 = CARTESIAN_POINT('',(147.88068108996,-20.86969849323,
    5.469063130436));
#1215 = VECTOR('',#1216,1.);
#1216 = DIRECTION('',(-1.,1.71356584273E-09,-3.80488050562E-25));
#1217 = ORIENTED_EDGE('',*,*,#1172,.F.);
#1218 = PLANE('',#1219);
#1219 = AXIS2_PLACEMENT_3D('',#1220,#1221,#1222);
#1220 = CARTESIAN_POINT('',(294.94221,-20.296122,5.469063130436));
#1221 = DIRECTION('',(0.,2.22044604925E-16,1.));
#1222 = DIRECTION('',(1.,0.,0.));
#1223 = ADVANCED_FACE('',(#1224),#1243,.F.);
#1224 = FACE_BOUND('',#1225,.F.);
#1225 = EDGE_LOOP('',(#1226,#1227,#1235,#1242));
#1226 = ORIENTED_EDGE('',*,*,#554,.F.);
#1227 = ORIENTED_EDGE('',*,*,#1228,.T.);
#1228 = EDGE_CURVE('',#547,#1229,#1231,.T.);
#1229 = VERTEX_POINT('',#1230);
#1230 = CARTESIAN_POINT('',(294.03792630434,-20.86969874368,
    4.564779434783));
#1231 = LINE('',#1232,#1233);
#1232 = CARTESIAN_POINT('',(294.03792630434,-20.296122,4.564779434783));
#1233 = VECTOR('',#1234,1.);
#1234 = DIRECTION('',(0.,-1.,2.22044604925E-16));
#1235 = ORIENTED_EDGE('',*,*,#1236,.T.);
#1236 = EDGE_CURVE('',#1229,#1205,#1237,.T.);
#1237 = CIRCLE('',#1238,0.904283695653);
#1238 = AXIS2_PLACEMENT_3D('',#1239,#1240,#1241);
#1239 = CARTESIAN_POINT('',(294.94221,-20.86969874523,4.564779434783));
#1240 = DIRECTION('',(0.,1.,-2.22044604925E-16));
#1241 = DIRECTION('',(-1.,0.,0.));
#1242 = ORIENTED_EDGE('',*,*,#1204,.F.);
#1243 = CYLINDRICAL_SURFACE('',#1244,0.904283695653);
#1244 = AXIS2_PLACEMENT_3D('',#1245,#1246,#1247);
#1245 = CARTESIAN_POINT('',(294.94221,-20.296122,4.564779434783));
#1246 = DIRECTION('',(0.,1.,-2.22044604925E-16));
#1247 = DIRECTION('',(-1.,0.,0.));
#1248 = ADVANCED_FACE('',(#1249),#1267,.F.);
#1249 = FACE_BOUND('',#1250,.F.);
#1250 = EDGE_LOOP('',(#1251,#1252,#1260,#1266));
#1251 = ORIENTED_EDGE('',*,*,#546,.F.);
#1252 = ORIENTED_EDGE('',*,*,#1253,.T.);
#1253 = EDGE_CURVE('',#538,#1254,#1256,.T.);
#1254 = VERTEX_POINT('',#1255);
#1255 = CARTESIAN_POINT('',(294.03792630434,-20.86969874368,4.53219));
#1256 = LINE('',#1257,#1258);
#1257 = CARTESIAN_POINT('',(294.03792630434,-20.296122,4.53219));
#1258 = VECTOR('',#1259,1.);
#1259 = DIRECTION('',(0.,-1.,2.22044604925E-16));
#1260 = ORIENTED_EDGE('',*,*,#1261,.F.);
#1261 = EDGE_CURVE('',#1229,#1254,#1262,.T.);
#1262 = LINE('',#1263,#1264);
#1263 = CARTESIAN_POINT('',(294.03792630434,-20.86969874368,7.266095));
#1264 = VECTOR('',#1265,1.);
#1265 = DIRECTION('',(0.,0.,-1.));
#1266 = ORIENTED_EDGE('',*,*,#1228,.F.);
#1267 = PLANE('',#1268);
#1268 = AXIS2_PLACEMENT_3D('',#1269,#1270,#1271);
#1269 = CARTESIAN_POINT('',(294.03792630434,-20.296122,4.53219));
#1270 = DIRECTION('',(-1.,0.,0.));
#1271 = DIRECTION('',(0.,2.22044604925E-16,1.));
#1272 = ADVANCED_FACE('',(#1273),#1292,.F.);
#1273 = FACE_BOUND('',#1274,.F.);
#1274 = EDGE_LOOP('',(#1275,#1276,#1284,#1291));
#1275 = ORIENTED_EDGE('',*,*,#537,.F.);
#1276 = ORIENTED_EDGE('',*,*,#1277,.T.);
#1277 = EDGE_CURVE('',#530,#1278,#1280,.T.);
#1278 = VERTEX_POINT('',#1279);
#1279 = CARTESIAN_POINT('',(294.94221,-20.86969874523,3.627906304347));
#1280 = LINE('',#1281,#1282);
#1281 = CARTESIAN_POINT('',(294.94221,-20.296122,3.627906304347));
#1282 = VECTOR('',#1283,1.);
#1283 = DIRECTION('',(0.,-1.,2.22044604925E-16));
#1284 = ORIENTED_EDGE('',*,*,#1285,.T.);
#1285 = EDGE_CURVE('',#1278,#1254,#1286,.T.);
#1286 = CIRCLE('',#1287,0.904283695653);
#1287 = AXIS2_PLACEMENT_3D('',#1288,#1289,#1290);
#1288 = CARTESIAN_POINT('',(294.94221,-20.86969874523,4.53219));
#1289 = DIRECTION('',(0.,1.,-2.22044604925E-16));
#1290 = DIRECTION('',(-1.,0.,0.));
#1291 = ORIENTED_EDGE('',*,*,#1253,.F.);
#1292 = CYLINDRICAL_SURFACE('',#1293,0.904283695653);
#1293 = AXIS2_PLACEMENT_3D('',#1294,#1295,#1296);
#1294 = CARTESIAN_POINT('',(294.94221,-20.296122,4.53219));
#1295 = DIRECTION('',(0.,1.,-2.22044604925E-16));
#1296 = DIRECTION('',(-1.,0.,0.));
#1297 = ADVANCED_FACE('',(#1298),#1316,.F.);
#1298 = FACE_BOUND('',#1299,.F.);
#1299 = EDGE_LOOP('',(#1300,#1301,#1309,#1315));
#1300 = ORIENTED_EDGE('',*,*,#529,.F.);
#1301 = ORIENTED_EDGE('',*,*,#1302,.T.);
#1302 = EDGE_CURVE('',#521,#1303,#1305,.T.);
#1303 = VERTEX_POINT('',#1304);
#1304 = CARTESIAN_POINT('',(298.23428043478,-20.86969875087,
    3.627906304347));
#1305 = LINE('',#1306,#1307);
#1306 = CARTESIAN_POINT('',(298.23428043478,-20.296122,3.627906304347));
#1307 = VECTOR('',#1308,1.);
#1308 = DIRECTION('',(0.,-1.,2.22044604925E-16));
#1309 = ORIENTED_EDGE('',*,*,#1310,.F.);
#1310 = EDGE_CURVE('',#1278,#1303,#1311,.T.);
#1311 = LINE('',#1312,#1313);
#1312 = CARTESIAN_POINT('',(149.52671630735,-20.86969849605,
    3.627906304347));
#1313 = VECTOR('',#1314,1.);
#1314 = DIRECTION('',(1.,-1.71356584273E-09,3.80488050562E-25));
#1315 = ORIENTED_EDGE('',*,*,#1277,.F.);
#1316 = PLANE('',#1317);
#1317 = AXIS2_PLACEMENT_3D('',#1318,#1319,#1320);
#1318 = CARTESIAN_POINT('',(298.23428043478,-20.296122,3.627906304347));
#1319 = DIRECTION('',(-0.,-2.22044604925E-16,-1.));
#1320 = DIRECTION('',(-1.,0.,0.));
#1321 = ADVANCED_FACE('',(#1322),#1341,.F.);
#1322 = FACE_BOUND('',#1323,.F.);
#1323 = EDGE_LOOP('',(#1324,#1325,#1333,#1340));
#1324 = ORIENTED_EDGE('',*,*,#520,.F.);
#1325 = ORIENTED_EDGE('',*,*,#1326,.T.);
#1326 = EDGE_CURVE('',#513,#1327,#1329,.T.);
#1327 = VERTEX_POINT('',#1328);
#1328 = CARTESIAN_POINT('',(299.13856413043,-20.86969875242,4.53219));
#1329 = LINE('',#1330,#1331);
#1330 = CARTESIAN_POINT('',(299.13856413043,-20.296122,4.53219));
#1331 = VECTOR('',#1332,1.);
#1332 = DIRECTION('',(0.,-1.,2.22044604925E-16));
#1333 = ORIENTED_EDGE('',*,*,#1334,.T.);
#1334 = EDGE_CURVE('',#1327,#1303,#1335,.T.);
#1335 = CIRCLE('',#1336,0.904283695653);
#1336 = AXIS2_PLACEMENT_3D('',#1337,#1338,#1339);
#1337 = CARTESIAN_POINT('',(298.23428043478,-20.86969875087,4.53219));
#1338 = DIRECTION('',(0.,1.,-2.22044604925E-16));
#1339 = DIRECTION('',(-1.,0.,0.));
#1340 = ORIENTED_EDGE('',*,*,#1302,.F.);
#1341 = CYLINDRICAL_SURFACE('',#1342,0.904283695653);
#1342 = AXIS2_PLACEMENT_3D('',#1343,#1344,#1345);
#1343 = CARTESIAN_POINT('',(298.23428043478,-20.296122,4.53219));
#1344 = DIRECTION('',(0.,1.,-2.22044604925E-16));
#1345 = DIRECTION('',(-1.,0.,0.));
#1346 = ADVANCED_FACE('',(#1347),#1358,.F.);
#1347 = FACE_BOUND('',#1348,.F.);
#1348 = EDGE_LOOP('',(#1349,#1350,#1351,#1357));
#1349 = ORIENTED_EDGE('',*,*,#512,.F.);
#1350 = ORIENTED_EDGE('',*,*,#1189,.T.);
#1351 = ORIENTED_EDGE('',*,*,#1352,.F.);
#1352 = EDGE_CURVE('',#1327,#1181,#1353,.T.);
#1353 = LINE('',#1354,#1355);
#1354 = CARTESIAN_POINT('',(299.13856413043,-20.86969875242,
    7.282389717391));
#1355 = VECTOR('',#1356,1.);
#1356 = DIRECTION('',(0.,0.,1.));
#1357 = ORIENTED_EDGE('',*,*,#1326,.F.);
#1358 = PLANE('',#1359);
#1359 = AXIS2_PLACEMENT_3D('',#1360,#1361,#1362);
#1360 = CARTESIAN_POINT('',(299.13856413043,-20.296122,4.564779434783));
#1361 = DIRECTION('',(1.,0.,0.));
#1362 = DIRECTION('',(0.,-2.22044604925E-16,-1.));
#1363 = ADVANCED_FACE('',(#1364),#1390,.F.);
#1364 = FACE_BOUND('',#1365,.F.);
#1365 = EDGE_LOOP('',(#1366,#1367,#1375,#1384));
#1366 = ORIENTED_EDGE('',*,*,#571,.F.);
#1367 = ORIENTED_EDGE('',*,*,#1368,.T.);
#1368 = EDGE_CURVE('',#572,#1369,#1371,.T.);
#1369 = VERTEX_POINT('',#1370);
#1370 = CARTESIAN_POINT('',(299.623169,-20.86969875325,4.541386));
#1371 = LINE('',#1372,#1373);
#1372 = CARTESIAN_POINT('',(299.623169,-20.296122,4.541386));
#1373 = VECTOR('',#1374,1.);
#1374 = DIRECTION('',(0.,-1.,2.22044604925E-16));
#1375 = ORIENTED_EDGE('',*,*,#1376,.T.);
#1376 = EDGE_CURVE('',#1369,#1377,#1379,.T.);
#1377 = VERTEX_POINT('',#1378);
#1378 = CARTESIAN_POINT('',(300.50929700012,-20.86969875476,
    5.427514000128));
#1379 = CIRCLE('',#1380,0.886128000128);
#1380 = AXIS2_PLACEMENT_3D('',#1381,#1382,#1383);
#1381 = CARTESIAN_POINT('',(300.50929700012,-20.86969875476,4.541386));
#1382 = DIRECTION('',(0.,1.,-2.22044604925E-16));
#1383 = DIRECTION('',(-1.,0.,0.));
#1384 = ORIENTED_EDGE('',*,*,#1385,.F.);
#1385 = EDGE_CURVE('',#574,#1377,#1386,.T.);
#1386 = LINE('',#1387,#1388);
#1387 = CARTESIAN_POINT('',(300.50929700012,-20.296122,5.427514000128));
#1388 = VECTOR('',#1389,1.);
#1389 = DIRECTION('',(0.,-1.,2.22044604925E-16));
#1390 = CYLINDRICAL_SURFACE('',#1391,0.886128000128);
#1391 = AXIS2_PLACEMENT_3D('',#1392,#1393,#1394);
#1392 = CARTESIAN_POINT('',(300.50929700012,-20.296122,4.541386));
#1393 = DIRECTION('',(0.,1.,-2.22044604925E-16));
#1394 = DIRECTION('',(-1.,0.,0.));
#1395 = ADVANCED_FACE('',(#1396),#1414,.F.);
#1396 = FACE_BOUND('',#1397,.F.);
#1397 = EDGE_LOOP('',(#1398,#1399,#1407,#1413));
#1398 = ORIENTED_EDGE('',*,*,#633,.F.);
#1399 = ORIENTED_EDGE('',*,*,#1400,.T.);
#1400 = EDGE_CURVE('',#625,#1401,#1403,.T.);
#1401 = VERTEX_POINT('',#1402);
#1402 = CARTESIAN_POINT('',(299.623169,-20.86969875325,4.539612));
#1403 = LINE('',#1404,#1405);
#1404 = CARTESIAN_POINT('',(299.623169,-20.296122,4.539612));
#1405 = VECTOR('',#1406,1.);
#1406 = DIRECTION('',(0.,-1.,2.22044604925E-16));
#1407 = ORIENTED_EDGE('',*,*,#1408,.F.);
#1408 = EDGE_CURVE('',#1369,#1401,#1409,.T.);
#1409 = LINE('',#1410,#1411);
#1410 = CARTESIAN_POINT('',(299.623169,-20.86969875325,7.269806));
#1411 = VECTOR('',#1412,1.);
#1412 = DIRECTION('',(0.,0.,-1.));
#1413 = ORIENTED_EDGE('',*,*,#1368,.F.);
#1414 = PLANE('',#1415);
#1415 = AXIS2_PLACEMENT_3D('',#1416,#1417,#1418);
#1416 = CARTESIAN_POINT('',(299.623169,-20.296122,4.539612));
#1417 = DIRECTION('',(-1.,0.,0.));
#1418 = DIRECTION('',(0.,2.22044604925E-16,1.));
#1419 = ADVANCED_FACE('',(#1420),#1439,.F.);
#1420 = FACE_BOUND('',#1421,.F.);
#1421 = EDGE_LOOP('',(#1422,#1423,#1431,#1438));
#1422 = ORIENTED_EDGE('',*,*,#624,.F.);
#1423 = ORIENTED_EDGE('',*,*,#1424,.T.);
#1424 = EDGE_CURVE('',#617,#1425,#1427,.T.);
#1425 = VERTEX_POINT('',#1426);
#1426 = CARTESIAN_POINT('',(300.50929700012,-20.86969875476,
    3.653483999872));
#1427 = LINE('',#1428,#1429);
#1428 = CARTESIAN_POINT('',(300.50929700012,-20.296122,3.653483999872));
#1429 = VECTOR('',#1430,1.);
#1430 = DIRECTION('',(0.,-1.,2.22044604925E-16));
#1431 = ORIENTED_EDGE('',*,*,#1432,.T.);
#1432 = EDGE_CURVE('',#1425,#1401,#1433,.T.);
#1433 = CIRCLE('',#1434,0.886128000128);
#1434 = AXIS2_PLACEMENT_3D('',#1435,#1436,#1437);
#1435 = CARTESIAN_POINT('',(300.50929700012,-20.86969875476,4.539612));
#1436 = DIRECTION('',(0.,1.,-2.22044604925E-16));
#1437 = DIRECTION('',(-1.,0.,0.));
#1438 = ORIENTED_EDGE('',*,*,#1400,.F.);
#1439 = CYLINDRICAL_SURFACE('',#1440,0.886128000128);
#1440 = AXIS2_PLACEMENT_3D('',#1441,#1442,#1443);
#1441 = CARTESIAN_POINT('',(300.50929700012,-20.296122,4.539612));
#1442 = DIRECTION('',(0.,1.,-2.22044604925E-16));
#1443 = DIRECTION('',(-1.,0.,0.));
#1444 = ADVANCED_FACE('',(#1445),#1463,.F.);
#1445 = FACE_BOUND('',#1446,.F.);
#1446 = EDGE_LOOP('',(#1447,#1448,#1456,#1462));
#1447 = ORIENTED_EDGE('',*,*,#616,.F.);
#1448 = ORIENTED_EDGE('',*,*,#1449,.T.);
#1449 = EDGE_CURVE('',#608,#1450,#1452,.T.);
#1450 = VERTEX_POINT('',#1451);
#1451 = CARTESIAN_POINT('',(303.267162,-20.86969875949,3.653483999872));
#1452 = LINE('',#1453,#1454);
#1453 = CARTESIAN_POINT('',(303.267162,-20.296122,3.653483999872));
#1454 = VECTOR('',#1455,1.);
#1455 = DIRECTION('',(0.,-1.,2.22044604925E-16));
#1456 = ORIENTED_EDGE('',*,*,#1457,.F.);
#1457 = EDGE_CURVE('',#1425,#1450,#1458,.T.);
#1458 = LINE('',#1459,#1460);
#1459 = CARTESIAN_POINT('',(152.04315708996,-20.86969850036,
    3.653483999872));
#1460 = VECTOR('',#1461,1.);
#1461 = DIRECTION('',(1.,-1.71356584273E-09,3.80488050562E-25));
#1462 = ORIENTED_EDGE('',*,*,#1424,.F.);
#1463 = PLANE('',#1464);
#1464 = AXIS2_PLACEMENT_3D('',#1465,#1466,#1467);
#1465 = CARTESIAN_POINT('',(303.267162,-20.296122,3.653483999872));
#1466 = DIRECTION('',(-0.,-2.22044604925E-16,-1.));
#1467 = DIRECTION('',(-1.,0.,0.));
#1468 = ADVANCED_FACE('',(#1469),#1488,.F.);
#1469 = FACE_BOUND('',#1470,.F.);
#1470 = EDGE_LOOP('',(#1471,#1472,#1480,#1487));
#1471 = ORIENTED_EDGE('',*,*,#607,.F.);
#1472 = ORIENTED_EDGE('',*,*,#1473,.T.);
#1473 = EDGE_CURVE('',#600,#1474,#1476,.T.);
#1474 = VERTEX_POINT('',#1475);
#1475 = CARTESIAN_POINT('',(304.15329000012,-20.86969876101,4.539612));
#1476 = LINE('',#1477,#1478);
#1477 = CARTESIAN_POINT('',(304.15329000012,-20.296122,4.539612));
#1478 = VECTOR('',#1479,1.);
#1479 = DIRECTION('',(0.,-1.,2.22044604925E-16));
#1480 = ORIENTED_EDGE('',*,*,#1481,.T.);
#1481 = EDGE_CURVE('',#1474,#1450,#1482,.T.);
#1482 = CIRCLE('',#1483,0.886128000128);
#1483 = AXIS2_PLACEMENT_3D('',#1484,#1485,#1486);
#1484 = CARTESIAN_POINT('',(303.267162,-20.86969875949,4.539612));
#1485 = DIRECTION('',(0.,1.,-2.22044604925E-16));
#1486 = DIRECTION('',(-1.,0.,0.));
#1487 = ORIENTED_EDGE('',*,*,#1449,.F.);
#1488 = CYLINDRICAL_SURFACE('',#1489,0.886128000128);
#1489 = AXIS2_PLACEMENT_3D('',#1490,#1491,#1492);
#1490 = CARTESIAN_POINT('',(303.267162,-20.296122,4.539612));
#1491 = DIRECTION('',(0.,1.,-2.22044604925E-16));
#1492 = DIRECTION('',(-1.,0.,0.));
#1493 = ADVANCED_FACE('',(#1494),#1512,.F.);
#1494 = FACE_BOUND('',#1495,.F.);
#1495 = EDGE_LOOP('',(#1496,#1497,#1505,#1511));
#1496 = ORIENTED_EDGE('',*,*,#599,.F.);
#1497 = ORIENTED_EDGE('',*,*,#1498,.T.);
#1498 = EDGE_CURVE('',#591,#1499,#1501,.T.);
#1499 = VERTEX_POINT('',#1500);
#1500 = CARTESIAN_POINT('',(304.15329000012,-20.86969876101,4.541386));
#1501 = LINE('',#1502,#1503);
#1502 = CARTESIAN_POINT('',(304.15329000012,-20.296122,4.541386));
#1503 = VECTOR('',#1504,1.);
#1504 = DIRECTION('',(0.,-1.,2.22044604925E-16));
#1505 = ORIENTED_EDGE('',*,*,#1506,.F.);
#1506 = EDGE_CURVE('',#1474,#1499,#1507,.T.);
#1507 = LINE('',#1508,#1509);
#1508 = CARTESIAN_POINT('',(304.15329000012,-20.86969876101,7.270693));
#1509 = VECTOR('',#1510,1.);
#1510 = DIRECTION('',(0.,0.,1.));
#1511 = ORIENTED_EDGE('',*,*,#1473,.F.);
#1512 = PLANE('',#1513);
#1513 = AXIS2_PLACEMENT_3D('',#1514,#1515,#1516);
#1514 = CARTESIAN_POINT('',(304.15329000012,-20.296122,4.541386));
#1515 = DIRECTION('',(1.,0.,0.));
#1516 = DIRECTION('',(0.,-2.22044604925E-16,-1.));
#1517 = ADVANCED_FACE('',(#1518),#1537,.F.);
#1518 = FACE_BOUND('',#1519,.F.);
#1519 = EDGE_LOOP('',(#1520,#1521,#1529,#1536));
#1520 = ORIENTED_EDGE('',*,*,#590,.F.);
#1521 = ORIENTED_EDGE('',*,*,#1522,.T.);
#1522 = EDGE_CURVE('',#583,#1523,#1525,.T.);
#1523 = VERTEX_POINT('',#1524);
#1524 = CARTESIAN_POINT('',(303.267162,-20.86969875949,5.427514000128));
#1525 = LINE('',#1526,#1527);
#1526 = CARTESIAN_POINT('',(303.267162,-20.296122,5.427514000128));
#1527 = VECTOR('',#1528,1.);
#1528 = DIRECTION('',(0.,-1.,2.22044604925E-16));
#1529 = ORIENTED_EDGE('',*,*,#1530,.T.);
#1530 = EDGE_CURVE('',#1523,#1499,#1531,.T.);
#1531 = CIRCLE('',#1532,0.886128000128);
#1532 = AXIS2_PLACEMENT_3D('',#1533,#1534,#1535);
#1533 = CARTESIAN_POINT('',(303.267162,-20.86969875949,4.541386));
#1534 = DIRECTION('',(0.,1.,-2.22044604925E-16));
#1535 = DIRECTION('',(-1.,0.,0.));
#1536 = ORIENTED_EDGE('',*,*,#1498,.F.);
#1537 = CYLINDRICAL_SURFACE('',#1538,0.886128000128);
#1538 = AXIS2_PLACEMENT_3D('',#1539,#1540,#1541);
#1539 = CARTESIAN_POINT('',(303.267162,-20.296122,4.541386));
#1540 = DIRECTION('',(0.,1.,-2.22044604925E-16));
#1541 = DIRECTION('',(-1.,0.,0.));
#1542 = ADVANCED_FACE('',(#1543),#1554,.F.);
#1543 = FACE_BOUND('',#1544,.F.);
#1544 = EDGE_LOOP('',(#1545,#1546,#1547,#1553));
#1545 = ORIENTED_EDGE('',*,*,#582,.F.);
#1546 = ORIENTED_EDGE('',*,*,#1385,.T.);
#1547 = ORIENTED_EDGE('',*,*,#1548,.F.);
#1548 = EDGE_CURVE('',#1523,#1377,#1549,.T.);
#1549 = LINE('',#1550,#1551);
#1550 = CARTESIAN_POINT('',(150.66422459003,-20.869698498,5.427514000128
    ));
#1551 = VECTOR('',#1552,1.);
#1552 = DIRECTION('',(-1.,1.71356584273E-09,-3.80488050562E-25));
#1553 = ORIENTED_EDGE('',*,*,#1522,.F.);
#1554 = PLANE('',#1555);
#1555 = AXIS2_PLACEMENT_3D('',#1556,#1557,#1558);
#1556 = CARTESIAN_POINT('',(300.50929700012,-20.296122,5.427514000128));
#1557 = DIRECTION('',(0.,2.22044604925E-16,1.));
#1558 = DIRECTION('',(1.,0.,0.));
#1559 = ADVANCED_FACE('',(#1560),#1588,.T.);
#1560 = FACE_BOUND('',#1561,.T.);
#1561 = EDGE_LOOP('',(#1562,#1571,#1572,#1581));
#1562 = ORIENTED_EDGE('',*,*,#1563,.F.);
#1563 = EDGE_CURVE('',#780,#1564,#1566,.T.);
#1564 = VERTEX_POINT('',#1565);
#1565 = CARTESIAN_POINT('',(12.725561644871,-32.328198,-2.));
#1566 = CIRCLE('',#1567,1.7);
#1567 = AXIS2_PLACEMENT_3D('',#1568,#1569,#1570);
#1568 = CARTESIAN_POINT('',(12.725561644871,-32.328198,-0.3));
#1569 = DIRECTION('',(1.,0.,-0.));
#1570 = DIRECTION('',(0.,-1.,0.));
#1571 = ORIENTED_EDGE('',*,*,#787,.T.);
#1572 = ORIENTED_EDGE('',*,*,#1573,.T.);
#1573 = EDGE_CURVE('',#788,#1574,#1576,.T.);
#1574 = VERTEX_POINT('',#1575);
#1575 = CARTESIAN_POINT('',(12.563978,-32.16661435512,-2.));
#1576 = CIRCLE('',#1577,1.7);
#1577 = AXIS2_PLACEMENT_3D('',#1578,#1579,#1580);
#1578 = CARTESIAN_POINT('',(12.563978,-32.16661435512,-0.3));
#1579 = DIRECTION('',(-0.,-1.,-0.));
#1580 = DIRECTION('',(-1.,0.,0.));
#1581 = ORIENTED_EDGE('',*,*,#1582,.F.);
#1582 = EDGE_CURVE('',#1564,#1574,#1583,.T.);
#1583 = CIRCLE('',#1584,0.161583644871);
#1584 = AXIS2_PLACEMENT_3D('',#1585,#1586,#1587);
#1585 = CARTESIAN_POINT('',(12.725561644871,-32.16661435512,-2.));
#1586 = DIRECTION('',(0.,-0.,-1.));
#1587 = DIRECTION('',(2.862654349636E-15,-1.,0.));
#1588 = SURFACE_OF_REVOLUTION('',#1589,#1600);
#1589 = B_SPLINE_CURVE_WITH_KNOTS('',5,(#1590,#1591,#1592,#1593,#1594,
    #1595,#1596,#1597,#1598,#1599),.UNSPECIFIED.,.F.,.F.,(6,4,6),(0.,
    0.785398163397,1.570796326795),.UNSPECIFIED.);
#1590 = CARTESIAN_POINT('',(12.725561644871,-34.028198,-0.3));
#1591 = CARTESIAN_POINT('',(12.725561644871,-34.028198,-0.567035375555)
  );
#1592 = CARTESIAN_POINT('',(12.725561644871,-33.97577749199,
    -0.834074981769));
#1593 = CARTESIAN_POINT('',(12.725561644871,-33.8708606726,
    -1.087366590061));
#1594 = CARTESIAN_POINT('',(12.725561644871,-33.71910205288,
    -1.313259003145));
#1595 = CARTESIAN_POINT('',(12.725561644871,-33.34145700314,
    -1.690904052889));
#1596 = CARTESIAN_POINT('',(12.725561644871,-33.11556459006,
    -1.842662672602));
#1597 = CARTESIAN_POINT('',(12.725561644871,-32.86227298176,
    -1.947579491992));
#1598 = CARTESIAN_POINT('',(12.725561644871,-32.59523337555,-2.));
#1599 = CARTESIAN_POINT('',(12.725561644871,-32.328198,-2.));
#1600 = AXIS1_PLACEMENT('',#1601,#1602);
#1601 = CARTESIAN_POINT('',(12.725561644871,-32.16661435512,-0.3));
#1602 = DIRECTION('',(-0.,-0.,-1.));
#1603 = ADVANCED_FACE('',(#1604),#1623,.T.);
#1604 = FACE_BOUND('',#1605,.F.);
#1605 = EDGE_LOOP('',(#1606,#1615,#1621,#1622));
#1606 = ORIENTED_EDGE('',*,*,#1607,.T.);
#1607 = EDGE_CURVE('',#812,#1608,#1610,.T.);
#1608 = VERTEX_POINT('',#1609);
#1609 = CARTESIAN_POINT('',(25.377121355129,-32.328198,-2.));
#1610 = CIRCLE('',#1611,1.7);
#1611 = AXIS2_PLACEMENT_3D('',#1612,#1613,#1614);
#1612 = CARTESIAN_POINT('',(25.377121355129,-32.328198,-0.3));
#1613 = DIRECTION('',(1.,7.273661547325E-16,0.));
#1614 = DIRECTION('',(7.273661547325E-16,-1.,0.));
#1615 = ORIENTED_EDGE('',*,*,#1616,.T.);
#1616 = EDGE_CURVE('',#1608,#1564,#1617,.T.);
#1617 = LINE('',#1618,#1619);
#1618 = CARTESIAN_POINT('',(25.377121355129,-32.328198,-2.));
#1619 = VECTOR('',#1620,1.);
#1620 = DIRECTION('',(-1.,0.,0.));
#1621 = ORIENTED_EDGE('',*,*,#1563,.F.);
#1622 = ORIENTED_EDGE('',*,*,#819,.F.);
#1623 = CYLINDRICAL_SURFACE('',#1624,1.7);
#1624 = AXIS2_PLACEMENT_3D('',#1625,#1626,#1627);
#1625 = CARTESIAN_POINT('',(25.377121355129,-32.328198,-0.3));
#1626 = DIRECTION('',(-1.,0.,0.));
#1627 = DIRECTION('',(0.,-1.,0.));
#1628 = ADVANCED_FACE('',(#1629),#1649,.T.);
#1629 = FACE_BOUND('',#1630,.T.);
#1630 = EDGE_LOOP('',(#1631,#1640,#1641,#1642));
#1631 = ORIENTED_EDGE('',*,*,#1632,.F.);
#1632 = EDGE_CURVE('',#836,#1633,#1635,.T.);
#1633 = VERTEX_POINT('',#1634);
#1634 = CARTESIAN_POINT('',(25.538705,-32.16661435512,-2.));
#1635 = CIRCLE('',#1636,1.7);
#1636 = AXIS2_PLACEMENT_3D('',#1637,#1638,#1639);
#1637 = CARTESIAN_POINT('',(25.538705,-32.16661435512,-0.3));
#1638 = DIRECTION('',(-0.,1.,0.));
#1639 = DIRECTION('',(1.,0.,0.));
#1640 = ORIENTED_EDGE('',*,*,#843,.T.);
#1641 = ORIENTED_EDGE('',*,*,#1607,.T.);
#1642 = ORIENTED_EDGE('',*,*,#1643,.F.);
#1643 = EDGE_CURVE('',#1633,#1608,#1644,.T.);
#1644 = CIRCLE('',#1645,0.161583644871);
#1645 = AXIS2_PLACEMENT_3D('',#1646,#1647,#1648);
#1646 = CARTESIAN_POINT('',(25.377121355129,-32.16661435512,-2.));
#1647 = DIRECTION('',(0.,0.,-1.));
#1648 = DIRECTION('',(1.,0.,0.));
#1649 = SURFACE_OF_REVOLUTION('',#1650,#1661);
#1650 = B_SPLINE_CURVE_WITH_KNOTS('',5,(#1651,#1652,#1653,#1654,#1655,
    #1656,#1657,#1658,#1659,#1660),.UNSPECIFIED.,.F.,.F.,(6,4,6),(0.,
    0.785398163397,1.570796326795),.UNSPECIFIED.);
#1651 = CARTESIAN_POINT('',(27.238705,-32.16661435512,-0.3));
#1652 = CARTESIAN_POINT('',(27.238705,-32.16661435512,-0.567035375555));
#1653 = CARTESIAN_POINT('',(27.186284491992,-32.16661435512,
    -0.834074981769));
#1654 = CARTESIAN_POINT('',(27.081367672602,-32.16661435512,
    -1.087366590061));
#1655 = CARTESIAN_POINT('',(26.929609052889,-32.16661435512,
    -1.313259003145));
#1656 = CARTESIAN_POINT('',(26.551964003145,-32.16661435512,
    -1.690904052889));
#1657 = CARTESIAN_POINT('',(26.326071590061,-32.16661435512,
    -1.842662672602));
#1658 = CARTESIAN_POINT('',(26.072779981769,-32.16661435512,
    -1.947579491992));
#1659 = CARTESIAN_POINT('',(25.805740375555,-32.16661435512,-2.));
#1660 = CARTESIAN_POINT('',(25.538705,-32.16661435512,-2.));
#1661 = AXIS1_PLACEMENT('',#1662,#1663);
#1662 = CARTESIAN_POINT('',(25.377121355129,-32.16661435512,-0.3));
#1663 = DIRECTION('',(-0.,-0.,-1.));
#1664 = ADVANCED_FACE('',(#1665),#1684,.T.);
#1665 = FACE_BOUND('',#1666,.F.);
#1666 = EDGE_LOOP('',(#1667,#1676,#1682,#1683));
#1667 = ORIENTED_EDGE('',*,*,#1668,.T.);
#1668 = EDGE_CURVE('',#861,#1669,#1671,.T.);
#1669 = VERTEX_POINT('',#1670);
#1670 = CARTESIAN_POINT('',(25.538705,-32.162889,-2.));
#1671 = CIRCLE('',#1672,1.7);
#1672 = AXIS2_PLACEMENT_3D('',#1673,#1674,#1675);
#1673 = CARTESIAN_POINT('',(25.538705,-32.162889,-0.3));
#1674 = DIRECTION('',(1.450965712062E-15,1.,0.));
#1675 = DIRECTION('',(1.,-1.450965712062E-15,0.));
#1676 = ORIENTED_EDGE('',*,*,#1677,.T.);
#1677 = EDGE_CURVE('',#1669,#1633,#1678,.T.);
#1678 = LINE('',#1679,#1680);
#1679 = CARTESIAN_POINT('',(25.538705,-32.162889,-2.));
#1680 = VECTOR('',#1681,1.);
#1681 = DIRECTION('',(0.,-1.,0.));
#1682 = ORIENTED_EDGE('',*,*,#1632,.F.);
#1683 = ORIENTED_EDGE('',*,*,#868,.F.);
#1684 = CYLINDRICAL_SURFACE('',#1685,1.7);
#1685 = AXIS2_PLACEMENT_3D('',#1686,#1687,#1688);
#1686 = CARTESIAN_POINT('',(25.538705,-32.162889,-0.3));
#1687 = DIRECTION('',(0.,-1.,0.));
#1688 = DIRECTION('',(1.,0.,0.));
#1689 = ADVANCED_FACE('',(#1690),#1710,.T.);
#1690 = FACE_BOUND('',#1691,.T.);
#1691 = EDGE_LOOP('',(#1692,#1701,#1702,#1703));
#1692 = ORIENTED_EDGE('',*,*,#1693,.F.);
#1693 = EDGE_CURVE('',#885,#1694,#1696,.T.);
#1694 = VERTEX_POINT('',#1695);
#1695 = CARTESIAN_POINT('',(25.377121355129,-32.00130535512,-2.));
#1696 = CIRCLE('',#1697,1.7);
#1697 = AXIS2_PLACEMENT_3D('',#1698,#1699,#1700);
#1698 = CARTESIAN_POINT('',(25.377121355129,-32.00130535512,-0.3));
#1699 = DIRECTION('',(-1.,0.,0.));
#1700 = DIRECTION('',(0.,1.,0.));
#1701 = ORIENTED_EDGE('',*,*,#892,.T.);
#1702 = ORIENTED_EDGE('',*,*,#1668,.T.);
#1703 = ORIENTED_EDGE('',*,*,#1704,.F.);
#1704 = EDGE_CURVE('',#1694,#1669,#1705,.T.);
#1705 = CIRCLE('',#1706,0.161583644871);
#1706 = AXIS2_PLACEMENT_3D('',#1707,#1708,#1709);
#1707 = CARTESIAN_POINT('',(25.377121355129,-32.162889,-2.));
#1708 = DIRECTION('',(0.,0.,-1.));
#1709 = DIRECTION('',(-3.816872466181E-15,1.,0.));
#1710 = SURFACE_OF_REVOLUTION('',#1711,#1722);
#1711 = B_SPLINE_CURVE_WITH_KNOTS('',5,(#1712,#1713,#1714,#1715,#1716,
    #1717,#1718,#1719,#1720,#1721),.UNSPECIFIED.,.F.,.F.,(6,4,6),(0.,
    0.785398163397,1.570796326795),.UNSPECIFIED.);
#1712 = CARTESIAN_POINT('',(25.377121355129,-30.30130535512,-0.3));
#1713 = CARTESIAN_POINT('',(25.377121355129,-30.30130535512,
    -0.567035375555));
#1714 = CARTESIAN_POINT('',(25.377121355129,-30.35372586313,
    -0.834074981769));
#1715 = CARTESIAN_POINT('',(25.377121355129,-30.45864268252,
    -1.087366590061));
#1716 = CARTESIAN_POINT('',(25.377121355129,-30.61040130224,
    -1.313259003145));
#1717 = CARTESIAN_POINT('',(25.377121355129,-30.98804635198,
    -1.690904052889));
#1718 = CARTESIAN_POINT('',(25.377121355129,-31.21393876506,
    -1.842662672602));
#1719 = CARTESIAN_POINT('',(25.377121355129,-31.46723037336,
    -1.947579491992));
#1720 = CARTESIAN_POINT('',(25.377121355129,-31.73426997957,-2.));
#1721 = CARTESIAN_POINT('',(25.377121355129,-32.00130535512,-2.));
#1722 = AXIS1_PLACEMENT('',#1723,#1724);
#1723 = CARTESIAN_POINT('',(25.377121355129,-32.162889,-0.3));
#1724 = DIRECTION('',(-0.,-0.,-1.));
#1725 = ADVANCED_FACE('',(#1726),#1745,.T.);
#1726 = FACE_BOUND('',#1727,.F.);
#1727 = EDGE_LOOP('',(#1728,#1737,#1743,#1744));
#1728 = ORIENTED_EDGE('',*,*,#1729,.T.);
#1729 = EDGE_CURVE('',#910,#1730,#1732,.T.);
#1730 = VERTEX_POINT('',#1731);
#1731 = CARTESIAN_POINT('',(12.725561644871,-32.00130535512,-2.));
#1732 = CIRCLE('',#1733,1.7);
#1733 = AXIS2_PLACEMENT_3D('',#1734,#1735,#1736);
#1734 = CARTESIAN_POINT('',(12.725561644871,-32.00130535512,-0.3));
#1735 = DIRECTION('',(-1.,-7.361976329051E-15,-0.));
#1736 = DIRECTION('',(-7.361976329051E-15,1.,0.));
#1737 = ORIENTED_EDGE('',*,*,#1738,.T.);
#1738 = EDGE_CURVE('',#1730,#1694,#1739,.T.);
#1739 = LINE('',#1740,#1741);
#1740 = CARTESIAN_POINT('',(12.725561644871,-32.00130535512,-2.));
#1741 = VECTOR('',#1742,1.);
#1742 = DIRECTION('',(1.,0.,0.));
#1743 = ORIENTED_EDGE('',*,*,#1693,.F.);
#1744 = ORIENTED_EDGE('',*,*,#917,.F.);
#1745 = CYLINDRICAL_SURFACE('',#1746,1.7);
#1746 = AXIS2_PLACEMENT_3D('',#1747,#1748,#1749);
#1747 = CARTESIAN_POINT('',(12.725561644871,-32.00130535512,-0.3));
#1748 = DIRECTION('',(1.,0.,0.));
#1749 = DIRECTION('',(0.,1.,0.));
#1750 = ADVANCED_FACE('',(#1751),#1771,.T.);
#1751 = FACE_BOUND('',#1752,.T.);
#1752 = EDGE_LOOP('',(#1753,#1762,#1763,#1764));
#1753 = ORIENTED_EDGE('',*,*,#1754,.F.);
#1754 = EDGE_CURVE('',#934,#1755,#1757,.T.);
#1755 = VERTEX_POINT('',#1756);
#1756 = CARTESIAN_POINT('',(12.563978,-32.162889,-2.));
#1757 = CIRCLE('',#1758,1.7);
#1758 = AXIS2_PLACEMENT_3D('',#1759,#1760,#1761);
#1759 = CARTESIAN_POINT('',(12.563978,-32.162889,-0.3));
#1760 = DIRECTION('',(-0.,-1.,-0.));
#1761 = DIRECTION('',(-1.,0.,0.));
#1762 = ORIENTED_EDGE('',*,*,#941,.T.);
#1763 = ORIENTED_EDGE('',*,*,#1729,.T.);
#1764 = ORIENTED_EDGE('',*,*,#1765,.F.);
#1765 = EDGE_CURVE('',#1755,#1730,#1766,.T.);
#1766 = CIRCLE('',#1767,0.161583644871);
#1767 = AXIS2_PLACEMENT_3D('',#1768,#1769,#1770);
#1768 = CARTESIAN_POINT('',(12.725561644871,-32.162889,-2.));
#1769 = DIRECTION('',(-0.,0.,-1.));
#1770 = DIRECTION('',(-1.,-1.183230464516E-13,0.));
#1771 = SURFACE_OF_REVOLUTION('',#1772,#1783);
#1772 = B_SPLINE_CURVE_WITH_KNOTS('',5,(#1773,#1774,#1775,#1776,#1777,
    #1778,#1779,#1780,#1781,#1782),.UNSPECIFIED.,.F.,.F.,(6,4,6),(0.,
    0.785398163397,1.570796326795),.UNSPECIFIED.);
#1773 = CARTESIAN_POINT('',(10.863978,-32.162889,-0.3));
#1774 = CARTESIAN_POINT('',(10.863978,-32.162889,-0.567035375555));
#1775 = CARTESIAN_POINT('',(10.916398508008,-32.162889,-0.834074981769)
  );
#1776 = CARTESIAN_POINT('',(11.021315327398,-32.162889,-1.087366590061)
  );
#1777 = CARTESIAN_POINT('',(11.173073947111,-32.162889,-1.313259003145)
  );
#1778 = CARTESIAN_POINT('',(11.550718996855,-32.162889,-1.690904052889)
  );
#1779 = CARTESIAN_POINT('',(11.776611409939,-32.162889,-1.842662672602)
  );
#1780 = CARTESIAN_POINT('',(12.029903018231,-32.162889,-1.947579491992)
  );
#1781 = CARTESIAN_POINT('',(12.296942624445,-32.162889,-2.));
#1782 = CARTESIAN_POINT('',(12.563978,-32.162889,-2.));
#1783 = AXIS1_PLACEMENT('',#1784,#1785);
#1784 = CARTESIAN_POINT('',(12.725561644871,-32.162889,-0.3));
#1785 = DIRECTION('',(-0.,-0.,-1.));
#1786 = ADVANCED_FACE('',(#1787),#1798,.T.);
#1787 = FACE_BOUND('',#1788,.F.);
#1788 = EDGE_LOOP('',(#1789,#1790,#1796,#1797));
#1789 = ORIENTED_EDGE('',*,*,#1573,.T.);
#1790 = ORIENTED_EDGE('',*,*,#1791,.T.);
#1791 = EDGE_CURVE('',#1574,#1755,#1792,.T.);
#1792 = LINE('',#1793,#1794);
#1793 = CARTESIAN_POINT('',(12.563978,-32.16661435512,-2.));
#1794 = VECTOR('',#1795,1.);
#1795 = DIRECTION('',(0.,1.,0.));
#1796 = ORIENTED_EDGE('',*,*,#1754,.F.);
#1797 = ORIENTED_EDGE('',*,*,#959,.F.);
#1798 = CYLINDRICAL_SURFACE('',#1799,1.7);
#1799 = AXIS2_PLACEMENT_3D('',#1800,#1801,#1802);
#1800 = CARTESIAN_POINT('',(12.563978,-32.16661435512,-0.3));
#1801 = DIRECTION('',(0.,1.,0.));
#1802 = DIRECTION('',(-1.,0.,0.));
#1803 = ADVANCED_FACE('',(#1804),#1829,.T.);
#1804 = FACE_BOUND('',#1805,.T.);
#1805 = EDGE_LOOP('',(#1806,#1807,#1815,#1823));
#1806 = ORIENTED_EDGE('',*,*,#1089,.F.);
#1807 = ORIENTED_EDGE('',*,*,#1808,.T.);
#1808 = EDGE_CURVE('',#1090,#1809,#1811,.T.);
#1809 = VERTEX_POINT('',#1810);
#1810 = CARTESIAN_POINT('',(311.26084819739,-126.1025452268,1.1));
#1811 = LINE('',#1812,#1813);
#1812 = CARTESIAN_POINT('',(311.26084819739,-126.1025452268,10.));
#1813 = VECTOR('',#1814,1.);
#1814 = DIRECTION('',(-0.,-0.,-1.));
#1815 = ORIENTED_EDGE('',*,*,#1816,.T.);
#1816 = EDGE_CURVE('',#1809,#1817,#1819,.T.);
#1817 = VERTEX_POINT('',#1818);
#1818 = CARTESIAN_POINT('',(2.819152184341,-126.1025457553,1.1));
#1819 = LINE('',#1820,#1821);
#1820 = CARTESIAN_POINT('',(313.26084819397,-126.1025452233,1.1));
#1821 = VECTOR('',#1822,1.);
#1822 = DIRECTION('',(-1.,-1.71356584273E-09,0.));
#1823 = ORIENTED_EDGE('',*,*,#1824,.F.);
#1824 = EDGE_CURVE('',#1092,#1817,#1825,.T.);
#1825 = LINE('',#1826,#1827);
#1826 = CARTESIAN_POINT('',(2.819152184341,-126.1025457553,10.));
#1827 = VECTOR('',#1828,1.);
#1828 = DIRECTION('',(-0.,-0.,-1.));
#1829 = PLANE('',#1830);
#1830 = AXIS2_PLACEMENT_3D('',#1831,#1832,#1833);
#1831 = CARTESIAN_POINT('',(313.26084819397,-126.1025452233,10.));
#1832 = DIRECTION('',(-1.71356584273E-09,1.,0.));
#1833 = DIRECTION('',(-1.,-1.71356584273E-09,0.));
#1834 = ADVANCED_FACE('',(#1835),#1854,.F.);
#1835 = FACE_BOUND('',#1836,.F.);
#1836 = EDGE_LOOP('',(#1837,#1838,#1846,#1853));
#1837 = ORIENTED_EDGE('',*,*,#1099,.T.);
#1838 = ORIENTED_EDGE('',*,*,#1839,.T.);
#1839 = EDGE_CURVE('',#1100,#1840,#1842,.T.);
#1840 = VERTEX_POINT('',#1841);
#1841 = CARTESIAN_POINT('',(0.819152180914,-124.1025457553,1.1));
#1842 = LINE('',#1843,#1844);
#1843 = CARTESIAN_POINT('',(0.819152180914,-124.1025457553,10.));
#1844 = VECTOR('',#1845,1.);
#1845 = DIRECTION('',(-0.,-0.,-1.));
#1846 = ORIENTED_EDGE('',*,*,#1847,.F.);
#1847 = EDGE_CURVE('',#1817,#1840,#1848,.T.);
#1848 = CIRCLE('',#1849,2.);
#1849 = AXIS2_PLACEMENT_3D('',#1850,#1851,#1852);
#1850 = CARTESIAN_POINT('',(2.819152180914,-124.1025457553,1.1));
#1851 = DIRECTION('',(0.,0.,-1.));
#1852 = DIRECTION('',(0.,1.,0.));
#1853 = ORIENTED_EDGE('',*,*,#1824,.F.);
#1854 = CYLINDRICAL_SURFACE('',#1855,2.);
#1855 = AXIS2_PLACEMENT_3D('',#1856,#1857,#1858);
#1856 = CARTESIAN_POINT('',(2.819152180914,-124.1025457553,10.));
#1857 = DIRECTION('',(-0.,-0.,-1.));
#1858 = DIRECTION('',(1.71356584273E-09,-1.,0.));
#1859 = ADVANCED_FACE('',(#1860),#1879,.F.);
#1860 = FACE_BOUND('',#1861,.F.);
#1861 = EDGE_LOOP('',(#1862,#1863,#1864,#1873));
#1862 = ORIENTED_EDGE('',*,*,#1150,.T.);
#1863 = ORIENTED_EDGE('',*,*,#1808,.T.);
#1864 = ORIENTED_EDGE('',*,*,#1865,.F.);
#1865 = EDGE_CURVE('',#1866,#1809,#1868,.T.);
#1866 = VERTEX_POINT('',#1867);
#1867 = CARTESIAN_POINT('',(313.26084819397,-124.1025452268,1.1));
#1868 = CIRCLE('',#1869,2.);
#1869 = AXIS2_PLACEMENT_3D('',#1870,#1871,#1872);
#1870 = CARTESIAN_POINT('',(311.26084819397,-124.1025452268,1.1));
#1871 = DIRECTION('',(0.,0.,-1.));
#1872 = DIRECTION('',(0.,1.,0.));
#1873 = ORIENTED_EDGE('',*,*,#1874,.F.);
#1874 = EDGE_CURVE('',#1143,#1866,#1875,.T.);
#1875 = LINE('',#1876,#1877);
#1876 = CARTESIAN_POINT('',(313.26084819397,-124.1025452268,10.));
#1877 = VECTOR('',#1878,1.);
#1878 = DIRECTION('',(-0.,-0.,-1.));
#1879 = CYLINDRICAL_SURFACE('',#1880,2.);
#1880 = AXIS2_PLACEMENT_3D('',#1881,#1882,#1883);
#1881 = CARTESIAN_POINT('',(311.26084819397,-124.1025452268,10.));
#1882 = DIRECTION('',(-0.,-0.,-1.));
#1883 = DIRECTION('',(1.,0.,0.));
#1884 = ADVANCED_FACE('',(#1885),#1903,.T.);
#1885 = FACE_BOUND('',#1886,.T.);
#1886 = EDGE_LOOP('',(#1887,#1888,#1889,#1897));
#1887 = ORIENTED_EDGE('',*,*,#1108,.F.);
#1888 = ORIENTED_EDGE('',*,*,#1839,.T.);
#1889 = ORIENTED_EDGE('',*,*,#1890,.T.);
#1890 = EDGE_CURVE('',#1840,#1891,#1893,.T.);
#1891 = VERTEX_POINT('',#1892);
#1892 = CARTESIAN_POINT('',(0.819152180914,-22.86969824465,1.1));
#1893 = LINE('',#1894,#1895);
#1894 = CARTESIAN_POINT('',(0.819152180914,-126.1025457587,1.1));
#1895 = VECTOR('',#1896,1.);
#1896 = DIRECTION('',(0.,1.,0.));
#1897 = ORIENTED_EDGE('',*,*,#1898,.F.);
#1898 = EDGE_CURVE('',#1109,#1891,#1899,.T.);
#1899 = LINE('',#1900,#1901);
#1900 = CARTESIAN_POINT('',(0.819152180914,-22.86969824465,10.));
#1901 = VECTOR('',#1902,1.);
#1902 = DIRECTION('',(-0.,-0.,-1.));
#1903 = PLANE('',#1904);
#1904 = AXIS2_PLACEMENT_3D('',#1905,#1906,#1907);
#1905 = CARTESIAN_POINT('',(0.819152180914,-126.1025457587,10.));
#1906 = DIRECTION('',(1.,0.,0.));
#1907 = DIRECTION('',(0.,1.,0.));
#1908 = ADVANCED_FACE('',(#1909),#1927,.T.);
#1909 = FACE_BOUND('',#1910,.T.);
#1910 = EDGE_LOOP('',(#1911,#1912,#1920,#1926));
#1911 = ORIENTED_EDGE('',*,*,#1142,.F.);
#1912 = ORIENTED_EDGE('',*,*,#1913,.T.);
#1913 = EDGE_CURVE('',#1134,#1914,#1916,.T.);
#1914 = VERTEX_POINT('',#1915);
#1915 = CARTESIAN_POINT('',(313.26084819397,-22.86969877319,1.1));
#1916 = LINE('',#1917,#1918);
#1917 = CARTESIAN_POINT('',(313.26084819397,-22.86969877319,10.));
#1918 = VECTOR('',#1919,1.);
#1919 = DIRECTION('',(-0.,-0.,-1.));
#1920 = ORIENTED_EDGE('',*,*,#1921,.T.);
#1921 = EDGE_CURVE('',#1914,#1866,#1922,.T.);
#1922 = LINE('',#1923,#1924);
#1923 = CARTESIAN_POINT('',(313.26084819397,-20.86969877662,1.1));
#1924 = VECTOR('',#1925,1.);
#1925 = DIRECTION('',(0.,-1.,0.));
#1926 = ORIENTED_EDGE('',*,*,#1874,.F.);
#1927 = PLANE('',#1928);
#1928 = AXIS2_PLACEMENT_3D('',#1929,#1930,#1931);
#1929 = CARTESIAN_POINT('',(313.26084819397,-20.86969877662,10.));
#1930 = DIRECTION('',(-1.,0.,0.));
#1931 = DIRECTION('',(0.,-1.,0.));
#1932 = ADVANCED_FACE('',(#1933),#1952,.F.);
#1933 = FACE_BOUND('',#1934,.T.);
#1934 = EDGE_LOOP('',(#1935,#1936,#1937,#1946));
#1935 = ORIENTED_EDGE('',*,*,#1116,.T.);
#1936 = ORIENTED_EDGE('',*,*,#1898,.T.);
#1937 = ORIENTED_EDGE('',*,*,#1938,.F.);
#1938 = EDGE_CURVE('',#1939,#1891,#1941,.T.);
#1939 = VERTEX_POINT('',#1940);
#1940 = CARTESIAN_POINT('',(2.819152184341,-20.86969824465,1.1));
#1941 = CIRCLE('',#1942,2.);
#1942 = AXIS2_PLACEMENT_3D('',#1943,#1944,#1945);
#1943 = CARTESIAN_POINT('',(2.819152180914,-22.86969824465,1.1));
#1944 = DIRECTION('',(0.,-0.,1.));
#1945 = DIRECTION('',(0.,1.,0.));
#1946 = ORIENTED_EDGE('',*,*,#1947,.F.);
#1947 = EDGE_CURVE('',#1117,#1939,#1948,.T.);
#1948 = LINE('',#1949,#1950);
#1949 = CARTESIAN_POINT('',(2.819152184341,-20.86969824465,10.));
#1950 = VECTOR('',#1951,1.);
#1951 = DIRECTION('',(-0.,-0.,-1.));
#1952 = CYLINDRICAL_SURFACE('',#1953,2.);
#1953 = AXIS2_PLACEMENT_3D('',#1954,#1955,#1956);
#1954 = CARTESIAN_POINT('',(2.819152180914,-22.86969824465,10.));
#1955 = DIRECTION('',(-0.,-0.,-1.));
#1956 = DIRECTION('',(1.71356584273E-09,1.,0.));
#1957 = ADVANCED_FACE('',(#1958),#1977,.F.);
#1958 = FACE_BOUND('',#1959,.F.);
#1959 = EDGE_LOOP('',(#1960,#1961,#1962,#1971));
#1960 = ORIENTED_EDGE('',*,*,#1133,.T.);
#1961 = ORIENTED_EDGE('',*,*,#1913,.T.);
#1962 = ORIENTED_EDGE('',*,*,#1963,.F.);
#1963 = EDGE_CURVE('',#1964,#1914,#1966,.T.);
#1964 = VERTEX_POINT('',#1965);
#1965 = CARTESIAN_POINT('',(311.26084819739,-20.86969877319,1.1));
#1966 = CIRCLE('',#1967,2.);
#1967 = AXIS2_PLACEMENT_3D('',#1968,#1969,#1970);
#1968 = CARTESIAN_POINT('',(311.26084819397,-22.86969877319,1.1));
#1969 = DIRECTION('',(0.,0.,-1.));
#1970 = DIRECTION('',(0.,1.,0.));
#1971 = ORIENTED_EDGE('',*,*,#1972,.F.);
#1972 = EDGE_CURVE('',#1126,#1964,#1973,.T.);
#1973 = LINE('',#1974,#1975);
#1974 = CARTESIAN_POINT('',(311.26084819739,-20.86969877319,10.));
#1975 = VECTOR('',#1976,1.);
#1976 = DIRECTION('',(-0.,-0.,-1.));
#1977 = CYLINDRICAL_SURFACE('',#1978,2.);
#1978 = AXIS2_PLACEMENT_3D('',#1979,#1980,#1981);
#1979 = CARTESIAN_POINT('',(311.26084819397,-22.86969877319,10.));
#1980 = DIRECTION('',(-0.,-0.,-1.));
#1981 = DIRECTION('',(1.71356584273E-09,1.,0.));
#1982 = ADVANCED_FACE('',(#1983,#1994,#2004),#2014,.T.);
#1983 = FACE_BOUND('',#1984,.T.);
#1984 = EDGE_LOOP('',(#1985,#1986,#1987,#1993));
#1985 = ORIENTED_EDGE('',*,*,#1125,.F.);
#1986 = ORIENTED_EDGE('',*,*,#1947,.T.);
#1987 = ORIENTED_EDGE('',*,*,#1988,.T.);
#1988 = EDGE_CURVE('',#1939,#1964,#1989,.T.);
#1989 = LINE('',#1990,#1991);
#1990 = CARTESIAN_POINT('',(0.819152180914,-20.86969824123,1.1));
#1991 = VECTOR('',#1992,1.);
#1992 = DIRECTION('',(1.,-1.71356584273E-09,0.));
#1993 = ORIENTED_EDGE('',*,*,#1972,.F.);
#1994 = FACE_BOUND('',#1995,.T.);
#1995 = EDGE_LOOP('',(#1996,#1997,#1998,#1999,#2000,#2001,#2002,#2003));
#1996 = ORIENTED_EDGE('',*,*,#1548,.F.);
#1997 = ORIENTED_EDGE('',*,*,#1530,.T.);
#1998 = ORIENTED_EDGE('',*,*,#1506,.F.);
#1999 = ORIENTED_EDGE('',*,*,#1481,.T.);
#2000 = ORIENTED_EDGE('',*,*,#1457,.F.);
#2001 = ORIENTED_EDGE('',*,*,#1432,.T.);
#2002 = ORIENTED_EDGE('',*,*,#1408,.F.);
#2003 = ORIENTED_EDGE('',*,*,#1376,.T.);
#2004 = FACE_BOUND('',#2005,.T.);
#2005 = EDGE_LOOP('',(#2006,#2007,#2008,#2009,#2010,#2011,#2012,#2013));
#2006 = ORIENTED_EDGE('',*,*,#1352,.F.);
#2007 = ORIENTED_EDGE('',*,*,#1334,.T.);
#2008 = ORIENTED_EDGE('',*,*,#1310,.F.);
#2009 = ORIENTED_EDGE('',*,*,#1285,.T.);
#2010 = ORIENTED_EDGE('',*,*,#1261,.F.);
#2011 = ORIENTED_EDGE('',*,*,#1236,.T.);
#2012 = ORIENTED_EDGE('',*,*,#1212,.F.);
#2013 = ORIENTED_EDGE('',*,*,#1180,.T.);
#2014 = PLANE('',#2015);
#2015 = AXIS2_PLACEMENT_3D('',#2016,#2017,#2018);
#2016 = CARTESIAN_POINT('',(0.819152180914,-20.86969824123,10.));
#2017 = DIRECTION('',(-1.71356584273E-09,-1.,0.));
#2018 = DIRECTION('',(1.,-1.71356584273E-09,0.));
#2019 = ADVANCED_FACE('',(#2020),#2030,.F.);
#2020 = FACE_BOUND('',#2021,.F.);
#2021 = EDGE_LOOP('',(#2022,#2023,#2024,#2025,#2026,#2027,#2028,#2029));
#2022 = ORIENTED_EDGE('',*,*,#1791,.F.);
#2023 = ORIENTED_EDGE('',*,*,#1582,.F.);
#2024 = ORIENTED_EDGE('',*,*,#1616,.F.);
#2025 = ORIENTED_EDGE('',*,*,#1643,.F.);
#2026 = ORIENTED_EDGE('',*,*,#1677,.F.);
#2027 = ORIENTED_EDGE('',*,*,#1704,.F.);
#2028 = ORIENTED_EDGE('',*,*,#1738,.F.);
#2029 = ORIENTED_EDGE('',*,*,#1765,.F.);
#2030 = PLANE('',#2031);
#2031 = AXIS2_PLACEMENT_3D('',#2032,#2033,#2034);
#2032 = CARTESIAN_POINT('',(140.93794961668,-32.40513496589,-2.));
#2033 = DIRECTION('',(0.,0.,1.));
#2034 = DIRECTION('',(1.,0.,0.));
#2035 = ADVANCED_FACE('',(#2036),#2046,.T.);
#2036 = FACE_BOUND('',#2037,.T.);
#2037 = EDGE_LOOP('',(#2038,#2039,#2040,#2041,#2042,#2043,#2044,#2045));
#2038 = ORIENTED_EDGE('',*,*,#1816,.F.);
#2039 = ORIENTED_EDGE('',*,*,#1865,.F.);
#2040 = ORIENTED_EDGE('',*,*,#1921,.F.);
#2041 = ORIENTED_EDGE('',*,*,#1963,.F.);
#2042 = ORIENTED_EDGE('',*,*,#1988,.F.);
#2043 = ORIENTED_EDGE('',*,*,#1938,.T.);
#2044 = ORIENTED_EDGE('',*,*,#1890,.F.);
#2045 = ORIENTED_EDGE('',*,*,#1847,.F.);
#2046 = PLANE('',#2047);
#2047 = AXIS2_PLACEMENT_3D('',#2048,#2049,#2050);
#2048 = CARTESIAN_POINT('',(157.03999998719,-73.486122,1.1));
#2049 = DIRECTION('',(0.,0.,1.));
#2050 = DIRECTION('',(1.,0.,0.));
#2051 = ( GEOMETRIC_REPRESENTATION_CONTEXT(3) 
GLOBAL_UNCERTAINTY_ASSIGNED_CONTEXT((#2055)) 
GLOBAL_UNIT_ASSIGNED_CONTEXT((#2052,#2053,#2054)) REPRESENTATION_CONTEXT
('Context #1','3D Context with UNIT and UNCERTAINTY') );
#2052 = ( LENGTH_UNIT() NAMED_UNIT(*) SI_UNIT(.MILLI.,.METRE.) );
#2053 = ( NAMED_UNIT(*) PLANE_ANGLE_UNIT() SI_UNIT($,.RADIAN.) );
#2054 = ( NAMED_UNIT(*) SI_UNIT($,.STERADIAN.) SOLID_ANGLE_UNIT() );
#2055 = UNCERTAINTY_MEASURE_WITH_UNIT(LENGTH_MEASURE(1.E-07),#2052,
  'distance_accuracy_value','confusion accuracy');
#2056 = PRODUCT_RELATED_PRODUCT_CATEGORY('part',$,(#7));
#2057 = MECHANICAL_DESIGN_GEOMETRIC_PRESENTATION_REPRESENTATION('',(
    #2058),#2051);
#2058 = STYLED_ITEM('color',(#2059),#15);
#2059 = PRESENTATION_STYLE_ASSIGNMENT((#2060,#2066));
#2060 = SURFACE_STYLE_USAGE(.BOTH.,#2061);
#2061 = SURFACE_SIDE_STYLE('',(#2062));
#2062 = SURFACE_STYLE_FILL_AREA(#2063);
#2063 = FILL_AREA_STYLE('',(#2064));
#2064 = FILL_AREA_STYLE_COLOUR('',#2065);
#2065 = COLOUR_RGB('',0.447058818107,0.474509808674,0.501960817233);
#2066 = CURVE_STYLE('',#2067,POSITIVE_LENGTH_MEASURE(0.1),#2068);
#2067 = DRAUGHTING_PRE_DEFINED_CURVE_FONT('continuous');
#2068 = COLOUR_RGB('',9.803921802644E-02,9.803921802644E-02,
  9.803921802644E-02);
ENDSEC;
END-ISO-10303-21;
