0
SECTION
2
HEADER
9
$INSUNITS
70
4
0
ENDSEC
0
SECTION
2
TABLES
0
TABLE
2
LTYPE
0
LTYPE
72
65
70
64
2
CONTINUOUS
3
______
73
0
40
0
0
ENDTAB
0
TABLE
2
LAYER
0
ENDTAB
0
ENDSEC
0
SECTION
2
ENTITIES
0
LINE
8
0
10
5.40625
20
-2.525
11
18.40625
21
-2.525
0
LINE
8
0
10
5.40625
20
-16.525
11
18.40625
21
-16.525
0
LINE
8
0
10
4.90625
20
-3.025
11
4.90625
21
-16.025
0
LINE
8
0
10
18.90625
20
-3.025
11
18.90625
21
-16.025
0
ARC
8
0
10
5.40625
20
-3.025
40
0.5
50
90
51
180
0
ARC
8
0
10
18.40625
20
-3.025
40
0.5
50
0
51
90
0
ARC
8
0
10
5.40625
20
-16.025
40
0.5
50
180
51
270
0
ARC
8
0
10
18.40625
20
-16.025
40
0.5
50
270
51
0
0
LINE
8
0
10
26.8375
20
-2.525
11
39.8375
21
-2.525
0
LINE
8
0
10
26.8375
20
-16.525
11
39.8375
21
-16.525
0
LINE
8
0
10
26.3375
20
-3.025
11
26.3375
21
-16.025
0
LINE
8
0
10
40.3375
20
-3.025
11
40.3375
21
-16.025
0
ARC
8
0
10
26.8375
20
-3.025
40
0.5
50
90
51
180
0
ARC
8
0
10
39.8375
20
-3.025
40
0.5
50
0
51
90
0
ARC
8
0
10
26.8375
20
-16.025
40
0.5
50
180
51
270
0
ARC
8
0
10
39.8375
20
-16.025
40
0.5
50
270
51
0
0
LINE
8
0
10
45.8875
20
-2.525
11
58.8875
21
-2.525
0
LINE
8
0
10
45.8875
20
-16.525
11
58.8875
21
-16.525
0
LINE
8
0
10
45.3875
20
-3.025
11
45.3875
21
-16.025
0
LINE
8
0
10
59.3875
20
-3.025
11
59.3875
21
-16.025
0
ARC
8
0
10
45.8875
20
-3.025
40
0.5
50
90
51
180
0
ARC
8
0
10
58.8875
20
-3.025
40
0.5
50
0
51
90
0
ARC
8
0
10
45.8875
20
-16.025
40
0.5
50
180
51
270
0
ARC
8
0
10
58.8875
20
-16.025
40
0.5
50
270
51
0
0
LINE
8
0
10
64.9375
20
-2.525
11
77.9375
21
-2.525
0
LINE
8
0
10
64.9375
20
-16.525
11
77.9375
21
-16.525
0
LINE
8
0
10
64.4375
20
-3.025
11
64.4375
21
-16.025
0
LINE
8
0
10
78.4375
20
-3.025
11
78.4375
21
-16.025
0
ARC
8
0
10
64.9375
20
-3.025
40
0.5
50
90
51
180
0
ARC
8
0
10
77.9375
20
-3.025
40
0.5
50
0
51
90
0
ARC
8
0
10
64.9375
20
-16.025
40
0.5
50
180
51
270
0
ARC
8
0
10
77.9375
20
-16.025
40
0.5
50
270
51
0
0
LINE
8
0
10
83.9875
20
-2.525
11
96.9875
21
-2.525
0
LINE
8
0
10
83.9875
20
-16.525
11
96.9875
21
-16.525
0
LINE
8
0
10
83.4875
20
-3.025
11
83.4875
21
-16.025
0
LINE
8
0
10
97.4875
20
-3.025
11
97.4875
21
-16.025
0
ARC
8
0
10
83.9875
20
-3.025
40
0.5
50
90
51
180
0
ARC
8
0
10
96.9875
20
-3.025
40
0.5
50
0
51
90
0
ARC
8
0
10
83.9875
20
-16.025
40
0.5
50
180
51
270
0
ARC
8
0
10
96.9875
20
-16.025
40
0.5
50
270
51
0
0
LINE
8
0
10
103.0375
20
-2.525
11
116.0375
21
-2.525
0
LINE
8
0
10
103.0375
20
-16.525
11
116.0375
21
-16.525
0
LINE
8
0
10
102.5375
20
-3.025
11
102.5375
21
-16.025
0
LINE
8
0
10
116.5375
20
-3.025
11
116.5375
21
-16.025
0
ARC
8
0
10
103.0375
20
-3.025
40
0.5
50
90
51
180
0
ARC
8
0
10
116.0375
20
-3.025
40
0.5
50
0
51
90
0
ARC
8
0
10
103.0375
20
-16.025
40
0.5
50
180
51
270
0
ARC
8
0
10
116.0375
20
-16.025
40
0.5
50
270
51
0
0
LINE
8
0
10
122.0875
20
-2.525
11
135.0875
21
-2.525
0
LINE
8
0
10
122.0875
20
-16.525
11
135.0875
21
-16.525
0
LINE
8
0
10
121.5875
20
-3.025
11
121.5875
21
-16.025
0
LINE
8
0
10
135.5875
20
-3.025
11
135.5875
21
-16.025
0
ARC
8
0
10
122.0875
20
-3.025
40
0.5
50
90
51
180
0
ARC
8
0
10
135.0875
20
-3.025
40
0.5
50
0
51
90
0
ARC
8
0
10
122.0875
20
-16.025
40
0.5
50
180
51
270
0
ARC
8
0
10
135.0875
20
-16.025
40
0.5
50
270
51
0
0
LINE
8
0
10
141.1375
20
-2.525
11
154.1375
21
-2.525
0
LINE
8
0
10
141.1375
20
-16.525
11
154.1375
21
-16.525
0
LINE
8
0
10
140.6375
20
-3.025
11
140.6375
21
-16.025
0
LINE
8
0
10
154.6375
20
-3.025
11
154.6375
21
-16.025
0
ARC
8
0
10
141.1375
20
-3.025
40
0.5
50
90
51
180
0
ARC
8
0
10
154.1375
20
-3.025
40
0.5
50
0
51
90
0
ARC
8
0
10
141.1375
20
-16.025
40
0.5
50
180
51
270
0
ARC
8
0
10
154.1375
20
-16.025
40
0.5
50
270
51
0
0
LINE
8
0
10
160.1875
20
-2.525
11
173.1875
21
-2.525
0
LINE
8
0
10
160.1875
20
-16.525
11
173.1875
21
-16.525
0
LINE
8
0
10
159.6875
20
-3.025
11
159.6875
21
-16.025
0
LINE
8
0
10
173.6875
20
-3.025
11
173.6875
21
-16.025
0
ARC
8
0
10
160.1875
20
-3.025
40
0.5
50
90
51
180
0
ARC
8
0
10
173.1875
20
-3.025
40
0.5
50
0
51
90
0
ARC
8
0
10
160.1875
20
-16.025
40
0.5
50
180
51
270
0
ARC
8
0
10
173.1875
20
-16.025
40
0.5
50
270
51
0
0
LINE
8
0
10
179.2375
20
-2.525
11
192.2375
21
-2.525
0
LINE
8
0
10
179.2375
20
-16.525
11
192.2375
21
-16.525
0
LINE
8
0
10
178.7375
20
-3.025
11
178.7375
21
-16.025
0
LINE
8
0
10
192.7375
20
-3.025
11
192.7375
21
-16.025
0
ARC
8
0
10
179.2375
20
-3.025
40
0.5
50
90
51
180
0
ARC
8
0
10
192.2375
20
-3.025
40
0.5
50
0
51
90
0
ARC
8
0
10
179.2375
20
-16.025
40
0.5
50
180
51
270
0
ARC
8
0
10
192.2375
20
-16.025
40
0.5
50
270
51
0
0
LINE
8
0
10
198.2875
20
-2.525
11
211.2875
21
-2.525
0
LINE
8
0
10
198.2875
20
-16.525
11
211.2875
21
-16.525
0
LINE
8
0
10
197.7875
20
-3.025
11
197.7875
21
-16.025
0
LINE
8
0
10
211.7875
20
-3.025
11
211.7875
21
-16.025
0
ARC
8
0
10
198.2875
20
-3.025
40
0.5
50
90
51
180
0
ARC
8
0
10
211.2875
20
-3.025
40
0.5
50
0
51
90
0
ARC
8
0
10
198.2875
20
-16.025
40
0.5
50
180
51
270
0
ARC
8
0
10
211.2875
20
-16.025
40
0.5
50
270
51
0
0
LINE
8
0
10
217.3375
20
-2.525
11
230.3375
21
-2.525
0
LINE
8
0
10
217.3375
20
-16.525
11
230.3375
21
-16.525
0
LINE
8
0
10
216.8375
20
-3.025
11
216.8375
21
-16.025
0
LINE
8
0
10
230.8375
20
-3.025
11
230.8375
21
-16.025
0
ARC
8
0
10
217.3375
20
-3.025
40
0.5
50
90
51
180
0
ARC
8
0
10
230.3375
20
-3.025
40
0.5
50
0
51
90
0
ARC
8
0
10
217.3375
20
-16.025
40
0.5
50
180
51
270
0
ARC
8
0
10
230.3375
20
-16.025
40
0.5
50
270
51
0
0
LINE
8
0
10
236.3875
20
-2.525
11
249.3875
21
-2.525
0
LINE
8
0
10
236.3875
20
-16.525
11
249.3875
21
-16.525
0
LINE
8
0
10
235.8875
20
-3.025
11
235.8875
21
-16.025
0
LINE
8
0
10
249.8875
20
-3.025
11
249.8875
21
-16.025
0
ARC
8
0
10
236.3875
20
-3.025
40
0.5
50
90
51
180
0
ARC
8
0
10
249.3875
20
-3.025
40
0.5
50
0
51
90
0
ARC
8
0
10
236.3875
20
-16.025
40
0.5
50
180
51
270
0
ARC
8
0
10
249.3875
20
-16.025
40
0.5
50
270
51
0
0
LINE
8
0
10
255.4375
20
-2.525
11
268.4375
21
-2.525
0
LINE
8
0
10
255.4375
20
-16.525
11
268.4375
21
-16.525
0
LINE
8
0
10
254.9375
20
-3.025
11
254.9375
21
-16.025
0
LINE
8
0
10
268.9375
20
-3.025
11
268.9375
21
-16.025
0
ARC
8
0
10
255.4375
20
-3.025
40
0.5
50
90
51
180
0
ARC
8
0
10
268.4375
20
-3.025
40
0.5
50
0
51
90
0
ARC
8
0
10
255.4375
20
-16.025
40
0.5
50
180
51
270
0
ARC
8
0
10
268.4375
20
-16.025
40
0.5
50
270
51
0
0
LINE
8
0
10
284.0125
20
-2.525
11
297.0125
21
-2.525
0
LINE
8
0
10
284.0125
20
-16.525
11
297.0125
21
-16.525
0
LINE
8
0
10
283.5125
20
-3.025
11
283.5125
21
-16.025
0
LINE
8
0
10
297.5125
20
-3.025
11
297.5125
21
-16.025
0
ARC
8
0
10
284.0125
20
-3.025
40
0.5
50
90
51
180
0
ARC
8
0
10
297.0125
20
-3.025
40
0.5
50
0
51
90
0
ARC
8
0
10
284.0125
20
-16.025
40
0.5
50
180
51
270
0
ARC
8
0
10
297.0125
20
-16.025
40
0.5
50
270
51
0
0
LINE
8
0
10
275.5745
20
-3.525
11
281.5745
21
-3.525
0
LINE
8
0
10
275.5745
20
-18.525
11
281.5745
21
-18.525
0
LINE
8
0
10
275.0745
20
-4.025
11
275.0745
21
-18.025
0
LINE
8
0
10
282.0745
20
-4.025
11
282.0745
21
-18.025
0
ARC
8
0
10
275.5745
20
-4.025
40
0.5
50
90
51
180
0
ARC
8
0
10
281.5745
20
-4.025
40
0.5
50
0
51
90
0
ARC
8
0
10
275.5745
20
-18.025
40
0.5
50
180
51
270
0
ARC
8
0
10
281.5745
20
-18.025
40
0.5
50
270
51
0
0
LINE
8
0
10
299.4505
20
-3.525
11
305.4505
21
-3.525
0
LINE
8
0
10
299.4505
20
-18.525
11
305.4505
21
-18.525
0
LINE
8
0
10
298.9505
20
-4.025
11
298.9505
21
-18.025
0
LINE
8
0
10
305.9505
20
-4.025
11
305.9505
21
-18.025
0
ARC
8
0
10
299.4505
20
-4.025
40
0.5
50
90
51
180
0
ARC
8
0
10
305.4505
20
-4.025
40
0.5
50
0
51
90
0
ARC
8
0
10
299.4505
20
-18.025
40
0.5
50
180
51
270
0
ARC
8
0
10
305.4505
20
-18.025
40
0.5
50
270
51
0
0
LINE
8
0
10
10.16875
20
-21.575
11
23.16875
21
-21.575
0
LINE
8
0
10
10.16875
20
-35.575
11
23.16875
21
-35.575
0
LINE
8
0
10
9.66875
20
-22.075
11
9.66875
21
-35.075
0
LINE
8
0
10
23.66875
20
-22.075
11
23.66875
21
-35.075
0
ARC
8
0
10
10.16875
20
-22.075
40
0.5
50
90
51
180
0
ARC
8
0
10
23.16875
20
-22.075
40
0.5
50
0
51
90
0
ARC
8
0
10
10.16875
20
-35.075
40
0.5
50
180
51
270
0
ARC
8
0
10
23.16875
20
-35.075
40
0.5
50
270
51
0
0
LINE
8
0
10
36.3625
20
-21.575
11
49.3625
21
-21.575
0
LINE
8
0
10
36.3625
20
-35.575
11
49.3625
21
-35.575
0
LINE
8
0
10
35.8625
20
-22.075
11
35.8625
21
-35.075
0
LINE
8
0
10
49.8625
20
-22.075
11
49.8625
21
-35.075
0
ARC
8
0
10
36.3625
20
-22.075
40
0.5
50
90
51
180
0
ARC
8
0
10
49.3625
20
-22.075
40
0.5
50
0
51
90
0
ARC
8
0
10
36.3625
20
-35.075
40
0.5
50
180
51
270
0
ARC
8
0
10
49.3625
20
-35.075
40
0.5
50
270
51
0
0
LINE
8
0
10
55.4125
20
-21.575
11
68.4125
21
-21.575
0
LINE
8
0
10
55.4125
20
-35.575
11
68.4125
21
-35.575
0
LINE
8
0
10
54.9125
20
-22.075
11
54.9125
21
-35.075
0
LINE
8
0
10
68.9125
20
-22.075
11
68.9125
21
-35.075
0
ARC
8
0
10
55.4125
20
-22.075
40
0.5
50
90
51
180
0
ARC
8
0
10
68.4125
20
-22.075
40
0.5
50
0
51
90
0
ARC
8
0
10
55.4125
20
-35.075
40
0.5
50
180
51
270
0
ARC
8
0
10
68.4125
20
-35.075
40
0.5
50
270
51
0
0
LINE
8
0
10
74.4625
20
-21.575
11
87.4625
21
-21.575
0
LINE
8
0
10
74.4625
20
-35.575
11
87.4625
21
-35.575
0
LINE
8
0
10
73.9625
20
-22.075
11
73.9625
21
-35.075
0
LINE
8
0
10
87.9625
20
-22.075
11
87.9625
21
-35.075
0
ARC
8
0
10
74.4625
20
-22.075
40
0.5
50
90
51
180
0
ARC
8
0
10
87.4625
20
-22.075
40
0.5
50
0
51
90
0
ARC
8
0
10
74.4625
20
-35.075
40
0.5
50
180
51
270
0
ARC
8
0
10
87.4625
20
-35.075
40
0.5
50
270
51
0
0
LINE
8
0
10
93.5125
20
-21.575
11
106.5125
21
-21.575
0
LINE
8
0
10
93.5125
20
-35.575
11
106.5125
21
-35.575
0
LINE
8
0
10
93.0125
20
-22.075
11
93.0125
21
-35.075
0
LINE
8
0
10
107.0125
20
-22.075
11
107.0125
21
-35.075
0
ARC
8
0
10
93.5125
20
-22.075
40
0.5
50
90
51
180
0
ARC
8
0
10
106.5125
20
-22.075
40
0.5
50
0
51
90
0
ARC
8
0
10
93.5125
20
-35.075
40
0.5
50
180
51
270
0
ARC
8
0
10
106.5125
20
-35.075
40
0.5
50
270
51
0
0
LINE
8
0
10
112.5625
20
-21.575
11
125.5625
21
-21.575
0
LINE
8
0
10
112.5625
20
-35.575
11
125.5625
21
-35.575
0
LINE
8
0
10
112.0625
20
-22.075
11
112.0625
21
-35.075
0
LINE
8
0
10
126.0625
20
-22.075
11
126.0625
21
-35.075
0
ARC
8
0
10
112.5625
20
-22.075
40
0.5
50
90
51
180
0
ARC
8
0
10
125.5625
20
-22.075
40
0.5
50
0
51
90
0
ARC
8
0
10
112.5625
20
-35.075
40
0.5
50
180
51
270
0
ARC
8
0
10
125.5625
20
-35.075
40
0.5
50
270
51
0
0
LINE
8
0
10
131.6125
20
-21.575
11
144.6125
21
-21.575
0
LINE
8
0
10
131.6125
20
-35.575
11
144.6125
21
-35.575
0
LINE
8
0
10
131.1125
20
-22.075
11
131.1125
21
-35.075
0
LINE
8
0
10
145.1125
20
-22.075
11
145.1125
21
-35.075
0
ARC
8
0
10
131.6125
20
-22.075
40
0.5
50
90
51
180
0
ARC
8
0
10
144.6125
20
-22.075
40
0.5
50
0
51
90
0
ARC
8
0
10
131.6125
20
-35.075
40
0.5
50
180
51
270
0
ARC
8
0
10
144.6125
20
-35.075
40
0.5
50
270
51
0
0
LINE
8
0
10
150.6625
20
-21.575
11
163.6625
21
-21.575
0
LINE
8
0
10
150.6625
20
-35.575
11
163.6625
21
-35.575
0
LINE
8
0
10
150.1625
20
-22.075
11
150.1625
21
-35.075
0
LINE
8
0
10
164.1625
20
-22.075
11
164.1625
21
-35.075
0
ARC
8
0
10
150.6625
20
-22.075
40
0.5
50
90
51
180
0
ARC
8
0
10
163.6625
20
-22.075
40
0.5
50
0
51
90
0
ARC
8
0
10
150.6625
20
-35.075
40
0.5
50
180
51
270
0
ARC
8
0
10
163.6625
20
-35.075
40
0.5
50
270
51
0
0
LINE
8
0
10
169.7125
20
-21.575
11
182.7125
21
-21.575
0
LINE
8
0
10
169.7125
20
-35.575
11
182.7125
21
-35.575
0
LINE
8
0
10
169.2125
20
-22.075
11
169.2125
21
-35.075
0
LINE
8
0
10
183.2125
20
-22.075
11
183.2125
21
-35.075
0
ARC
8
0
10
169.7125
20
-22.075
40
0.5
50
90
51
180
0
ARC
8
0
10
182.7125
20
-22.075
40
0.5
50
0
51
90
0
ARC
8
0
10
169.7125
20
-35.075
40
0.5
50
180
51
270
0
ARC
8
0
10
182.7125
20
-35.075
40
0.5
50
270
51
0
0
LINE
8
0
10
188.7625
20
-21.575
11
201.7625
21
-21.575
0
LINE
8
0
10
188.7625
20
-35.575
11
201.7625
21
-35.575
0
LINE
8
0
10
188.2625
20
-22.075
11
188.2625
21
-35.075
0
LINE
8
0
10
202.2625
20
-22.075
11
202.2625
21
-35.075
0
ARC
8
0
10
188.7625
20
-22.075
40
0.5
50
90
51
180
0
ARC
8
0
10
201.7625
20
-22.075
40
0.5
50
0
51
90
0
ARC
8
0
10
188.7625
20
-35.075
40
0.5
50
180
51
270
0
ARC
8
0
10
201.7625
20
-35.075
40
0.5
50
270
51
0
0
LINE
8
0
10
207.8125
20
-21.575
11
220.8125
21
-21.575
0
LINE
8
0
10
207.8125
20
-35.575
11
220.8125
21
-35.575
0
LINE
8
0
10
207.3125
20
-22.075
11
207.3125
21
-35.075
0
LINE
8
0
10
221.3125
20
-22.075
11
221.3125
21
-35.075
0
ARC
8
0
10
207.8125
20
-22.075
40
0.5
50
90
51
180
0
ARC
8
0
10
220.8125
20
-22.075
40
0.5
50
0
51
90
0
ARC
8
0
10
207.8125
20
-35.075
40
0.5
50
180
51
270
0
ARC
8
0
10
220.8125
20
-35.075
40
0.5
50
270
51
0
0
LINE
8
0
10
226.8625
20
-21.575
11
239.8625
21
-21.575
0
LINE
8
0
10
226.8625
20
-35.575
11
239.8625
21
-35.575
0
LINE
8
0
10
226.3625
20
-22.075
11
226.3625
21
-35.075
0
LINE
8
0
10
240.3625
20
-22.075
11
240.3625
21
-35.075
0
ARC
8
0
10
226.8625
20
-22.075
40
0.5
50
90
51
180
0
ARC
8
0
10
239.8625
20
-22.075
40
0.5
50
0
51
90
0
ARC
8
0
10
226.8625
20
-35.075
40
0.5
50
180
51
270
0
ARC
8
0
10
239.8625
20
-35.075
40
0.5
50
270
51
0
0
LINE
8
0
10
245.9125
20
-21.575
11
258.9125
21
-21.575
0
LINE
8
0
10
245.9125
20
-35.575
11
258.9125
21
-35.575
0
LINE
8
0
10
245.4125
20
-22.075
11
245.4125
21
-35.075
0
LINE
8
0
10
259.4125
20
-22.075
11
259.4125
21
-35.075
0
ARC
8
0
10
245.9125
20
-22.075
40
0.5
50
90
51
180
0
ARC
8
0
10
258.9125
20
-22.075
40
0.5
50
0
51
90
0
ARC
8
0
10
245.9125
20
-35.075
40
0.5
50
180
51
270
0
ARC
8
0
10
258.9125
20
-35.075
40
0.5
50
270
51
0
0
LINE
8
0
10
267.34375
20
-21.575
11
280.34375
21
-21.575
0
LINE
8
0
10
267.34375
20
-35.575
11
280.34375
21
-35.575
0
LINE
8
0
10
266.84375
20
-22.075
11
266.84375
21
-35.075
0
LINE
8
0
10
280.84375
20
-22.075
11
280.84375
21
-35.075
0
ARC
8
0
10
267.34375
20
-22.075
40
0.5
50
90
51
180
0
ARC
8
0
10
280.34375
20
-22.075
40
0.5
50
0
51
90
0
ARC
8
0
10
267.34375
20
-35.075
40
0.5
50
180
51
270
0
ARC
8
0
10
280.34375
20
-35.075
40
0.5
50
270
51
0
0
LINE
8
0
10
322.1125
20
-26.3375
11
335.1125
21
-26.3375
0
LINE
8
0
10
322.1125
20
-40.3375
11
335.1125
21
-40.3375
0
LINE
8
0
10
321.6125
20
-26.8375
11
321.6125
21
-39.8375
0
LINE
8
0
10
335.6125
20
-26.8375
11
335.6125
21
-39.8375
0
ARC
8
0
10
322.1125
20
-26.8375
40
0.5
50
90
51
180
0
ARC
8
0
10
335.1125
20
-26.8375
40
0.5
50
0
51
90
0
ARC
8
0
10
322.1125
20
-39.8375
40
0.5
50
180
51
270
0
ARC
8
0
10
335.1125
20
-39.8375
40
0.5
50
270
51
0
0
LINE
8
0
10
12.55
20
-40.625
11
25.55
21
-40.625
0
LINE
8
0
10
12.55
20
-54.625
11
25.55
21
-54.625
0
LINE
8
0
10
12.05
20
-41.125
11
12.05
21
-54.125
0
LINE
8
0
10
26.05
20
-41.125
11
26.05
21
-54.125
0
ARC
8
0
10
12.55
20
-41.125
40
0.5
50
90
51
180
0
ARC
8
0
10
25.55
20
-41.125
40
0.5
50
0
51
90
0
ARC
8
0
10
12.55
20
-54.125
40
0.5
50
180
51
270
0
ARC
8
0
10
25.55
20
-54.125
40
0.5
50
270
51
0
0
LINE
8
0
10
4.112
20
-41.625
11
10.112
21
-41.625
0
LINE
8
0
10
4.112
20
-56.625
11
10.112
21
-56.625
0
LINE
8
0
10
3.612
20
-42.125
11
3.612
21
-56.125
0
LINE
8
0
10
10.612
20
-42.125
11
10.612
21
-56.125
0
ARC
8
0
10
4.112
20
-42.125
40
0.5
50
90
51
180
0
ARC
8
0
10
10.112
20
-42.125
40
0.5
50
0
51
90
0
ARC
8
0
10
4.112
20
-56.125
40
0.5
50
180
51
270
0
ARC
8
0
10
10.112
20
-56.125
40
0.5
50
270
51
0
0
LINE
8
0
10
27.988
20
-41.625
11
33.988
21
-41.625
0
LINE
8
0
10
27.988
20
-56.625
11
33.988
21
-56.625
0
LINE
8
0
10
27.488
20
-42.125
11
27.488
21
-56.125
0
LINE
8
0
10
34.488
20
-42.125
11
34.488
21
-56.125
0
ARC
8
0
10
27.988
20
-42.125
40
0.5
50
90
51
180
0
ARC
8
0
10
33.988
20
-42.125
40
0.5
50
0
51
90
0
ARC
8
0
10
27.988
20
-56.125
40
0.5
50
180
51
270
0
ARC
8
0
10
33.988
20
-56.125
40
0.5
50
270
51
0
0
LINE
8
0
10
41.125
20
-40.625
11
54.125
21
-40.625
0
LINE
8
0
10
41.125
20
-54.625
11
54.125
21
-54.625
0
LINE
8
0
10
40.625
20
-41.125
11
40.625
21
-54.125
0
LINE
8
0
10
54.625
20
-41.125
11
54.625
21
-54.125
0
ARC
8
0
10
41.125
20
-41.125
40
0.5
50
90
51
180
0
ARC
8
0
10
54.125
20
-41.125
40
0.5
50
0
51
90
0
ARC
8
0
10
41.125
20
-54.125
40
0.5
50
180
51
270
0
ARC
8
0
10
54.125
20
-54.125
40
0.5
50
270
51
0
0
LINE
8
0
10
60.175
20
-40.625
11
73.175
21
-40.625
0
LINE
8
0
10
60.175
20
-54.625
11
73.175
21
-54.625
0
LINE
8
0
10
59.675
20
-41.125
11
59.675
21
-54.125
0
LINE
8
0
10
73.675
20
-41.125
11
73.675
21
-54.125
0
ARC
8
0
10
60.175
20
-41.125
40
0.5
50
90
51
180
0
ARC
8
0
10
73.175
20
-41.125
40
0.5
50
0
51
90
0
ARC
8
0
10
60.175
20
-54.125
40
0.5
50
180
51
270
0
ARC
8
0
10
73.175
20
-54.125
40
0.5
50
270
51
0
0
LINE
8
0
10
79.225
20
-40.625
11
92.225
21
-40.625
0
LINE
8
0
10
79.225
20
-54.625
11
92.225
21
-54.625
0
LINE
8
0
10
78.725
20
-41.125
11
78.725
21
-54.125
0
LINE
8
0
10
92.725
20
-41.125
11
92.725
21
-54.125
0
ARC
8
0
10
79.225
20
-41.125
40
0.5
50
90
51
180
0
ARC
8
0
10
92.225
20
-41.125
40
0.5
50
0
51
90
0
ARC
8
0
10
79.225
20
-54.125
40
0.5
50
180
51
270
0
ARC
8
0
10
92.225
20
-54.125
40
0.5
50
270
51
0
0
LINE
8
0
10
98.275
20
-40.625
11
111.275
21
-40.625
0
LINE
8
0
10
98.275
20
-54.625
11
111.275
21
-54.625
0
LINE
8
0
10
97.775
20
-41.125
11
97.775
21
-54.125
0
LINE
8
0
10
111.775
20
-41.125
11
111.775
21
-54.125
0
ARC
8
0
10
98.275
20
-41.125
40
0.5
50
90
51
180
0
ARC
8
0
10
111.275
20
-41.125
40
0.5
50
0
51
90
0
ARC
8
0
10
98.275
20
-54.125
40
0.5
50
180
51
270
0
ARC
8
0
10
111.275
20
-54.125
40
0.5
50
270
51
0
0
LINE
8
0
10
117.325
20
-40.625
11
130.325
21
-40.625
0
LINE
8
0
10
117.325
20
-54.625
11
130.325
21
-54.625
0
LINE
8
0
10
116.825
20
-41.125
11
116.825
21
-54.125
0
LINE
8
0
10
130.825
20
-41.125
11
130.825
21
-54.125
0
ARC
8
0
10
117.325
20
-41.125
40
0.5
50
90
51
180
0
ARC
8
0
10
130.325
20
-41.125
40
0.5
50
0
51
90
0
ARC
8
0
10
117.325
20
-54.125
40
0.5
50
180
51
270
0
ARC
8
0
10
130.325
20
-54.125
40
0.5
50
270
51
0
0
LINE
8
0
10
136.375
20
-40.625
11
149.375
21
-40.625
0
LINE
8
0
10
136.375
20
-54.625
11
149.375
21
-54.625
0
LINE
8
0
10
135.875
20
-41.125
11
135.875
21
-54.125
0
LINE
8
0
10
149.875
20
-41.125
11
149.875
21
-54.125
0
ARC
8
0
10
136.375
20
-41.125
40
0.5
50
90
51
180
0
ARC
8
0
10
149.375
20
-41.125
40
0.5
50
0
51
90
0
ARC
8
0
10
136.375
20
-54.125
40
0.5
50
180
51
270
0
ARC
8
0
10
149.375
20
-54.125
40
0.5
50
270
51
0
0
LINE
8
0
10
155.425
20
-40.625
11
168.425
21
-40.625
0
LINE
8
0
10
155.425
20
-54.625
11
168.425
21
-54.625
0
LINE
8
0
10
154.925
20
-41.125
11
154.925
21
-54.125
0
LINE
8
0
10
168.925
20
-41.125
11
168.925
21
-54.125
0
ARC
8
0
10
155.425
20
-41.125
40
0.5
50
90
51
180
0
ARC
8
0
10
168.425
20
-41.125
40
0.5
50
0
51
90
0
ARC
8
0
10
155.425
20
-54.125
40
0.5
50
180
51
270
0
ARC
8
0
10
168.425
20
-54.125
40
0.5
50
270
51
0
0
LINE
8
0
10
174.475
20
-40.625
11
187.475
21
-40.625
0
LINE
8
0
10
174.475
20
-54.625
11
187.475
21
-54.625
0
LINE
8
0
10
173.975
20
-41.125
11
173.975
21
-54.125
0
LINE
8
0
10
187.975
20
-41.125
11
187.975
21
-54.125
0
ARC
8
0
10
174.475
20
-41.125
40
0.5
50
90
51
180
0
ARC
8
0
10
187.475
20
-41.125
40
0.5
50
0
51
90
0
ARC
8
0
10
174.475
20
-54.125
40
0.5
50
180
51
270
0
ARC
8
0
10
187.475
20
-54.125
40
0.5
50
270
51
0
0
LINE
8
0
10
193.525
20
-40.625
11
206.525
21
-40.625
0
LINE
8
0
10
193.525
20
-54.625
11
206.525
21
-54.625
0
LINE
8
0
10
193.025
20
-41.125
11
193.025
21
-54.125
0
LINE
8
0
10
207.025
20
-41.125
11
207.025
21
-54.125
0
ARC
8
0
10
193.525
20
-41.125
40
0.5
50
90
51
180
0
ARC
8
0
10
206.525
20
-41.125
40
0.5
50
0
51
90
0
ARC
8
0
10
193.525
20
-54.125
40
0.5
50
180
51
270
0
ARC
8
0
10
206.525
20
-54.125
40
0.5
50
270
51
0
0
LINE
8
0
10
212.575
20
-40.625
11
225.575
21
-40.625
0
LINE
8
0
10
212.575
20
-54.625
11
225.575
21
-54.625
0
LINE
8
0
10
212.075
20
-41.125
11
212.075
21
-54.125
0
LINE
8
0
10
226.075
20
-41.125
11
226.075
21
-54.125
0
ARC
8
0
10
212.575
20
-41.125
40
0.5
50
90
51
180
0
ARC
8
0
10
225.575
20
-41.125
40
0.5
50
0
51
90
0
ARC
8
0
10
212.575
20
-54.125
40
0.5
50
180
51
270
0
ARC
8
0
10
225.575
20
-54.125
40
0.5
50
270
51
0
0
LINE
8
0
10
231.625
20
-40.625
11
244.625
21
-40.625
0
LINE
8
0
10
231.625
20
-54.625
11
244.625
21
-54.625
0
LINE
8
0
10
231.125
20
-41.125
11
231.125
21
-54.125
0
LINE
8
0
10
245.125
20
-41.125
11
245.125
21
-54.125
0
ARC
8
0
10
231.625
20
-41.125
40
0.5
50
90
51
180
0
ARC
8
0
10
244.625
20
-41.125
40
0.5
50
0
51
90
0
ARC
8
0
10
231.625
20
-54.125
40
0.5
50
180
51
270
0
ARC
8
0
10
244.625
20
-54.125
40
0.5
50
270
51
0
0
LINE
8
0
10
260.2
20
-40.625
11
273.2
21
-40.625
0
LINE
8
0
10
260.2
20
-54.625
11
273.2
21
-54.625
0
LINE
8
0
10
259.7
20
-41.125
11
259.7
21
-54.125
0
LINE
8
0
10
273.7
20
-41.125
11
273.7
21
-54.125
0
ARC
8
0
10
260.2
20
-41.125
40
0.5
50
90
51
180
0
ARC
8
0
10
273.2
20
-41.125
40
0.5
50
0
51
90
0
ARC
8
0
10
260.2
20
-54.125
40
0.5
50
180
51
270
0
ARC
8
0
10
273.2
20
-54.125
40
0.5
50
270
51
0
0
LINE
8
0
10
251.762
20
-41.625
11
257.762
21
-41.625
0
LINE
8
0
10
251.762
20
-56.625
11
257.762
21
-56.625
0
LINE
8
0
10
251.262
20
-42.125
11
251.262
21
-56.125
0
LINE
8
0
10
258.262
20
-42.125
11
258.262
21
-56.125
0
ARC
8
0
10
251.762
20
-42.125
40
0.5
50
90
51
180
0
ARC
8
0
10
257.762
20
-42.125
40
0.5
50
0
51
90
0
ARC
8
0
10
251.762
20
-56.125
40
0.5
50
180
51
270
0
ARC
8
0
10
257.762
20
-56.125
40
0.5
50
270
51
0
0
LINE
8
0
10
275.638
20
-41.625
11
281.638
21
-41.625
0
LINE
8
0
10
275.638
20
-56.625
11
281.638
21
-56.625
0
LINE
8
0
10
275.138
20
-42.125
11
275.138
21
-56.125
0
LINE
8
0
10
282.138
20
-42.125
11
282.138
21
-56.125
0
ARC
8
0
10
275.638
20
-42.125
40
0.5
50
90
51
180
0
ARC
8
0
10
281.638
20
-42.125
40
0.5
50
0
51
90
0
ARC
8
0
10
275.638
20
-56.125
40
0.5
50
180
51
270
0
ARC
8
0
10
281.638
20
-56.125
40
0.5
50
270
51
0
0
LINE
8
0
10
303.0625
20
-45.3875
11
316.0625
21
-45.3875
0
LINE
8
0
10
303.0625
20
-59.3875
11
316.0625
21
-59.3875
0
LINE
8
0
10
302.5625
20
-45.8875
11
302.5625
21
-58.8875
0
LINE
8
0
10
316.5625
20
-45.8875
11
316.5625
21
-58.8875
0
ARC
8
0
10
303.0625
20
-45.8875
40
0.5
50
90
51
180
0
ARC
8
0
10
316.0625
20
-45.8875
40
0.5
50
0
51
90
0
ARC
8
0
10
303.0625
20
-58.8875
40
0.5
50
180
51
270
0
ARC
8
0
10
316.0625
20
-58.8875
40
0.5
50
270
51
0
0
LINE
8
0
10
17.3125
20
-59.675
11
30.3125
21
-59.675
0
LINE
8
0
10
17.3125
20
-73.675
11
30.3125
21
-73.675
0
LINE
8
0
10
16.8125
20
-60.175
11
16.8125
21
-73.175
0
LINE
8
0
10
30.8125
20
-60.175
11
30.8125
21
-73.175
0
ARC
8
0
10
17.3125
20
-60.175
40
0.5
50
90
51
180
0
ARC
8
0
10
30.3125
20
-60.175
40
0.5
50
0
51
90
0
ARC
8
0
10
17.3125
20
-73.175
40
0.5
50
180
51
270
0
ARC
8
0
10
30.3125
20
-73.175
40
0.5
50
270
51
0
0
LINE
8
0
10
8.8745
20
-60.675
11
14.8745
21
-60.675
0
LINE
8
0
10
8.8745
20
-75.675
11
14.8745
21
-75.675
0
LINE
8
0
10
8.3745
20
-61.175
11
8.3745
21
-75.175
0
LINE
8
0
10
15.3745
20
-61.175
11
15.3745
21
-75.175
0
ARC
8
0
10
8.8745
20
-61.175
40
0.5
50
90
51
180
0
ARC
8
0
10
14.8745
20
-61.175
40
0.5
50
0
51
90
0
ARC
8
0
10
8.8745
20
-75.175
40
0.5
50
180
51
270
0
ARC
8
0
10
14.8745
20
-75.175
40
0.5
50
270
51
0
0
LINE
8
0
10
32.7505
20
-60.675
11
38.7505
21
-60.675
0
LINE
8
0
10
32.7505
20
-75.675
11
38.7505
21
-75.675
0
LINE
8
0
10
32.2505
20
-61.175
11
32.2505
21
-75.175
0
LINE
8
0
10
39.2505
20
-61.175
11
39.2505
21
-75.175
0
ARC
8
0
10
32.7505
20
-61.175
40
0.5
50
90
51
180
0
ARC
8
0
10
38.7505
20
-61.175
40
0.5
50
0
51
90
0
ARC
8
0
10
32.7505
20
-75.175
40
0.5
50
180
51
270
0
ARC
8
0
10
38.7505
20
-75.175
40
0.5
50
270
51
0
0
LINE
8
0
10
50.65
20
-59.675
11
63.65
21
-59.675
0
LINE
8
0
10
50.65
20
-73.675
11
63.65
21
-73.675
0
LINE
8
0
10
50.15
20
-60.175
11
50.15
21
-73.175
0
LINE
8
0
10
64.15
20
-60.175
11
64.15
21
-73.175
0
ARC
8
0
10
50.65
20
-60.175
40
0.5
50
90
51
180
0
ARC
8
0
10
63.65
20
-60.175
40
0.5
50
0
51
90
0
ARC
8
0
10
50.65
20
-73.175
40
0.5
50
180
51
270
0
ARC
8
0
10
63.65
20
-73.175
40
0.5
50
270
51
0
0
LINE
8
0
10
69.7
20
-59.675
11
82.7
21
-59.675
0
LINE
8
0
10
69.7
20
-73.675
11
82.7
21
-73.675
0
LINE
8
0
10
69.2
20
-60.175
11
69.2
21
-73.175
0
LINE
8
0
10
83.2
20
-60.175
11
83.2
21
-73.175
0
ARC
8
0
10
69.7
20
-60.175
40
0.5
50
90
51
180
0
ARC
8
0
10
82.7
20
-60.175
40
0.5
50
0
51
90
0
ARC
8
0
10
69.7
20
-73.175
40
0.5
50
180
51
270
0
ARC
8
0
10
82.7
20
-73.175
40
0.5
50
270
51
0
0
LINE
8
0
10
88.75
20
-59.675
11
101.75
21
-59.675
0
LINE
8
0
10
88.75
20
-73.675
11
101.75
21
-73.675
0
LINE
8
0
10
88.25
20
-60.175
11
88.25
21
-73.175
0
LINE
8
0
10
102.25
20
-60.175
11
102.25
21
-73.175
0
ARC
8
0
10
88.75
20
-60.175
40
0.5
50
90
51
180
0
ARC
8
0
10
101.75
20
-60.175
40
0.5
50
0
51
90
0
ARC
8
0
10
88.75
20
-73.175
40
0.5
50
180
51
270
0
ARC
8
0
10
101.75
20
-73.175
40
0.5
50
270
51
0
0
LINE
8
0
10
107.8
20
-59.675
11
120.8
21
-59.675
0
LINE
8
0
10
107.8
20
-73.675
11
120.8
21
-73.675
0
LINE
8
0
10
107.3
20
-60.175
11
107.3
21
-73.175
0
LINE
8
0
10
121.3
20
-60.175
11
121.3
21
-73.175
0
ARC
8
0
10
107.8
20
-60.175
40
0.5
50
90
51
180
0
ARC
8
0
10
120.8
20
-60.175
40
0.5
50
0
51
90
0
ARC
8
0
10
107.8
20
-73.175
40
0.5
50
180
51
270
0
ARC
8
0
10
120.8
20
-73.175
40
0.5
50
270
51
0
0
LINE
8
0
10
126.85
20
-59.675
11
139.85
21
-59.675
0
LINE
8
0
10
126.85
20
-73.675
11
139.85
21
-73.675
0
LINE
8
0
10
126.35
20
-60.175
11
126.35
21
-73.175
0
LINE
8
0
10
140.35
20
-60.175
11
140.35
21
-73.175
0
ARC
8
0
10
126.85
20
-60.175
40
0.5
50
90
51
180
0
ARC
8
0
10
139.85
20
-60.175
40
0.5
50
0
51
90
0
ARC
8
0
10
126.85
20
-73.175
40
0.5
50
180
51
270
0
ARC
8
0
10
139.85
20
-73.175
40
0.5
50
270
51
0
0
LINE
8
0
10
145.9
20
-59.675
11
158.9
21
-59.675
0
LINE
8
0
10
145.9
20
-73.675
11
158.9
21
-73.675
0
LINE
8
0
10
145.4
20
-60.175
11
145.4
21
-73.175
0
LINE
8
0
10
159.4
20
-60.175
11
159.4
21
-73.175
0
ARC
8
0
10
145.9
20
-60.175
40
0.5
50
90
51
180
0
ARC
8
0
10
158.9
20
-60.175
40
0.5
50
0
51
90
0
ARC
8
0
10
145.9
20
-73.175
40
0.5
50
180
51
270
0
ARC
8
0
10
158.9
20
-73.175
40
0.5
50
270
51
0
0
LINE
8
0
10
164.95
20
-59.675
11
177.95
21
-59.675
0
LINE
8
0
10
164.95
20
-73.675
11
177.95
21
-73.675
0
LINE
8
0
10
164.45
20
-60.175
11
164.45
21
-73.175
0
LINE
8
0
10
178.45
20
-60.175
11
178.45
21
-73.175
0
ARC
8
0
10
164.95
20
-60.175
40
0.5
50
90
51
180
0
ARC
8
0
10
177.95
20
-60.175
40
0.5
50
0
51
90
0
ARC
8
0
10
164.95
20
-73.175
40
0.5
50
180
51
270
0
ARC
8
0
10
177.95
20
-73.175
40
0.5
50
270
51
0
0
LINE
8
0
10
184
20
-59.675
11
197
21
-59.675
0
LINE
8
0
10
184
20
-73.675
11
197
21
-73.675
0
LINE
8
0
10
183.5
20
-60.175
11
183.5
21
-73.175
0
LINE
8
0
10
197.5
20
-60.175
11
197.5
21
-73.175
0
ARC
8
0
10
184
20
-60.175
40
0.5
50
90
51
180
0
ARC
8
0
10
197
20
-60.175
40
0.5
50
0
51
90
0
ARC
8
0
10
184
20
-73.175
40
0.5
50
180
51
270
0
ARC
8
0
10
197
20
-73.175
40
0.5
50
270
51
0
0
LINE
8
0
10
203.05
20
-59.675
11
216.05
21
-59.675
0
LINE
8
0
10
203.05
20
-73.675
11
216.05
21
-73.675
0
LINE
8
0
10
202.55
20
-60.175
11
202.55
21
-73.175
0
LINE
8
0
10
216.55
20
-60.175
11
216.55
21
-73.175
0
ARC
8
0
10
203.05
20
-60.175
40
0.5
50
90
51
180
0
ARC
8
0
10
216.05
20
-60.175
40
0.5
50
0
51
90
0
ARC
8
0
10
203.05
20
-73.175
40
0.5
50
180
51
270
0
ARC
8
0
10
216.05
20
-73.175
40
0.5
50
270
51
0
0
LINE
8
0
10
222.1
20
-59.675
11
235.1
21
-59.675
0
LINE
8
0
10
222.1
20
-73.675
11
235.1
21
-73.675
0
LINE
8
0
10
221.6
20
-60.175
11
221.6
21
-73.175
0
LINE
8
0
10
235.6
20
-60.175
11
235.6
21
-73.175
0
ARC
8
0
10
222.1
20
-60.175
40
0.5
50
90
51
180
0
ARC
8
0
10
235.1
20
-60.175
40
0.5
50
0
51
90
0
ARC
8
0
10
222.1
20
-73.175
40
0.5
50
180
51
270
0
ARC
8
0
10
235.1
20
-73.175
40
0.5
50
270
51
0
0
LINE
8
0
10
250.675
20
-59.675
11
263.675
21
-59.675
0
LINE
8
0
10
250.675
20
-73.675
11
263.675
21
-73.675
0
LINE
8
0
10
250.175
20
-60.175
11
250.175
21
-73.175
0
LINE
8
0
10
264.175
20
-60.175
11
264.175
21
-73.175
0
ARC
8
0
10
250.675
20
-60.175
40
0.5
50
90
51
180
0
ARC
8
0
10
263.675
20
-60.175
40
0.5
50
0
51
90
0
ARC
8
0
10
250.675
20
-73.175
40
0.5
50
180
51
270
0
ARC
8
0
10
263.675
20
-73.175
40
0.5
50
270
51
0
0
LINE
8
0
10
242.237
20
-60.675
11
248.237
21
-60.675
0
LINE
8
0
10
242.237
20
-75.675
11
248.237
21
-75.675
0
LINE
8
0
10
241.737
20
-61.175
11
241.737
21
-75.175
0
LINE
8
0
10
248.737
20
-61.175
11
248.737
21
-75.175
0
ARC
8
0
10
242.237
20
-61.175
40
0.5
50
90
51
180
0
ARC
8
0
10
248.237
20
-61.175
40
0.5
50
0
51
90
0
ARC
8
0
10
242.237
20
-75.175
40
0.5
50
180
51
270
0
ARC
8
0
10
248.237
20
-75.175
40
0.5
50
270
51
0
0
LINE
8
0
10
266.113
20
-60.675
11
272.113
21
-60.675
0
LINE
8
0
10
266.113
20
-75.675
11
272.113
21
-75.675
0
LINE
8
0
10
265.613
20
-61.175
11
265.613
21
-75.175
0
LINE
8
0
10
272.613
20
-61.175
11
272.613
21
-75.175
0
ARC
8
0
10
266.113
20
-61.175
40
0.5
50
90
51
180
0
ARC
8
0
10
272.113
20
-61.175
40
0.5
50
0
51
90
0
ARC
8
0
10
266.113
20
-75.175
40
0.5
50
180
51
270
0
ARC
8
0
10
272.113
20
-75.175
40
0.5
50
270
51
0
0
LINE
8
0
10
279.25
20
-59.675
11
292.25
21
-59.675
0
LINE
8
0
10
279.25
20
-73.675
11
292.25
21
-73.675
0
LINE
8
0
10
278.75
20
-60.175
11
278.75
21
-73.175
0
LINE
8
0
10
292.75
20
-60.175
11
292.75
21
-73.175
0
ARC
8
0
10
279.25
20
-60.175
40
0.5
50
90
51
180
0
ARC
8
0
10
292.25
20
-60.175
40
0.5
50
0
51
90
0
ARC
8
0
10
279.25
20
-73.175
40
0.5
50
180
51
270
0
ARC
8
0
10
292.25
20
-73.175
40
0.5
50
270
51
0
0
LINE
8
0
10
5.40625
20
-78.725
11
18.40625
21
-78.725
0
LINE
8
0
10
5.40625
20
-92.725
11
18.40625
21
-92.725
0
LINE
8
0
10
4.90625
20
-79.225
11
4.90625
21
-92.225
0
LINE
8
0
10
18.90625
20
-79.225
11
18.90625
21
-92.225
0
ARC
8
0
10
5.40625
20
-79.225
40
0.5
50
90
51
180
0
ARC
8
0
10
18.40625
20
-79.225
40
0.5
50
0
51
90
0
ARC
8
0
10
5.40625
20
-92.225
40
0.5
50
180
51
270
0
ARC
8
0
10
18.40625
20
-92.225
40
0.5
50
270
51
0
0
LINE
8
0
10
26.8375
20
-78.725
11
39.8375
21
-78.725
0
LINE
8
0
10
26.8375
20
-92.725
11
39.8375
21
-92.725
0
LINE
8
0
10
26.3375
20
-79.225
11
26.3375
21
-92.225
0
LINE
8
0
10
40.3375
20
-79.225
11
40.3375
21
-92.225
0
ARC
8
0
10
26.8375
20
-79.225
40
0.5
50
90
51
180
0
ARC
8
0
10
39.8375
20
-79.225
40
0.5
50
0
51
90
0
ARC
8
0
10
26.8375
20
-92.225
40
0.5
50
180
51
270
0
ARC
8
0
10
39.8375
20
-92.225
40
0.5
50
270
51
0
0
LINE
8
0
10
45.8875
20
-78.725
11
58.8875
21
-78.725
0
LINE
8
0
10
45.8875
20
-92.725
11
58.8875
21
-92.725
0
LINE
8
0
10
45.3875
20
-79.225
11
45.3875
21
-92.225
0
LINE
8
0
10
59.3875
20
-79.225
11
59.3875
21
-92.225
0
ARC
8
0
10
45.8875
20
-79.225
40
0.5
50
90
51
180
0
ARC
8
0
10
58.8875
20
-79.225
40
0.5
50
0
51
90
0
ARC
8
0
10
45.8875
20
-92.225
40
0.5
50
180
51
270
0
ARC
8
0
10
58.8875
20
-92.225
40
0.5
50
270
51
0
0
LINE
8
0
10
64.9375
20
-78.725
11
77.9375
21
-78.725
0
LINE
8
0
10
64.9375
20
-92.725
11
77.9375
21
-92.725
0
LINE
8
0
10
64.4375
20
-79.225
11
64.4375
21
-92.225
0
LINE
8
0
10
78.4375
20
-79.225
11
78.4375
21
-92.225
0
ARC
8
0
10
64.9375
20
-79.225
40
0.5
50
90
51
180
0
ARC
8
0
10
77.9375
20
-79.225
40
0.5
50
0
51
90
0
ARC
8
0
10
64.9375
20
-92.225
40
0.5
50
180
51
270
0
ARC
8
0
10
77.9375
20
-92.225
40
0.5
50
270
51
0
0
LINE
8
0
10
133.99375
20
-78.725
11
146.99375
21
-78.725
0
LINE
8
0
10
133.99375
20
-92.725
11
146.99375
21
-92.725
0
LINE
8
0
10
133.49375
20
-79.225
11
133.49375
21
-92.225
0
LINE
8
0
10
147.49375
20
-79.225
11
147.49375
21
-92.225
0
ARC
8
0
10
133.99375
20
-79.225
40
0.5
50
90
51
180
0
ARC
8
0
10
146.99375
20
-79.225
40
0.5
50
0
51
90
0
ARC
8
0
10
133.99375
20
-92.225
40
0.5
50
180
51
270
0
ARC
8
0
10
146.99375
20
-92.225
40
0.5
50
270
51
0
0
LINE
8
0
10
87.49375
20
-79.725
11
93.49375
21
-79.725
0
LINE
8
0
10
87.49375
20
-94.725
11
93.49375
21
-94.725
0
LINE
8
0
10
86.99375
20
-80.225
11
86.99375
21
-94.225
0
LINE
8
0
10
93.99375
20
-80.225
11
93.99375
21
-94.225
0
ARC
8
0
10
87.49375
20
-80.225
40
0.5
50
90
51
180
0
ARC
8
0
10
93.49375
20
-80.225
40
0.5
50
0
51
90
0
ARC
8
0
10
87.49375
20
-94.225
40
0.5
50
180
51
270
0
ARC
8
0
10
93.49375
20
-94.225
40
0.5
50
270
51
0
0
LINE
8
0
10
187.49375
20
-79.725
11
193.49375
21
-79.725
0
LINE
8
0
10
187.49375
20
-94.725
11
193.49375
21
-94.725
0
LINE
8
0
10
186.99375
20
-80.225
11
186.99375
21
-94.225
0
LINE
8
0
10
193.99375
20
-80.225
11
193.99375
21
-94.225
0
ARC
8
0
10
187.49375
20
-80.225
40
0.5
50
90
51
180
0
ARC
8
0
10
193.49375
20
-80.225
40
0.5
50
0
51
90
0
ARC
8
0
10
187.49375
20
-94.225
40
0.5
50
180
51
270
0
ARC
8
0
10
193.49375
20
-94.225
40
0.5
50
270
51
0
0
LINE
8
0
10
203.05
20
-78.725
11
216.05
21
-78.725
0
LINE
8
0
10
203.05
20
-92.725
11
216.05
21
-92.725
0
LINE
8
0
10
202.55
20
-79.225
11
202.55
21
-92.225
0
LINE
8
0
10
216.55
20
-79.225
11
216.55
21
-92.225
0
ARC
8
0
10
203.05
20
-79.225
40
0.5
50
90
51
180
0
ARC
8
0
10
216.05
20
-79.225
40
0.5
50
0
51
90
0
ARC
8
0
10
203.05
20
-92.225
40
0.5
50
180
51
270
0
ARC
8
0
10
216.05
20
-92.225
40
0.5
50
270
51
0
0
LINE
8
0
10
222.1
20
-78.725
11
235.1
21
-78.725
0
LINE
8
0
10
222.1
20
-92.725
11
235.1
21
-92.725
0
LINE
8
0
10
221.6
20
-79.225
11
221.6
21
-92.225
0
LINE
8
0
10
235.6
20
-79.225
11
235.6
21
-92.225
0
ARC
8
0
10
222.1
20
-79.225
40
0.5
50
90
51
180
0
ARC
8
0
10
235.1
20
-79.225
40
0.5
50
0
51
90
0
ARC
8
0
10
222.1
20
-92.225
40
0.5
50
180
51
270
0
ARC
8
0
10
235.1
20
-92.225
40
0.5
50
270
51
0
0
LINE
8
0
10
241.15
20
-78.725
11
254.15
21
-78.725
0
LINE
8
0
10
241.15
20
-92.725
11
254.15
21
-92.725
0
LINE
8
0
10
240.65
20
-79.225
11
240.65
21
-92.225
0
LINE
8
0
10
254.65
20
-79.225
11
254.65
21
-92.225
0
ARC
8
0
10
241.15
20
-79.225
40
0.5
50
90
51
180
0
ARC
8
0
10
254.15
20
-79.225
40
0.5
50
0
51
90
0
ARC
8
0
10
241.15
20
-92.225
40
0.5
50
180
51
270
0
ARC
8
0
10
254.15
20
-92.225
40
0.5
50
270
51
0
0
LINE
8
0
10
260.2
20
-78.725
11
273.2
21
-78.725
0
LINE
8
0
10
260.2
20
-92.725
11
273.2
21
-92.725
0
LINE
8
0
10
259.7
20
-79.225
11
259.7
21
-92.225
0
LINE
8
0
10
273.7
20
-79.225
11
273.7
21
-92.225
0
ARC
8
0
10
260.2
20
-79.225
40
0.5
50
90
51
180
0
ARC
8
0
10
273.2
20
-79.225
40
0.5
50
0
51
90
0
ARC
8
0
10
260.2
20
-92.225
40
0.5
50
180
51
270
0
ARC
8
0
10
273.2
20
-92.225
40
0.5
50
270
51
0
0
LINE
8
0
10
279.25
20
-78.725
11
292.25
21
-78.725
0
LINE
8
0
10
279.25
20
-92.725
11
292.25
21
-92.725
0
LINE
8
0
10
278.75
20
-79.225
11
278.75
21
-92.225
0
LINE
8
0
10
292.75
20
-79.225
11
292.75
21
-92.225
0
ARC
8
0
10
279.25
20
-79.225
40
0.5
50
90
51
180
0
ARC
8
0
10
292.25
20
-79.225
40
0.5
50
0
51
90
0
ARC
8
0
10
279.25
20
-92.225
40
0.5
50
180
51
270
0
ARC
8
0
10
292.25
20
-92.225
40
0.5
50
270
51
0
0
LINE
8
0
10
298.3
20
-78.725
11
311.3
21
-78.725
0
LINE
8
0
10
298.3
20
-92.725
11
311.3
21
-92.725
0
LINE
8
0
10
297.8
20
-79.225
11
297.8
21
-92.225
0
LINE
8
0
10
311.8
20
-79.225
11
311.8
21
-92.225
0
ARC
8
0
10
298.3
20
-79.225
40
0.5
50
90
51
180
0
ARC
8
0
10
311.3
20
-79.225
40
0.5
50
0
51
90
0
ARC
8
0
10
298.3
20
-92.225
40
0.5
50
180
51
270
0
ARC
8
0
10
311.3
20
-92.225
40
0.5
50
270
51
0
0
LINE
8
0
10
0
20
-95.25
11
338.1375
21
-95.25
0
LINE
8
0
10
0
20
0
11
338.1375
21
0
0
LINE
8
0
10
0
20
-95.25
11
0
21
0
0
LINE
8
0
10
338.1375
20
-95.25
11
338.1375
21
0
0
ENDSEC
0
EOF